<svg width="55" height="55" viewBox="0 0 55 55" fill="none" xmlns="http://www.w3.org/2000/svg">
<path d="M16.5321 3.81589C16.5321 3.81589 21.2819 7.94797 20.2874 10.0665C19.293 12.1912 18.0577 11.4748 16.5321 10.5915C15.0065 9.70828 14.7842 8.72004 13.0671 9.70828C11.35 10.7027 8.32973 10.295 8.32973 10.295M4.64853 17.8798C4.64853 17.8798 10.2753 18.0466 12.0665 17.0089C13.8577 15.9713 17.7304 18.1392 17.0263 22.1045C16.316 26.0698 13.2586 23.8339 10.8806 26.2119C8.50267 28.5899 12.1283 31.1963 10.8806 32.444C9.63297 33.6916 8.85473 34.9455 10.0406 37.8731C6.30384 34.0684 4 28.8554 4 23.0989C4 11.4439 13.4439 2 25.0989 2C36.754 2 46.2041 11.4439 46.1979 23.0989C46.1979 27.4904 44.8576 31.5608 42.5661 34.9393M30.4602 2.68559C30.4602 2.68559 26.9395 7.80592 28.076 10.3506C29.2063 12.9015 31.504 12.4259 32.3255 12.9015C33.1469 13.3771 38.1808 13.8404 36.6305 15.3907C35.0802 16.941 32.3934 17.083 30.6207 18.8495C28.8481 20.6222 29.6078 23.0989 27.8475 23.0989C26.0872 23.0989 24.8581 19.7266 23.1719 21.4128C21.4857 23.0989 24.1107 27.3484 26.2354 29.4731C28.3601 31.5978 26.4763 32.9072 27.4337 33.8646C27.9957 34.4267 28.7122 34.9702 29.2001 35.6928M34.5675 33.6361C34.4008 31.6349 34.2463 29.8128 35.0122 29.0469C36.3587 27.7004 38.8355 24.3342 37.8411 21.2398C36.8528 18.1454 43.7335 13.198 43.7335 13.198M45.327 41.0417C45.327 41.0417 41.3308 36.4834 37.7484 36.4834C34.1661 36.4834 31.609 38.1326 28.7987 38.5464C27.4893 38.7379 25.5498 38.8429 23.8513 38.8984C21.8686 38.9602 20.2998 40.5846 20.2998 42.5735C20.2998 42.9502 20.6024 43.2529 20.9792 43.2529H33.3384M41.5284 50.1026C41.5284 50.1026 27.0631 50.1829 24.3392 51.0106C22.0601 51.7023 10.3062 46.2732 6.52619 44.4758C5.90854 44.1855 5.71707 43.4073 6.11236 42.8576C7.26737 41.2455 9.36738 40.6217 11.2142 41.3443L19.6266 44.6179C20.3801 44.9144 21.2077 44.9329 21.9736 44.6858L26.4022 43.2529M46.0558 54L40.8182 51.7826L46.3708 38.6576L51.6085 40.8749L46.0558 54Z" stroke="#00FFFF" stroke-width="1.32329" stroke-linecap="round" stroke-linejoin="round"/>
</svg>
