<svg xmlns="http://www.w3.org/2000/svg">
<defs>
<font id="PowerGrotesk-Bold" horiz-adv-x="203" >
  <font-face 
    font-family="Power Grotesk"
    font-weight="700"
    font-stretch="normal"
    units-per-em="1000"
    panose-1="0 0 0 0 0 0 0 0 0 0"
    ascent="800"
    descent="-200"
    x-height="500"
    cap-height="700"
    bbox="-809.017 -288 1193 956"
    underline-thickness="50"
    underline-position="-100"
    unicode-range="U+000D-FB03"
  />
<missing-glyph horiz-adv-x="526" 
d="M405 211q4 -22 6.5 -43.5t6.5 -44.5l11 88h64v-188h-43v127l-17 -127h-31l-18 124v-124h-42v188h63zM267 215q21 0 32 -6.5t16.5 -18t6.5 -26t1 -31.5v-32q0 -16 -1 -31t-6.5 -26.5t-16.5 -18t-32 -6.5t-32.5 6.5t-17 18t-6.5 26.5t-1 31v32q0 17 1 31.5t6.5 26t17 18
t32.5 6.5zM78 90v55q0 32 11 51t48 19q21 0 32.5 -6t17 -16.5t6.5 -25.5t1 -32v-6h-49v26v12t-2 13l-7 3l-7 -4l-2 -19v-87l2 -18l7 -4l7 4q2 11 2 21.5v21.5h49v-7q0 -16 -2 -29t-8.5 -22.5t-18 -15t-30.5 -5.5q-36 0 -46.5 19t-10.5 52zM292 431h49q12 0 24 -2.5t23 -10.5
q5 -10 7 -21t2 -28q0 -5 -0.5 -14t-3.5 -20q-10 -14 -24 -15.5t-29 -1.5v-76h-48v189zM212 627h32l7 -88q3 42 9 88h35q2 -23 3.5 -46t3.5 -46l4 46t6 46h32l-15 -129h-42q-3 17 -5.5 34t-4.5 34l-9 -68h-41zM493 431v-38h-33v-36h31v-36h-31v-41h36v-38h-85v189h82zM55 393
v38h107v-38h-29v-151h-49v151h-29zM168 431h45q3 -19 6.5 -37.5t5.5 -37.5q2 19 5.5 37.5t7.5 37.5h45q-7 -19 -15 -43.5t-14 -50t-8 -50.5t1 -45h-45q2 7 2 13v13q0 39 -11 82.5t-25 80.5zM129 551v22q0 23 5 39.5t33 16.5q14 0 22 -4.5t12 -12t4.5 -18t0.5 -21.5v-22
q0 -11 -0.5 -21t-4.5 -17.5t-12 -12t-22 -4.5t-21.5 4.5t-11.5 12t-4.5 17.5t-0.5 21zM496 476v-23h-449v23h449zM422 627h34q20 0 30 -6.5t10 -27.5q0 -13 -4 -22q-6 -4 -14 -6q7 -1 13 -6l4 -8l1 -19v-34h-31l1 32v12t-2 12l-9 2v-58h-33v129zM48 627h34q19 0 32 -9
q6 -13 6 -33q0 -4 -0.5 -10t-2.5 -13q-6 -10 -15.5 -11t-20.5 -1v-52h-33v129zM351 627h59v-30h-26v-20h26v-29h-26v-19h26v-31h-59v129zM259 75l1 -20l7 -4l6 4l1 21v87l-1 17l-6 3l-6 -3q-2 -10 -2 -17v-88zM30 61h36v-38h-36v38zM162 594v-60l1 -14l4 -3l5 3l1 15v59

<glyph glyph-name=".notdef" horiz-adv-x="526" 
d="M405 211q4 -22 6.5 -43.5t6.5 -44.5l11 88h64v-188h-43v127l-17 -127h-31l-18 124v-124h-42v188h63zM267 215q21 0 32 -6.5t16.5 -18t6.5 -26t1 -31.5v-32q0 -16 -1 -31t-6.5 -26.5t-16.5 -18t-32 -6.5t-32.5 6.5t-17 18t-6.5 26.5t-1 31v32q0 17 1 31.5t6.5 26t17 18
t32.5 6.5zM78 90v55q0 32 11 51t48 19q21 0 32.5 -6t17 -16.5t6.5 -25.5t1 -32v-6h-49v26v12t-2 13l-7 3l-7 -4l-2 -19v-87l2 -18l7 -4l7 4q2 11 2 21.5v21.5h49v-7q0 -16 -2 -29t-8.5 -22.5t-18 -15t-30.5 -5.5q-36 0 -46.5 19t-10.5 52zM292 431h49q12 0 24 -2.5t23 -10.5
q5 -10 7 -21t2 -28q0 -5 -0.5 -14t-3.5 -20q-10 -14 -24 -15.5t-29 -1.5v-76h-48v189zM212 627h32l7 -88q3 42 9 88h35q2 -23 3.5 -46t3.5 -46l4 46t6 46h32l-15 -129h-42q-3 17 -5.5 34t-4.5 34l-9 -68h-41zM493 431v-38h-33v-36h31v-36h-31v-41h36v-38h-85v189h82zM55 393
v38h107v-38h-29v-151h-49v151h-29zM168 431h45q3 -19 6.5 -37.5t5.5 -37.5q2 19 5.5 37.5t7.5 37.5h45q-7 -19 -15 -43.5t-14 -50t-8 -50.5t1 -45h-45q2 7 2 13v13q0 39 -11 82.5t-25 80.5zM129 551v22q0 23 5 39.5t33 16.5q14 0 22 -4.5t12 -12t4.5 -18t0.5 -21.5v-22
q0 -11 -0.5 -21t-4.5 -17.5t-12 -12t-22 -4.5t-21.5 4.5t-11.5 12t-4.5 17.5t-0.5 21zM496 476v-23h-449v23h449zM422 627h34q20 0 30 -6.5t10 -27.5q0 -13 -4 -22q-6 -4 -14 -6q7 -1 13 -6l4 -8l1 -19v-34h-31l1 32v12t-2 12l-9 2v-58h-33v129zM48 627h34q19 0 32 -9
q6 -13 6 -33q0 -4 -0.5 -10t-2.5 -13q-6 -10 -15.5 -11t-20.5 -1v-52h-33v129zM351 627h59v-30h-26v-20h26v-29h-26v-19h26v-31h-59v129zM259 75l1 -20l7 -4l6 4l1 21v87l-1 17l-6 3l-6 -3q-2 -10 -2 -17v-88zM30 61h36v-38h-36v38zM162 594v-60l1 -14l4 -3l5 3l1 15v59
l-1 11l-5 3l-4 -2q0 -3 -0.5 -6t-0.5 -6zM340 350h4l9 4q1 3 2 6.5t1 6.5v16q0 3 -1 6.5t-2 5.5l-13 3v-48zM84 572l6 2q2 6 2 10v10q0 3 -2 9l-9 2v-33h3zM455 576l8 2q2 6 2 10v7q0 2 -2 8l-8 2v-29z" />
    <glyph glyph-name=".null" horiz-adv-x="0" 
 />
    <glyph glyph-name=".null" horiz-adv-x="0" 
 />
    <glyph glyph-name="uni000D" unicode="&#xd;" horiz-adv-x="250" 
 />
    <glyph glyph-name="space" unicode=" " horiz-adv-x="200" 
 />
    <glyph glyph-name="exclam" unicode="!" horiz-adv-x="266" 
d="M61 398v302h143v-302l-57 -206h-29zM216 -8v137h-165v-137h165z" />
    <glyph glyph-name="quotedbl" unicode="&#x22;" horiz-adv-x="396" 
d="M219 636v64h157v-64l-59 -199h-38zM20 700h157v-64l-60 -199h-38l-59 199v64z" />
    <glyph glyph-name="numbersign" unicode="#" horiz-adv-x="877" 
d="M-2 158l49 131h125l35 118h-128l51 132h123l52 161h152l-51 -161h124l52 161h152l-51 -161h179l-51 -132h-175l-35 -118h178l-49 -131h-175l-49 -158h-152l49 158h-124l-50 -158h-152l49 158h-128zM324 289h125l35 118h-124z" />
    <glyph glyph-name="dollar" unicode="$" horiz-adv-x="749" 
d="M46 219l134 7q2 -46 31 -68t85 -26v181q-51 6 -95.5 15t-77.5 29.5t-52.5 57.5t-19.5 100q0 54 23 90.5t58.5 59t79 33t84.5 11.5v35h135v-36q109 -3 168.5 -56.5t64.5 -145.5l-132 -7q-2 38 -29 59t-72 25v-164q54 -5 103 -17.5t86 -36t59 -58.5t22 -85q0 -48 -12 -88
t-42.5 -69t-82.5 -47t-133 -22v-42h-135v42q-75 5 -123 25.5t-75.5 51t-38.5 68.5t-13 78zM431 132q58 2 88.5 24.5t30.5 61.5q0 42 -32 58.5t-87 25.5v-170zM296 434v149q-43 -3 -72.5 -24t-29.5 -56q0 -31 25 -46t77 -23z" />
    <glyph glyph-name="percent" unicode="%" horiz-adv-x="819" 
d="M208 410q-59 0 -98 21.5t-58.5 53.5t-19.5 70t19.5 70t58.5 53.5t98 21.5t98.5 -21.5t59 -53.5t19.5 -70t-19.5 -70t-59 -53.5t-98.5 -21.5zM597 700h189l-562 -700h-189zM208 493q34 0 51 19.5t17 42.5t-17 42.5t-51 19.5t-50.5 -19.5t-16.5 -42.5t16.5 -42.5
t50.5 -19.5zM616 0q-59 0 -98 21.5t-58.5 53.5t-19.5 70t19.5 70t58.5 53.5t98 21.5t98.5 -21.5t59 -53.5t19.5 -70t-19.5 -70t-59 -53.5t-98.5 -21.5zM616 83q34 0 51 19.5t17 42.5t-17 42.5t-51 19.5t-50.5 -19.5t-16.5 -42.5t16.5 -42.5t50.5 -19.5z" />
    <glyph glyph-name="ampersand" unicode="&#x26;" horiz-adv-x="802" 
d="M33 200q0 43 16 72.5t44 49.5t64.5 32.5t76.5 19.5q-47 7 -80.5 23t-54.5 38t-30.5 47.5t-9.5 50.5q0 38 20 69t57.5 53t90.5 33.5t120 11.5q57 0 99.5 -5t76.5 -15.5t62 -26t55 -36.5l-78 -77q-22 17 -49 28t-55.5 18.5t-56.5 10.5t-54 3q-57 0 -95.5 -23.5t-38.5 -64.5
t36 -69.5t99 -28.5l186 -1v89l142 -21v-67h108l1 -92h-109v-323h-142v161q-5 -33 -18.5 -62t-40 -50.5t-68 -34.5t-103.5 -13t-112 14.5t-85.5 40.5t-54.5 63t-19 82zM173 200q0 -40 34 -69t96 -29t106 13.5t72 38t40.5 59t12.5 77.5v32h-141q-49 -2 -89.5 -8t-69.5 -19.5
t-45 -36t-16 -58.5z" />
    <glyph glyph-name="quotesingle" unicode="'" horiz-adv-x="195" 
d="M19 636v64h157v-64l-59 -199h-39z" />
    <glyph glyph-name="parenleft" unicode="(" horiz-adv-x="336" 
d="M20 308q0 93 23 165t52 123q32 59 74 104h139q-41 -45 -72 -104q-28 -51 -50.5 -123t-22.5 -165q0 -92 22.5 -164.5t50.5 -123.5q31 -59 72 -104h-139q-42 45 -74 104q-29 51 -52 123.5t-23 164.5z" />
    <glyph glyph-name="parenright" unicode=")" horiz-adv-x="336" 
d="M159 700q42 -45 75 -104q28 -51 51 -123t23 -165q0 -92 -23 -164.5t-51 -123.5q-33 -59 -75 -104h-139q41 45 73 104q27 51 49.5 123.5t22.5 164.5q0 93 -22.5 165t-49.5 123q-32 59 -73 104h139z" />
    <glyph glyph-name="asterisk" unicode="*" horiz-adv-x="468" 
d="M446 573l-152 -42l154 -45l-69 -89l-112 93l37 -141v-1h-140v1l43 141l-121 -88l-66 84l161 45l-161 42l74 97l113 -97l-43 135h140l-37 -135l107 97z" />
    <glyph glyph-name="plus" unicode="+" horiz-adv-x="576" 
d="M24 354h194v162h142v-162h192v-132h-192v-169h-142v169h-194v132z" />
    <glyph glyph-name="comma" unicode="," horiz-adv-x="225" 
d="M190 131v-139q0 -61 -28.5 -88t-103.5 -27h-22v55h22q42 0 58 17t16 43h-96v139h154z" />
    <glyph glyph-name="hyphen" unicode="-" horiz-adv-x="484" 
d="M30 327h424v-143h-424v143z" />
    <glyph glyph-name="period" unicode="." horiz-adv-x="237" 
d="M36 -8v137h164v-137h-164z" />
    <glyph glyph-name="slash" unicode="/" horiz-adv-x="586" 
d="M411 700h160l-396 -795h-160z" />
    <glyph glyph-name="zero" unicode="0" horiz-adv-x="618" 
d="M22 348q0 32 2.5 70.5t11.5 78.5t27.5 77.5t50.5 67t79.5 47t115.5 17.5t115.5 -17.5t79.5 -47t50.5 -67t27.5 -77.5t11.5 -78.5t2.5 -70.5t-2.5 -70.5t-11.5 -78.5t-27.5 -77.5t-50.5 -67t-79.5 -47t-115.5 -17.5t-115.5 17.5t-79.5 47t-50.5 67t-27.5 77.5t-11.5 78.5
t-2.5 70.5zM309 556q-42 0 -69.5 -15t-44 -42t-23.5 -65.5t-7 -85.5q0 -44 6 -82t21.5 -66t43.5 -44t73 -16q42 0 70 16.5t44.5 45t23 66t6.5 80.5q0 46 -7.5 84.5t-24 66t-44 42.5t-68.5 15z" />
    <glyph glyph-name="one" unicode="1" horiz-adv-x="331" 
d="M15 578q21 0 48 4t50.5 16.5t39.5 37t16 64.5h143v-700h-143v498q0 17 2.5 37t5.5 37l-2 1q-3 -17 -7 -37.5t-13 -34.5q-10 -18 -25.5 -28.5t-34.5 -16t-39.5 -7.5t-40.5 -2v131z" />
    <glyph glyph-name="two" unicode="2" horiz-adv-x="622" 
d="M22 20q0 65 18.5 114t48 86t68 64t78 47.5t78 37.5t68 33.5t48 34.5t18.5 41q0 29 -11 48.5t-29 31.5t-42 17t-50 5q-63 0 -99.5 -33.5t-38.5 -92.5l-143 4q5 133 78.5 190.5t212.5 57.5q128 0 201 -51t73 -155q0 -53 -17 -88.5t-45.5 -61t-65 -44.5t-75.5 -39.5
t-76.5 -46t-68.5 -63.5q-11 -11 -26 -22t-31 -18l1 -2q15 7 34.5 11.5t36.5 4.5h337v-131h-581v20z" />
    <glyph glyph-name="three" unicode="3" horiz-adv-x="632" 
d="M333 -6q-68 0 -123.5 14t-95 43t-62 74t-24.5 107l142 4q0 -24 12 -44t32 -34.5t47.5 -23t58.5 -8.5q65 0 105.5 30.5t40.5 77.5q0 50 -37.5 68.5t-108.5 19.5h-56l-2 84h58q69 0 101 25t32 69q0 23 -10.5 41.5t-29 31t-42.5 19t-51 6.5q-32 0 -57 -9.5t-43 -26t-28 -37
t-11 -43.5l-142 4q2 57 23 98.5t58.5 68.5t90.5 39.5t119 12.5q117 -1 183 -44.5t66 -137.5q0 -32 -14 -55.5t-36 -39.5t-50 -24.5t-56 -9.5v-2q17 1 37.5 0t36.5 -7q26 -8 46 -20.5t33.5 -32.5t20.5 -48.5t7 -68.5q0 -109 -71.5 -165t-199.5 -56z" />
    <glyph glyph-name="four" unicode="4" horiz-adv-x="673" 
d="M15 171v78l338 451h166v-406h117l15 -123h-94q-17 0 -34.5 7.5t-30.5 19.5l-1 -1q12 -12 20 -29.5t8 -34.5v-133h-145v171h-359zM213 302h161v250z" />
    <glyph glyph-name="five" unicode="5" horiz-adv-x="662" 
d="M64 700h538l4 -116h-430l-4 -132q-2 -17 -8.5 -35.5t-15.5 -32.5l1 -1q9 14 22.5 28t28.5 22q41 18 84 27t86 9q53 0 102 -14.5t86 -44.5t59 -75t22 -105q0 -64 -23.5 -109t-65 -72.5t-98 -40t-122.5 -12.5q-69 0 -124.5 13.5t-95 42.5t-61 75t-23.5 110l141 3
q1 -37 13.5 -63.5t34 -43.5t51 -25.5t64.5 -8.5q46 0 78 9.5t51.5 26.5t28 41t8.5 54q0 36 -12.5 61.5t-32.5 42t-46.5 24t-53.5 7.5q-22 0 -44.5 -5t-41.5 -14t-34 -22t-24 -30h-181z" />
    <glyph glyph-name="six" unicode="6" horiz-adv-x="674" 
d="M338 -4q-70 0 -128.5 19t-100 58t-64.5 98.5t-23 141.5t20 153.5t61.5 124.5t105 83.5t149.5 30.5q74 0 128 -20.5t89.5 -52.5t52.5 -70.5t17 -74.5l-153 -7q-5 15 -14 32.5t-24 32.5t-36.5 25t-53.5 10t-64.5 -11.5t-59.5 -39t-46 -72.5t-24 -111q-2 -17 -4.5 -37
t-7.5 -37l2 -1q5 17 10.5 37t14.5 34q15 23 38 40t50.5 28t59 17t63.5 6q47 0 93 -13t82 -39t58.5 -65.5t22.5 -93.5q0 -61 -26.5 -104t-70 -70t-100 -39.5t-117.5 -12.5zM174 222q0 -55 43.5 -87t121.5 -32q88 0 129.5 29.5t41.5 89.5q0 50 -39 84t-123 36q-33 0 -64.5 -8
t-56 -24t-39 -38.5t-14.5 -49.5z" />
    <glyph glyph-name="seven" unicode="7" horiz-adv-x="647" 
d="M627 700v-86l-355 -617h-165l310 539q8 14 22.5 28t29.5 23l-1 1q-15 -8 -34 -13.5t-36 -5.5h-382v131h611z" />
    <glyph glyph-name="eight" unicode="8" horiz-adv-x="677" 
d="M339 -6q-66 0 -124 13t-101 38.5t-68 64t-25 90.5q0 57 29.5 95.5t80.5 61.5q15 8 35.5 10t37.5 1v2q-31 2 -58 12.5t-47 30t-31 46t-11 59.5q0 47 21.5 82t59 58.5t89.5 35t112 11.5t111.5 -12t89 -35t59 -58t21.5 -82q0 -45 -20.5 -77t-55.5 -54q-14 -9 -34.5 -13
t-37.5 -5v-2q17 1 37.5 -1t35.5 -10q51 -23 81 -61t30 -95q0 -52 -25 -90.5t-67.5 -64t-100.5 -38.5t-124 -13zM339 319q-37 0 -68.5 -4.5t-54.5 -15.5t-36.5 -30.5t-13.5 -48.5q0 -28 13 -48.5t36 -34.5t55 -21t69 -7q34 0 65.5 6t56 19.5t39 34.5t14.5 51t-14 49t-38 30
t-56 15.5t-67 4.5zM194 503q0 -26 11 -44.5t30.5 -30t46 -17t57.5 -5.5q66 0 105 23t39 74q0 29 -11 48.5t-30.5 31.5t-45.5 17t-57 5q-32 0 -58.5 -5t-46 -16.5t-30 -31t-10.5 -49.5z" />
    <glyph glyph-name="nine" unicode="9" horiz-adv-x="688" 
d="M178 208q12 -47 46 -70t105 -22q32 1 62.5 17.5t56 46.5t43 71.5t23.5 92.5q2 17 5 37t8 37h-2q-4 -17 -10 -36.5t-14 -34.5q-30 -54 -83.5 -79.5t-115.5 -25.5q-51 0 -101 16t-89.5 47t-64.5 75t-25 99q0 63 26 106.5t71 70t104.5 38t126.5 11.5q77 0 135.5 -17.5
t97.5 -55.5t58.5 -98t19.5 -146q0 -78 -20.5 -149t-62.5 -125t-107.5 -86t-155.5 -32q-72 0 -126 16t-90 43.5t-55 64.5t-22 79zM357 603q-32 0 -64 -6t-57.5 -20.5t-41 -38.5t-15.5 -60q0 -35 16 -58.5t41.5 -38t57 -20.5t63.5 -6q28 0 56 9.5t50.5 26.5t36.5 39.5t14 47.5
q0 20 -11 42t-31.5 40.5t-49.5 30.5t-65 12z" />
    <glyph glyph-name="colon" unicode=":" horiz-adv-x="218" 
d="M182 163v-137h-146v137h146zM36 312v136h146v-136h-146z" />
    <glyph glyph-name="semicolon" unicode=";" horiz-adv-x="228" 
d="M196 165v-139q0 -61 -28.5 -88t-103.5 -27h-22v55h22q42 0 58 17t16 43h-96v139h154zM196 448v-135h-154v135h154z" />
    <glyph glyph-name="less" unicode="&#x3c;" horiz-adv-x="352" 
d="M11 328l335 165v-140l-161 -77l161 -76v-140l-335 165v103z" />
    <glyph glyph-name="equal" unicode="=" horiz-adv-x="595" 
d="M30 460h528v-131h-528v131zM30 108v131h528v-131h-528z" />
    <glyph glyph-name="greater" unicode="&#x3e;" horiz-adv-x="365" 
d="M176 276l-160 77v140l334 -165v-103l-334 -165v140z" />
    <glyph glyph-name="question" unicode="?" horiz-adv-x="597" 
d="M15 500q0 48 20 86t56 65t86.5 41t111.5 14q60 0 109 -12.5t84 -38t54 -64t19 -91.5q0 -44 -16.5 -70t-42 -43.5t-54.5 -31t-54.5 -31t-42 -44.5t-16.5 -71v-17h-142v17q0 60 16 99t40.5 65t52.5 42l52.5 30t40.5 29t16 39q0 43 -30.5 67t-85.5 24q-60 0 -95 -28t-36 -76
h-143zM340 137v-136h-165v136h165z" />
    <glyph glyph-name="at" unicode="@" horiz-adv-x="975" 
d="M22 320q0 87 35 161t99 127.5t154 84t199 30.5q119 0 204 -29.5t139 -83t79.5 -127.5t25.5 -163q0 -65 -17.5 -110t-45.5 -73.5t-63 -41.5t-70 -13q-48 0 -88.5 20t-59.5 52q-9 14 -8 34.5t4 37.5h-2q-3 -17 -10.5 -35.5t-20.5 -30.5q-21 -19 -52 -32.5t-73 -13.5
q-40 0 -77.5 12.5t-66 36t-45.5 57.5t-17 77q0 44 17.5 79.5t46 60.5t65.5 38.5t77 13.5q42 0 73.5 -9t51.5 -25q12 -10 21 -26.5t14 -30.5l2 1q-5 14 -9 32t-4 33v12h127v-176q0 -39 12 -61t28 -22q19 0 35.5 35t16.5 112q0 48 -17.5 90t-53 73.5t-89 49.5t-125.5 18
q-82 0 -150 -18.5t-116.5 -54t-75.5 -86.5t-27 -116q0 -76 25.5 -134t73.5 -97t117 -59t156 -20q136 0 304 49v-110q-196 -57 -352 -57q-111 0 -197.5 28t-146.5 82.5t-91.5 134.5t-31.5 183zM502 411q-25 0 -47.5 -7.5t-39.5 -21.5t-27 -35.5t-10 -48.5q0 -51 32.5 -78.5
t91.5 -27.5q41 0 69.5 26.5t28.5 89.5q0 32 -7.5 52t-21 31t-31.5 15.5t-38 4.5z" />
    <glyph glyph-name="A" unicode="A" horiz-adv-x="761" 
d="M22 0l264 700h189l264 -700h-153l-58 144l-297 -1l-55 -143h-154zM271 262h95t62 -7q26 -7 50 -32.5t44 -59.5l-144 383z" />
    <glyph glyph-name="B" unicode="B" horiz-adv-x="669" 
d="M361 700q115 0 181 -42.5t66 -134.5q0 -12 -5.5 -26.5t-16.5 -29.5t-27.5 -29t-39.5 -25q-11 -5 -26 -7t-28 -3l1 -2q12 1 27 0.5t27 -3.5q71 -19 99 -67.5t28 -119.5q0 -112 -68 -161.5t-188 -49.5h-366v700h336zM168 131h236q45 0 77 22.5t32 67.5q0 36 -25 55.5
t-70 19.5h-250v-165zM168 405h230q49 0 71.5 21t22.5 63q0 22 -9.5 38t-26 26t-37.5 14.5t-44 4.5h-207v-167z" />
    <glyph glyph-name="C" unicode="C" horiz-adv-x="750" 
d="M22 350q0 91 27.5 158.5t75.5 112t114 66t142 20.5q63 -1 119.5 -16t102.5 -45.5t78.5 -76.5t47.5 -108l-139 -33q-8 27 -25.5 51.5t-44 43.5t-61.5 30t-79 11q-53 0 -93.5 -15.5t-67.5 -43.5t-40.5 -67.5t-13.5 -87.5q0 -100 58 -157t157 -57q45 0 81 11t62.5 30
t43 43.5t23.5 52.5l139 -34q-15 -62 -47.5 -108t-78.5 -76.5t-102.5 -45.5t-119.5 -16q-76 -1 -142 20.5t-114 66t-75.5 112t-27.5 158.5z" />
    <glyph glyph-name="D" unicode="D" horiz-adv-x="738" 
d="M354 700q73 0 138 -21t113.5 -64.5t76.5 -109.5t28 -155t-28 -155t-76.5 -109.5t-113.5 -64.5t-138 -21h-324v700h324zM88 569q13 0 28 -1t27.5 -4.5t21 -9.5t8.5 -17v-53.5v-102.5v-125.5v-123.5h192q33 0 68.5 12t65.5 38t49 67.5t19 100.5q0 57 -19 98.5t-48.5 68
t-65 39.5t-69.5 13h-277z" />
    <glyph glyph-name="E" unicode="E" horiz-adv-x="653" 
d="M30 700h596v-131h-453v-172h423v-111h-423v-155h453v-131h-596v700z" />
    <glyph glyph-name="F" unicode="F" horiz-adv-x="632" 
d="M30 700h574v-131h-406q-11 0 -22.5 5t-19.5 13l-2 -1q8 -8 13.5 -19.5t5.5 -23.5v-146h405v-111h-377q-13 0 -25.5 6t-21.5 15l-2 -2q9 -9 15 -21.5t6 -25.5v-258h-143v700z" />
    <glyph glyph-name="G" unicode="G" horiz-adv-x="769" 
d="M22 350q0 91 27.5 158.5t76 112t115 66t143.5 20.5q64 -1 121 -16t103 -45.5t79 -76.5t49 -108l-132 -37q-13 38 -37 66t-54 47t-63.5 29t-65.5 10q-43 0 -82.5 -14t-70 -42.5t-48.5 -71t-18 -98.5q0 -54 16.5 -96.5t45 -71t68 -43.5t84.5 -15q33 0 58 14.5t42.5 36
t28 46t14.5 44.5h-97v106h249q38 0 55 -18.5t17 -50.5v-302h-140v265h-14q-2 -77 -18 -129.5t-45 -84t-70.5 -45t-94.5 -13.5q-77 0 -140 22t-108 66t-69.5 111t-24.5 158z" />
    <glyph glyph-name="H" unicode="H" horiz-adv-x="713" 
d="M173 700v-278h367v278h143v-700h-143v279h-367v-279h-143v700h143z" />
    <glyph glyph-name="I" unicode="I" 
d="M30 700h143v-700h-143v700z" />
    <glyph glyph-name="J" unicode="J" horiz-adv-x="668" 
d="M162 268q2 -26 12 -52t30.5 -46.5t51.5 -33t73 -12.5q33 0 63.5 13t53 38t36 62t13.5 86v377h143v-384q0 -89 -24 -150.5t-65.5 -100t-98 -55.5t-121.5 -17q-52 0 -105 12t-96 40t-71 74t-30 113z" />
    <glyph glyph-name="K" unicode="K" horiz-adv-x="711" 
d="M30 0v700h143v-315q0 -17 -4.5 -38t-10.5 -38h2q6 17 16.5 35t22.5 32l283 324h188l-283 -325l298 -375h-188l-257 325l-67 -163v-162h-143z" />
    <glyph glyph-name="L" unicode="L" horiz-adv-x="604" 
d="M30 0v700h143v-531q0 -17 -8 -34.5t-20 -29.5l2 -1q12 12 29.5 19.5t34.5 7.5h369v-131h-550z" />
    <glyph glyph-name="M" unicode="M" horiz-adv-x="825" 
d="M181 700l224 -487q3 -7 4.5 -16.5t1.5 -17.5h2q0 8 1.5 17.5t5.5 16.5l224 487h151v-699l-143 -1v345q0 31 4.5 67.5t11.5 65.5h-2q-7 -29 -18 -64t-25 -62l-157 -352h-107l-157 352q-14 27 -25 62t-18 64h-2q7 -29 11.5 -65.5t4.5 -67.5v-345h-143v700h151z" />
    <glyph glyph-name="N" unicode="N" horiz-adv-x="730" 
d="M30 700h148l351 -451q13 -16 24 -37t18 -41l2 1q-7 19 -11.5 43t-4.5 44v441h143v-700h-148l-351 447q-13 16 -24 37.5t-18 40.5l-2 -1q7 -19 11.5 -43t4.5 -44v-437h-143v700z" />
    <glyph glyph-name="O" unicode="O" horiz-adv-x="772" 
d="M386 -7q-75 0 -141.5 22t-116 66t-78 111t-28.5 158t28.5 158.5t78 112t116 66t141.5 20.5t141.5 -22.5t116 -66t78 -111t28.5 -157.5t-28.5 -158t-78 -111t-116 -66t-141.5 -22zM386 576q-42 0 -81.5 -15t-70.5 -44.5t-50 -71.5t-19 -95t19 -95t49.5 -71t70.5 -44.5
t82 -15.5q44 0 84 15.5t70 44.5t48 71t18 95q0 54 -18.5 95.5t-49.5 70.5t-70.5 44.5t-81.5 15.5z" />
    <glyph glyph-name="P" unicode="P" horiz-adv-x="672" 
d="M30 0v700h359q121 0 188.5 -59t67.5 -171q0 -43 -17.5 -84.5t-50.5 -74.5t-80.5 -53.5t-107.5 -20.5h-216v-237h-143zM173 349h196q26 0 50 9.5t42.5 25t29.5 37t11 45.5q0 30 -11 51.5t-29 36t-42 21.5t-51 7h-196v-233z" />
    <glyph glyph-name="Q" unicode="Q" horiz-adv-x="791" 
d="M385 -7q-75 0 -141 22t-115.5 66t-78 111t-28.5 158t28.5 158.5t78 112t115.5 66t141 20.5t141 -22.5t115.5 -66t78 -111t28.5 -157.5q0 -55 -13.5 -97.5t-39.5 -75t-64 -56.5t-86 -42l1 -2q16 6 35 12t36 9l155 32v-137h-387zM385 564q-44 0 -84 -13t-70 -40t-48 -67.5
t-18 -93.5t17.5 -93t47.5 -67t70 -40.5t85 -13.5q53 0 94 16t69 44.5t42.5 67.5t14.5 86q0 54 -18.5 94t-49 67t-70.5 40t-82 13z" />
    <glyph glyph-name="R" unicode="R" horiz-adv-x="707" 
d="M30 0v700h387q120 0 188 -46.5t68 -145.5q0 -28 -6.5 -48t-16.5 -34.5t-23 -23.5t-26 -17q-20 -16 -50 -24.5t-56 -11.5l1 -2q11 2 24.5 3t27.5 1q17 0 32.5 -2.5t27.5 -10.5q13 -6 25.5 -16.5t22.5 -28.5t16.5 -46.5t6.5 -71.5l1 -175h-143v171q0 35 -21.5 51t-61.5 16
l-280 -1v-237h-144zM377 358q32 0 62.5 7.5t54 21.5t38 34.5t14.5 47.5q0 33 -10.5 54.5t-30 34.5t-46 18.5t-58.5 5.5h-227v-224h203z" />
    <glyph glyph-name="S" unicode="S" horiz-adv-x="701" 
d="M167 227q3 -51 49 -75t121 -25q91 -2 143 21t52 74q0 24 -21.5 37.5t-56.5 21.5t-79.5 13.5t-91 12.5t-91 18.5t-79.5 32t-56.5 52.5t-21.5 81q0 59 25.5 101t68.5 68.5t100 38.5t120 11t116.5 -13.5t93 -38t63 -65t26.5 -93.5l-135 -7q-4 45 -43.5 65.5t-120.5 20.5
q-82 0 -126.5 -22.5t-44.5 -64.5q0 -22 21.5 -34t56.5 -19t79.5 -11t91 -11t91 -18.5t79.5 -32.5t56.5 -54t21.5 -83q0 -37 -14.5 -78.5t-52 -76t-102.5 -57t-166 -22.5q-91 0 -150.5 19t-95 50.5t-50 72t-15.5 83.5z" />
    <glyph glyph-name="T" unicode="T" horiz-adv-x="693" 
d="M673 700v-131h-221q-15 0 -30.5 7t-26.5 18l-2 -2q11 -11 18 -26.5t7 -30.5v-535h-142v569h-256v131h653z" />
    <glyph glyph-name="U" unicode="U" horiz-adv-x="727" 
d="M30 315v385h143v-386q0 -45 14.5 -80.5t40.5 -60t61.5 -37.5t77.5 -13q86 0 138.5 48.5t52.5 142.5v386h143v-385q0 -83 -28 -144t-74.5 -100.5t-106.5 -59t-125 -19.5q-69 0 -130.5 18.5t-107.5 57.5t-72.5 100.5t-26.5 146.5z" />
    <glyph glyph-name="V" unicode="V" horiz-adv-x="771" 
d="M22 700h151l206 -571q2 -7 3.5 -16t1.5 -17h2q0 8 1 17t3 16l206 571h153l-253 -700h-221z" />
    <glyph glyph-name="W" unicode="W" horiz-adv-x="1098" 
d="M22 700h152l170 -511q5 -17 5 -34h2v17.5t2 17.5l122 510h144l121 -511q2 -8 2.5 -17t-0.5 -17h2q1 8 2.5 17t3.5 16l174 512h152l-240 -700h-180l-106 443q-1 3 -0.5 6t0.5 5h-2q0 -7 -1 -11l-107 -443h-178z" />
    <glyph glyph-name="X" unicode="X" horiz-adv-x="766" 
d="M286 352l-259 347h183l161 -214q9 -12 9 -31h2q0 18 10 31l165 214h185l-270 -346l276 -354h-184l-172 218q-5 6 -7 14t-2 16h-2q0 -8 -2.5 -16t-7.5 -14l-165 -218h-183z" />
    <glyph glyph-name="Y" unicode="Y" horiz-adv-x="749" 
d="M192 699l163 -226q10 -14 15.5 -33t5.5 -36h2q0 17 5.5 36t15.5 33l162 226h175l-289 -385v-314h-143v314l-287 385h175z" />
    <glyph glyph-name="Z" unicode="Z" horiz-adv-x="724" 
d="M22 0v89l428 453q12 12 28.5 23t32.5 18l-1 2q-15 -7 -35 -11.5t-37 -4.5h-408v131h663v-89l-421 -452q-11 -13 -28 -24t-33 -18l1 -2q16 7 36 11.5t37 4.5h417v-131h-680z" />
    <glyph glyph-name="bracketleft" unicode="[" horiz-adv-x="392" 
d="M30 -132v832h331v-131h-150q-17 0 -34.5 7.5t-29.5 19.5l-2 -1q12 -12 20 -29.5t8 -34.5v-494q0 -17 -8 -34.5t-20 -29.5l2 -1q12 12 29.5 19.5t34.5 7.5h150v-131h-331z" />
    <glyph glyph-name="backslash" unicode="\" horiz-adv-x="603" 
d="M411 -95l-396 795h160l396 -795h-160z" />
    <glyph glyph-name="bracketright" unicode="]" horiz-adv-x="391" 
d="M30 700h331v-832h-331v131h151q17 0 34.5 -7.5t29.5 -19.5l1 1q-12 12 -19.5 29.5t-7.5 34.5v494q0 17 7.5 34.5t19.5 29.5l-1 1q-12 -12 -29.5 -19.5t-34.5 -7.5h-151v131z" />
    <glyph glyph-name="asciicircum" unicode="^" horiz-adv-x="628" 
d="M25 500l144 300h290l144 -300h-157l-122 248q-5 10 -7.5 22.5t-2.5 23.5h-2q0 -11 -2.5 -23.5t-7.5 -22.5l-120 -248h-157z" />
    <glyph glyph-name="underscore" unicode="_" horiz-adv-x="524" 
d="M50 6h424v-132h-424v132z" />
    <glyph glyph-name="grave" unicode="`" horiz-adv-x="189" 
d="M198 558h-117l-103 142h162z" />
    <glyph glyph-name="a" unicode="a" horiz-adv-x="652" 
d="M25 142q0 41 17.5 67.5t46 42.5t64.5 23t74 10t74.5 3t64.5 2.5t45 8.5t17 20q-2 42 -35.5 60.5t-96.5 18.5q-26 0 -50 -3t-42.5 -11.5t-30.5 -23.5t-14 -39l-124 7q3 47 27.5 80t61 54.5t82 31t90.5 9.5q51 0 99.5 -10t86.5 -32.5t61 -60t23 -93.5v-143q0 -20 8 -26
t26 -6h25v-132h-98q-21 0 -39 7t-31.5 19t-21 28t-7.5 34v39q-9 -32 -29.5 -56t-48.5 -39.5t-60.5 -23t-65.5 -7.5q-38 0 -74 9t-63.5 27t-44.5 44.5t-17 60.5zM168 146q0 -32 29.5 -46t69.5 -14q28 0 56.5 6.5t52 18t38 28.5t14.5 38v55q-16 -11 -41.5 -15t-54.5 -5
t-58 -2.5t-52.5 -7t-38.5 -18.5t-15 -38z" />
    <glyph glyph-name="b" unicode="b" horiz-adv-x="668" 
d="M30 0v700h143v-265q0 -17 -4 -37t-9 -37h2q5 16 13.5 35t19.5 31q17 18 39.5 32.5t47.5 25t51 16t51 5.5q125 -1 191.5 -63t66.5 -193t-66.5 -193.5t-191.5 -62.5q-24 0 -50.5 5t-51.5 15t-47.5 23.5t-39.5 31.5q-11 12 -19.5 31t-14.5 35l-1 -1q5 -16 9 -36t4 -37v-61
h-143zM173 250q0 -31 13.5 -57t36.5 -44.5t55 -29t68 -10.5q43 0 72.5 10t47.5 28.5t26 44.5t8 58t-8 59t-26 46.5t-47.5 31t-72.5 11.5q-36 0 -68 -11t-55 -31.5t-36.5 -47.5t-13.5 -58z" />
    <glyph glyph-name="c" unicode="c" horiz-adv-x="627" 
d="M325 506q47 0 94.5 -12.5t87 -37t66.5 -62t33 -88.5l-132 -8q-14 42 -50.5 69t-98.5 28q-72 0 -116 -38.5t-44 -106.5q0 -33 11.5 -60t32.5 -46t50.5 -29t65.5 -9q116 3 148 93l133 -8q-6 -50 -33 -87t-66.5 -61t-87 -36.5t-94.5 -12.5q-61 0 -116 15.5t-96.5 47.5
t-66 80t-24.5 113t24.5 113t66 80t96.5 47.5t116 15.5z" />
    <glyph glyph-name="d" unicode="d" horiz-adv-x="669" 
d="M27 250q0 130 66.5 192.5t190.5 63.5q25 0 51.5 -5.5t51.5 -16t47.5 -25t39.5 -32.5q11 -12 19.5 -31t13.5 -35h2q-5 17 -9 37t-4 37v265h143v-700h-143v61q0 17 4 37t9 36l-1 1q-6 -16 -14.5 -35t-19.5 -31q-35 -35 -87.5 -55t-102.5 -20q-124 0 -190.5 63t-66.5 193z
M322 398q-43 0 -72.5 -11t-47.5 -30.5t-26 -46.5t-8 -60q0 -32 8 -58t26 -44.5t47.5 -28.5t72.5 -10q37 0 68.5 10.5t55 29t37 44.5t13.5 57t-13.5 58t-37 47.5t-55 31.5t-68.5 11z" />
    <glyph glyph-name="e" unicode="e" horiz-adv-x="652" 
d="M326 -6q-61 0 -116.5 15.5t-97 47.5t-66 80t-24.5 113t24.5 113t66 80t97 47.5t116.5 15.5q62 0 115 -16t92 -47.5t61.5 -79.5t22.5 -113q0 -11 -0.5 -14.5t-0.5 -13.5h-447q4 -29 18 -51.5t35.5 -38t49 -23t58.5 -7.5q58 0 95.5 16t54.5 65l132 -7q-13 -54 -40 -89.5
t-64.5 -55.5t-83.5 -28.5t-98 -8.5zM330 405q-28 0 -58 -9.5t-54 -31.5t-38 -57t-11 -85q12 41 33 54t54 13h232q-3 31 -17 52.5t-35 35.5t-48.5 21t-57.5 7z" />
    <glyph glyph-name="f" unicode="f" horiz-adv-x="394" 
d="M10 371v132h114q16 0 34.5 -2.5t33.5 -6.5v2q-15 4 -33.5 8t-30.5 13q-15 10 -28 27t-13 38q0 26 12 47.5t44.5 37t89.5 24.5t146 9v-114q-154 0 -154 -41q0 -20 21 -31t49 -11h83v-132h-118v-371h-143v371h-107z" />
    <glyph glyph-name="g" unicode="g" horiz-adv-x="654" 
d="M113 84q-42 9 -59 27.5t-17 42.5q0 28 20.5 45.5t59.5 28.5q0 1 -7.5 9.5t-16.5 22t-16.5 31.5t-7.5 39q0 45 23.5 77t60 52.5t82 30t89.5 9.5q36 0 59 -4.5t52 -11.5q-15 28 -6.5 47.5t35 31t68 16t93.5 2.5v-94h-68q-8 0 -21 -1t-23.5 -4t-14 -9t6.5 -16q2 -2 13 -11
t23.5 -25t22.5 -38t10 -49q0 -44 -23 -75.5t-60 -52t-81.5 -30.5t-88.5 -10q-40 0 -76 9q-8 2 -13.5 4t-7.5 2q-13 1 -24.5 -6t-11.5 -15q0 -17 33.5 -23t84 -9.5t109.5 -9.5t109.5 -23t84 -50t33.5 -90q0 -41 -27.5 -70.5t-72 -48t-100.5 -27t-113 -8.5q-53 0 -111 8.5
t-106.5 27t-80 48t-31.5 70.5q0 29 8.5 49.5t23.5 35.5t36 25.5t45 19.5zM144 -37q0 -19 18 -32.5t45.5 -22.5t60.5 -13t63 -4q27 0 56.5 4t54 12.5t40.5 22t16 33.5t-17.5 33.5t-43.5 22t-57.5 13t-60.5 6.5q-9 2 -21 2.5t-21 0.5q-19 0 -42 -5.5t-43.5 -15.5t-34 -24.5
t-13.5 -32.5zM212 331q0 -21 10 -34.5t26 -22t35.5 -12t37.5 -3.5q19 0 38.5 3.5t35.5 11.5t26 22.5t10 35.5t-10 34.5t-26 22t-35.5 12t-37.5 3.5q-19 0 -38.5 -3.5t-35.5 -11.5t-26 -22.5t-10 -35.5z" />
    <glyph glyph-name="h" unicode="h" horiz-adv-x="645" 
d="M30 700h143v-287q0 -17 -3 -37t-7 -37l2 -1q4 17 10.5 36.5t15.5 33.5q35 53 89.5 76.5t116.5 23.5q47 0 87.5 -17.5t70 -51.5t46 -83.5t16.5 -112.5v-243h-142v243q0 61 -34 100.5t-98 39.5q-23 0 -52.5 -9.5t-55.5 -32.5t-44 -60.5t-18 -93.5v-187h-143v700z" />
    <glyph glyph-name="i" unicode="i" horiz-adv-x="204" 
d="M174 583v117h-144v-117h144zM32 500h140v-500h-140v500z" />
    <glyph glyph-name="j" unicode="j" horiz-adv-x="233" 
d="M-61 -78h22q51 0 74.5 23t23.5 81v474h143v-474q0 -56 -13 -95.5t-41.5 -65t-74.5 -37t-112 -11.5h-22v105zM202 700v-117h-143v117h143z" />
    <glyph glyph-name="k" unicode="k" horiz-adv-x="648" 
d="M30 0v700h144l-3 -355q0 -17 -5 -36.5t-13 -34.5l2 -1q8 15 19.5 31t25.5 27l205 169h206l-242 -196l257 -303h-58v-1l-1 1h-122l-184 219l-87 -71v-149h-144z" />
    <glyph glyph-name="l" unicode="l" horiz-adv-x="213" 
d="M35 728h143v-728h-143v728z" />
    <glyph glyph-name="m" unicode="m" horiz-adv-x="919" 
d="M30 500h143v-108q0 -17 -2.5 -37.5t-5.5 -37.5h2q3 17 7.5 37t11.5 36q27 62 70 90t89 28q39 0 66.5 -11t47 -28.5t31.5 -39t19 -43.5q5 -17 6 -37.5t-1 -37.5h2q3 37 16.5 72.5t36.5 63t55.5 44.5t72.5 17q83 0 129 -56t46 -176v-276h-143v234q0 66 -26 98t-69 32
q-18 0 -37.5 -8.5t-36 -28.5t-27 -53t-10.5 -81v-193h-144v234q0 68 -24 99t-66 31q-16 0 -36.5 -8.5t-38 -28.5t-29.5 -53t-12 -81v-193h-143v500z" />
    <glyph glyph-name="n" unicode="n" horiz-adv-x="602" 
d="M30 500h143v-119q0 -16 -2.5 -34t-5.5 -33l2 -1q3 15 7 33t11 32q15 34 37 58.5t47.5 40.5t53 23.5t52.5 7.5q52 0 89 -20t61 -56.5t35 -88t11 -115.5v-228h-142v229q0 66 -30 101t-78 35q-21 0 -47 -7.5t-48.5 -27.5t-37.5 -54.5t-15 -88.5v-187h-143v500z" />
    <glyph glyph-name="o" unicode="o" horiz-adv-x="657" 
d="M329 -6q-62 0 -117.5 15.5t-97.5 47.5t-67 80t-25 113t25 113t67 80t97.5 47.5t117.5 15.5t117.5 -16t97.5 -47.5t66.5 -79.5t24.5 -113t-24.5 -113t-66.5 -80t-97.5 -47.5t-117.5 -15.5zM329 392q-32 0 -61.5 -9.5t-52.5 -28t-36.5 -45t-13.5 -59.5q0 -34 12.5 -60.5
t35 -44.5t52.5 -27t64 -9q33 0 62.5 9.5t52 27.5t35.5 44t13 60t-13 60.5t-35.5 44.5t-52 27.5t-62.5 9.5z" />
    <glyph glyph-name="p" unicode="p" horiz-adv-x="669" 
d="M30 500h143v-63q0 -17 -3.5 -37t-9.5 -36l2 -1q6 17 14 35.5t20 31.5q17 18 39.5 32t47.5 23.5t51 15t51 5.5q124 0 190.5 -63t66.5 -193t-66.5 -192.5t-190.5 -63.5q-25 0 -51 5.5t-51 15.5t-47.5 24t-39.5 32q-12 13 -20 31.5t-14 35.5l-2 -1q6 -17 9.5 -37t3.5 -37
v-263h-142zM174 250q0 -31 13.5 -58t36.5 -47.5t54.5 -31.5t68.5 -11q43 0 72.5 11t47.5 30.5t25.5 46.5t7.5 60t-7.5 59t-25.5 44.5t-47.5 28.5t-72.5 10q-37 0 -68.5 -10.5t-54.5 -29.5t-36.5 -45t-13.5 -57z" />
    <glyph glyph-name="q" unicode="q" horiz-adv-x="660" 
d="M22 250q0 131 66.5 193.5t191.5 62.5q24 0 50.5 -5.5t51.5 -15t47.5 -23.5t39.5 -32q12 -13 20.5 -31.5t13.5 -35.5l2 1q-5 16 -9 36t-4 37v63h142v-700h-142v263q0 17 4 37t9 37l-2 1q-5 -17 -13.5 -35.5t-20.5 -31.5q-17 -18 -39.5 -32t-47.5 -24t-51.5 -15.5
t-50.5 -5.5q-125 1 -191.5 63t-66.5 193zM318 392q-85 -1 -119.5 -40t-34.5 -102q0 -32 8 -59.5t26 -47t47.5 -31t72.5 -11.5q36 0 68 11.5t55.5 32t37 47.5t13.5 58t-13.5 57t-37 45t-55.5 29.5t-68 10.5z" />
    <glyph glyph-name="r" unicode="r" horiz-adv-x="452" 
d="M30 336q0 85 38 124.5t126 39.5h233v-131l-187 -1q-21 0 -34 -3t-20.5 -11.5t-10 -24t-2.5 -41.5v-288h-143v336z" />
    <glyph glyph-name="s" unicode="s" horiz-adv-x="600" 
d="M164 171q4 -42 41 -59.5t99 -17.5q64 0 98 17.5t34 51.5q0 19 -30 26.5t-75 12t-97 10t-97 20t-75 41.5t-30 76q0 36 15.5 61.5t40 43.5t55 28t60.5 16t57 7.5t45 1.5q39 0 84 -8t83 -26t64 -47t29 -70l-127 -14q-5 35 -39.5 49.5t-97.5 14.5q-61 0 -93.5 -13t-32.5 -50
q0 -19 30 -26.5t75 -12t97 -9.5t97 -19t75 -41t30 -75q0 -38 -15.5 -65.5t-41 -45.5t-56.5 -29t-62.5 -17t-59.5 -7.5t-46 -1.5q-16 0 -42.5 2t-56.5 8.5t-60.5 17.5t-55.5 29t-41.5 43t-18.5 60z" />
    <glyph glyph-name="t" unicode="t" horiz-adv-x="432" 
d="M40 503q20 0 38.5 15.5t33 40.5t23.5 55t9 60h143q-1 -51 -23.5 -93t-67.5 -66q-14 -8 -32.5 -11.5t-33.5 -5.5v-2q16 2 34 4.5t34 2.5h205v-132h-150v-186q0 -33 15.5 -43.5t39.5 -10.5h119v-131h-140q-52 0 -86 13t-54 38.5t-28.5 63t-8.5 87.5v169h-100v132h30z" />
    <glyph glyph-name="u" unicode="u" horiz-adv-x="624" 
d="M236 -3q-56 0 -95.5 20t-64 56.5t-35.5 88t-11 114.5v229h143v-229q0 -72 32 -104t86 -32q20 0 43.5 7.5t44 27t34 54.5t13.5 89v187h143v-500h-143v115q0 15 2.5 33.5t5.5 33.5h-2q-3 -15 -7 -33t-11 -32q-28 -65 -77.5 -95t-100.5 -30z" />
    <glyph glyph-name="v" unicode="v" horiz-adv-x="617" 
d="M20 500h154l125 -343q6 -16 9 -36.5t3 -37.5h2q0 17 3 37.5t8 36.5l120 343h153l-187 -500h-203z" />
    <glyph glyph-name="w" unicode="w" horiz-adv-x="1029" 
d="M6 500h152l121 -357q5 -14 7 -31.5t3 -32.5l2 1q-1 14 0.5 31.5t6.5 31.5l99 357h232l103 -359q5 -14 6.5 -31.5t0.5 -31.5h2q1 14 3.5 31.5t7.5 31.5l120 359h153l-172 -500h-228l-101 351q-5 17 -7 37.5t-2 37.5h-2q0 -17 -2 -37.5t-7 -37.5l-97 -351h-230z" />
    <glyph glyph-name="x" unicode="x" horiz-adv-x="620" 
d="M18 500h181l100 -127q5 -7 7.5 -16t2.5 -18h2q0 20 11 34l99 127h182l-195 -249l195 -251h-181l-100 130q-11 14 -11 33h-2q0 -19 -11 -33l-100 -130h-180l195 251z" />
    <glyph glyph-name="y" unicode="y" horiz-adv-x="619" 
d="M11 500h157l121 -289q7 -16 10.5 -36t3.5 -37h2q0 17 3.5 37t10.5 36l121 289h155l-243 -571q-16 -42 -39.5 -68.5t-49 -41t-52 -20t-48.5 -5.5h-150v105h75q10 0 27 2t35 7.5t33.5 15t21.5 25.5l20 58z" />
    <glyph glyph-name="z" unicode="z" horiz-adv-x="614" 
d="M25 0v117l272 228q14 11 32 20.5t34 14.5v2q-17 -5 -37 -9t-37 -4h-254v131h547v-117l-270 -228q-14 -11 -31.5 -20.5t-34.5 -14.5l1 -2q17 5 37 9t37 4h265v-131h-561z" />
    <glyph glyph-name="braceleft" unicode="{" horiz-adv-x="379" 
d="M98 179q0 19 -8 29t-19.5 14t-23 4h-18.5v132h18.5t23 4t19.5 14t8 29v120q0 63 16.5 98t46.5 52.5t72 21t93 3.5v-131q-45 0 -65 -20t-20 -57v-120q0 -47 -23.5 -64t-67.5 -17v-2q45 0 68 -17t23 -65v-121q0 -37 18.5 -56.5t66.5 -19.5v-131q-55 0 -97.5 4t-71.5 21.5
t-44 54t-15 101.5v119z" />
    <glyph glyph-name="bar" unicode="|" 
d="M30 700h143v-900h-143v900z" />
    <glyph glyph-name="braceright" unicode="}" horiz-adv-x="359" 
d="M257 60q0 -65 -15 -101.5t-44 -54t-71.5 -21.5t-97.5 -4v131q48 0 66.5 19.5t18.5 56.5v121q0 48 23 65t68 17v2q-17 0 -38 3t-32 16q-21 21 -21 62v120q0 37 -20 57t-65 20v131q51 0 93 -3.5t72 -21t46.5 -52.5t16.5 -98v-120q0 -19 8.5 -29t19.5 -14t22.5 -4h18.5v-132
h-18.5t-22.5 -4t-19.5 -14t-8.5 -29v-119z" />
    <glyph glyph-name="asciitilde" unicode="~" horiz-adv-x="677" 
d="M202 411q41 2 70.5 -7.5t53.5 -22t46 -22.5t47 -9q14 0 25.5 6.5t20 16t13.5 22t4 25.5l170 6q3 -44 -10 -82t-39.5 -66.5t-65 -45.5t-86.5 -20q-37 -1 -66 9.5t-52.5 23t-44.5 22t-43 5.5q-32 -3 -48 -25t-14 -51l-156 -6q-5 37 6 75.5t34.5 70t58 52.5t76.5 23z" />
    <glyph glyph-name="exclamdown" unicode="&#xa1;" horiz-adv-x="242" 
d="M39 500v-134h164v134h-164zM193 94v-302h-143v302l57 206h29z" />
    <glyph glyph-name="cent" unicode="&#xa2;" horiz-adv-x="593" 
d="M242 96q-37 2 -76.5 19t-71 48.5t-52 78t-20.5 107.5t20.5 107.5t52 79t70 49t75.5 17.5v98h131v-99q32 0 63 -9.5t58 -28.5t47.5 -46.5t31.5 -63.5l-117 -49q-14 44 -54 61t-93 17q-32 0 -60 -7t-48.5 -23t-32 -41.5t-11.5 -61.5q0 -35 13 -59.5t34 -40.5t48.5 -23
t56.5 -7q54 0 94.5 20.5t54.5 55.5l115 -50q-12 -35 -32.5 -61.5t-47 -45.5t-57 -29t-60.5 -12v-97h-132v96z" />
    <glyph glyph-name="sterling" unicode="&#xa3;" horiz-adv-x="746" 
d="M15 119q53 0 89 10.5t57.5 27t30.5 36.5t9 39q1 19 -3.5 39t-11.5 33h-130l32 90h65q-23 28 -33.5 57t-10.5 67q0 47 22 82t61.5 58t93 35t116.5 12q60 0 111.5 -11t90.5 -37t62 -67.5t25 -101.5l-130 -6q-3 30 -18 50t-36.5 31.5t-48 16.5t-52.5 5q-31 0 -59 -4.5
t-48 -15t-32 -27.5t-12 -42q0 -23 9.5 -48t35.5 -54h192l-18 -90h-129q7 -12 12.5 -32t5.5 -39q0 -50 -29 -79.5t-71 -47.5l1 -2q16 7 36 11t37 4h374l14 -119h-710v119z" />
    <glyph glyph-name="currency" unicode="&#xa4;" horiz-adv-x="550" 
d="M17 171l73 62q-16 18 -21.5 42t-5.5 50t6 49t23 43l-73 62l75 63l72 -62q20 15 50.5 22.5t60.5 7.5q29 0 57 -6.5t48 -20.5l71 62l79 -69l-72 -62q15 -16 22.5 -39.5t7.5 -49.5t-9 -53.5t-24 -41.5l73 -62l-75 -63l-71 62q-7 -6 -19 -11.5t-26.5 -10.5t-30.5 -8t-31 -3
q-30 0 -57.5 7t-50.5 23l-72 -62zM277 406q-36 0 -62 -24t-26 -57t26 -56.5t62 -23.5q18 0 33.5 6.5t27.5 17t19 25.5t7 31q0 17 -7 31.5t-19 25.5t-27.5 17.5t-33.5 6.5z" />
    <glyph glyph-name="yen" unicode="&#xa5;" horiz-adv-x="775" 
d="M233 699l137 -202q10 -14 15.5 -33t4.5 -36h2q1 17 6.5 36t15.5 33l143 202h180l-276 -354v-35h135v-94h-135v-41h135v-88h-135v-87h-143v87h-136v88h136v41h-136v94h136v35l-260 354h175z" />
    <glyph glyph-name="brokenbar" unicode="&#xa6;" 
d="M30 698h143v-379h-143v379zM173 179v-379h-143v379h143z" />
    <glyph glyph-name="section" unicode="&#xa7;" horiz-adv-x="695" 
d="M27 524q0 38 18 65.5t47 45.5t65.5 29t72.5 17t68 7.5t53 1.5q53 0 106 -10t97 -32t74.5 -56.5t39.5 -82.5l-138 -7q-5 27 -22 45.5t-41.5 30t-54.5 16.5t-61 5q-70 0 -102.5 -16t-32.5 -54q0 -21 32.5 -33.5t82 -22t106.5 -19t106.5 -26.5t82 -44t32.5 -70
q0 -27 -10 -44t-26.5 -28t-38 -17t-44.5 -11q-16 -5 -36.5 -6.5t-37.5 -2.5v-2q17 1 37.5 0t37.5 -6q24 -6 47 -16t41 -25t29 -36t11 -49q0 -38 -18 -65.5t-47 -45.5t-65 -29t-72 -17t-68.5 -7.5t-53.5 -1.5q-61 0 -114 10.5t-94.5 32.5t-68.5 56.5t-36 82.5l144 5
q10 -45 50.5 -70t118.5 -25q33 0 63.5 3.5t53 12t36 23t13.5 35.5q0 18 -20.5 28.5t-53.5 18t-75.5 13t-87 12.5t-87 16.5t-75.5 25.5t-53.5 40t-20.5 59t23.5 57.5t57.5 35t71.5 17.5t65.5 5v2q-17 0 -37.5 1t-37.5 6q-27 6 -54 15.5t-49 24t-36 33.5t-14 43zM182 311
q0 -27 25.5 -44.5t60.5 -28t72 -15t59 -4.5q59 0 89.5 21t30.5 53q0 26 -26 43.5t-62 28.5t-73.5 15.5t-59.5 4.5q-54 0 -85 -19.5t-31 -54.5z" />
    <glyph glyph-name="dieresis" unicode="&#xa8;" horiz-adv-x="383" 
d="M162 700v-192h-143v192h143zM221 508v192h143v-192h-143z" />
    <glyph glyph-name="copyright" unicode="&#xa9;" horiz-adv-x="925" 
d="M22 325q0 78 35 146t95.5 119t141.5 80.5t173 29.5t173 -29.5t141 -80.5t95 -119t35 -146t-35 -146t-95 -119t-141 -80.5t-173 -29.5t-173 29.5t-141.5 80.5t-95.5 119t-35 146zM124 325q0 -60 27 -113.5t73.5 -93t109 -62.5t133.5 -23t133 23t108.5 62.5t73.5 93
t27 113.5t-27 113.5t-73.5 93t-108.5 62.5t-133 23t-133.5 -23t-109 -62.5t-73.5 -93t-27 -113.5zM219 324q0 54 20.5 94.5t55 67t81 39.5t97.5 13q39 0 79 -10.5t73 -31.5t55.5 -52t27.5 -73l-114 -9q-11 37 -42.5 57.5t-78.5 21.5q-62 0 -96 -28.5t-34 -88.5
q0 -54 35 -85.5t95 -29.5q44 1 75.5 20.5t44.5 53.5l115 -8q-5 -42 -27.5 -72.5t-55.5 -51t-73 -31t-79 -10.5q-51 0 -97 13t-81 39.5t-55.5 67t-20.5 94.5z" />
    <glyph glyph-name="ordfeminine" unicode="&#xaa;" horiz-adv-x="453" 
d="M24 494q0 37 20 56.5t50 28.5t65 10.5t65 2.5t50 4.5t20 16.5q-2 28 -24 40.5t-63 12.5q-35 0 -61.5 -10t-29.5 -42l-86 5q2 31 18.5 53.5t41.5 36.5t55.5 21t61.5 7q35 0 67.5 -6.5t58.5 -22t41.5 -40.5t15.5 -63v-96q0 -14 5.5 -18t17.5 -4h17v-89h-69q-28 0 -47.5 18
t-19.5 42v17q-17 -39 -56 -58t-82 -19q-25 0 -49 6.5t-42.5 18.5t-29.5 30t-11 41zM124 497q0 -21 19.5 -31t45.5 -10q18 0 36.5 4.5t34 12.5t25 19.5t9.5 25.5v37q-15 -11 -43.5 -12.5t-56.5 -3t-49 -9.5t-21 -33z" />
    <glyph glyph-name="guillemotleft" unicode="&#xab;" horiz-adv-x="613" 
d="M307 225v103l291 165v-145l-117 -72l117 -73v-143zM305 493v-145l-117 -72l117 -73v-143l-290 165v103z" />
    <glyph glyph-name="logicalnot" unicode="&#xac;" horiz-adv-x="620" 
d="M593 420v-337h-143v206h-425v131h568z" />
    <glyph glyph-name="registered" unicode="&#xae;" horiz-adv-x="394" 
d="M17 585q0 34 14 64t38.5 52t57.5 35t70 13t70 -13t57.5 -35t38.5 -52t14 -64t-14 -63.5t-38.5 -52t-57.5 -35.5t-70 -13t-70 13t-57.5 35.5t-38.5 52t-14 63.5zM72 585q0 -24 10 -44.5t27 -36.5t39.5 -25t48.5 -9t48.5 9t39.5 25t27 36.5t10 44.5t-10 44.5t-27 36.5
t-39.5 25t-48.5 9t-48.5 -9t-39.5 -25t-27 -36.5t-10 -44.5zM132 511v151h81q26 0 40.5 -11t14.5 -32q0 -19 -8 -23.5t-15 -9.5l6 -1q6 -2 12.5 -7.5t6.5 -25.5v-41h-34v36q0 13 -16 13h-54v-49h-34zM205 589q13 0 23 5t10 17t-8 18t-20 6h-44v-46h39z" />
    <glyph glyph-name="macron" unicode="&#xaf;" horiz-adv-x="417" 
d="M20 688h377v-101h-377v101z" />
    <glyph glyph-name="degree" unicode="&#xb0;" horiz-adv-x="431" 
d="M22 589q0 32 15.5 60.5t41.5 49.5t61.5 33.5t75.5 12.5t75 -12.5t61.5 -33.5t41.5 -49.5t15 -60.5t-15 -60.5t-41.5 -49.5t-61.5 -33.5t-75 -12.5t-75.5 12.5t-61.5 33.5t-41.5 49.5t-15.5 60.5zM127 589q0 -32 26 -54t63 -22t63 22t26 54t-26 54t-63 22t-63 -22t-26 -54
z" />
    <glyph glyph-name="plusminus" unicode="&#xb1;" horiz-adv-x="576" 
d="M465 458l87 -109l-105 -23l-86 -80l-119 -71l-23 80l-105 71l-90 109l105 23l90 76l120 69l22 -75zM24 81l329 23l199 -109l-329 -22z" />
    <glyph glyph-name="twosuperior" unicode="&#xb2;" horiz-adv-x="343" 
d="M22 352v12q0 49 18 82.5t44.5 56.5t57.5 38.5t57.5 28.5t44.5 26.5t18 33.5q0 38 -24 52.5t-58 14.5q-36 0 -59.5 -18.5t-25.5 -56.5l-66 4q3 69 43 100t112 31q69 0 108.5 -29t39.5 -89q0 -30 -10.5 -49.5t-28 -34t-39.5 -25.5t-44 -24t-42 -29.5t-35 -41.5
q-8 -9 -20.5 -18t-24.5 -14l1 -1q12 5 27 8.5t29 3.5h190v-62h-313z" />
    <glyph glyph-name="threesuperior" unicode="&#xb3;" horiz-adv-x="337" 
d="M98 523q0 -23 21 -38t52 -15q32 0 51.5 14.5t19.5 37.5q0 24 -18 33.5t-53 9.5h-28l-1 41h29q33 0 49 12.5t16 33.5q0 23 -19.5 35.5t-45.5 12.5q-32 0 -49.5 -17t-18.5 -40l-69 2q1 57 39 82.5t103 24.5q57 0 89 -21.5t32 -67.5q0 -31 -24.5 -46t-51.5 -17v-1
q8 1 18 0.5t18 -3.5q26 -8 39 -26t13 -57q0 -54 -35 -81t-97 -27q-67 0 -107 27.5t-42 88.5z" />
    <glyph glyph-name="acute" unicode="&#xb4;" horiz-adv-x="190" 
d="M-4 557l58 142h163l-103 -142h-118z" />
    <glyph glyph-name="paragraph" unicode="&#xb6;" horiz-adv-x="725" 
d="M325 287q-141 0 -218 50t-77 160q0 106 77 157.5t218 51.5h142v-794h-142v375zM552 -88v794h143v-794h-143z" />
    <glyph glyph-name="periodcentered" unicode="&#xb7;" horiz-adv-x="186" 
d="M20 324v136h146v-136h-146z" />
    <glyph glyph-name="cedilla" unicode="&#xb8;" horiz-adv-x="282" 
d="M30 -160q14 -22 36.5 -32t45.5 -10q29 0 50 14t22 39q0 18 -16.5 27.5t-39 13.5t-46.5 4.5t-39 0.5l51 117h115l-35 -68q42 0 69 -23.5t27 -75.5q0 -33 -12.5 -56.5t-33 -38.5t-46.5 -22.5t-54 -7.5q-43 0 -83 16.5t-60 46.5z" />
    <glyph glyph-name="onesuperior" unicode="&#xb9;" horiz-adv-x="186" 
d="M21 666q12 0 26.5 2t27 9t21.5 20t9 35h62v-382h-62v271q0 14 2.5 29.5t5.5 28.5h-2q-3 -13 -6.5 -29.5t-13.5 -24.5q-13 -11 -32 -14t-38 -3v58z" />
    <glyph glyph-name="ordmasculine" unicode="&#xba;" horiz-adv-x="379" 
d="M187 376q-48 0 -80 16t-50.5 41.5t-26.5 58t-8 65.5t8 65.5t26.5 58t50.5 41t80 15.5t80 -15.5t51 -41t27 -58t8 -65.5t-8 -65.5t-27 -58t-51 -41.5t-80 -16zM187 662q-42 0 -67 -28t-25 -77q0 -48 24.5 -76.5t67.5 -28.5q44 0 68.5 28.5t24.5 76.5q0 49 -25.5 76.5
t-67.5 28.5z" />
    <glyph glyph-name="guillemotright" unicode="&#xbb;" horiz-adv-x="625" 
d="M305 328v-103l-290 -165v143l117 73l-117 72v145zM307 203l117 73l-117 72v145l291 -165v-103l-291 -165v143z" />
    <glyph glyph-name="onequarter" unicode="&#xbc;" horiz-adv-x="943" 
d="M29.5186 622.789q13.3262 0 30.46 2.53809t32.0469 10.4707q14.9121 7.93164 25.0654 23.4795q10.1533 15.5469 10.1533 40.9307h90.7461v-444.208h-90.7461v316.022q0 10.7871 1.58691 23.4795q1.58594 12.6914 3.49023 23.4795l-1.26953 0.634766
q-1.90332 -10.7881 -4.44238 -23.7969q-2.53809 -13.0098 -8.24902 -21.8936q-6.3457 -11.4229 -16.1816 -18.0859t-21.8936 -10.1533q-12.0566 -3.49023 -25.0654 -4.75879q-13.0098 -1.26953 -25.7012 -1.26953v83.1309zM548.883 700.346h140.879l-348.676 -699.992
h-140.879zM534.872 101.146v46.1357l199.925 266.763h98.1875v-240.146h69.2041l8.87305 -72.7529h-55.6006q-10.0557 0 -20.4062 4.43555q-10.3516 4.43652 -18.041 11.5342l-0.59082 -0.591797q7.09766 -7.09766 11.8291 -17.4482q4.73242 -10.3516 4.73242 -20.4072
v-78.668h-85.7666v101.146h-212.346zM651.987 178.631h95.2305v147.873z" />
    <glyph glyph-name="onehalf" unicode="&#xbd;" horiz-adv-x="847" 
d="M29.5967 630.264q12.0361 0 27.5098 2.29199q15.4746 2.29297 28.9424 9.45703q13.4688 7.16406 22.6387 21.2051q9.16992 14.042 9.16992 36.9658h81.9561v-401.184h-81.9561v285.414q0 9.74316 1.43262 21.2051q1.43262 11.4629 3.15234 21.2051l-1.14648 0.573242
q-1.71973 -9.74316 -4.01172 -21.4912q-2.29199 -11.749 -7.4502 -19.7734q-5.73145 -10.3154 -14.6152 -16.334q-8.88281 -6.01758 -19.7725 -9.16992q-10.8896 -3.15137 -22.6377 -4.29785q-11.749 -1.14648 -23.2119 -1.14648v75.0791zM466.883 700.346h140.879
l-348.676 -699.992h-140.879zM476.883 7.71094q0 38.0625 10.833 66.7559q10.833 28.6924 28.1074 50.3594q17.2744 21.666 39.8184 37.4766q22.5449 15.8096 45.6748 27.8145q23.1299 12.0039 45.6748 21.959q22.5439 9.9541 39.8184 19.6162t28.1074 20.2021
t10.833 24.0088q0 16.9814 -6.44141 28.4004q-6.44043 11.418 -16.9814 18.4453q-10.54 7.02637 -24.5938 9.9541t-29.2783 2.92773q-36.8906 0 -58.2646 -19.6162q-21.373 -19.6162 -22.5439 -54.165l-83.7373 2.3418q2.92773 77.8809 45.9678 111.552
q43.0391 33.6699 124.434 33.6699q74.9531 0 117.7 -29.8643q42.7461 -29.8633 42.7461 -90.7637q0 -31.0352 -9.9541 -51.8223q-9.95508 -20.7881 -26.6436 -35.7197q-16.6885 -14.9326 -38.0625 -26.0586q-21.373 -11.126 -44.21 -23.1299
q-22.8379 -12.0039 -44.7969 -26.9365q-21.959 -14.9316 -40.1113 -37.1836q-6.44141 -6.44141 -15.2246 -12.8828q-8.78418 -6.44043 -18.1533 -10.54l0.585938 -1.1709q8.7832 4.09863 20.2021 6.73438q11.4189 2.63477 21.373 2.63477h197.338v-76.71h-340.217v11.7109z
" />
    <glyph glyph-name="threequarters" unicode="&#xbe;" horiz-adv-x="888" 
d="M200.113 286.467q-40.0469 0 -72.7324 8.24414q-32.6855 8.24512 -55.9482 25.3242t-36.5137 43.5811t-14.4287 63.0146l83.6279 2.35645q0 -14.1348 7.06641 -25.9131q7.06738 -11.7783 18.8457 -20.3184q11.7793 -8.53906 27.9746 -13.5449t34.4521 -5.00586
q38.2803 0 62.1318 17.9619q23.8516 17.9629 23.8516 45.6426q0 29.4463 -22.085 40.3408q-22.085 10.8955 -63.8984 11.4844h-32.9805l-1.17773 49.4697h34.1582q40.6357 0 59.4814 14.7236q18.8457 14.7227 18.8457 40.6357q0 13.5459 -6.18359 24.4404
q-6.18359 10.8955 -17.0791 18.2568q-10.8945 7.3623 -25.0293 11.1895q-14.1338 3.82812 -30.0352 3.82812q-18.8457 0 -33.5693 -5.59473q-14.7227 -5.59473 -25.3232 -15.3115q-10.6006 -9.71777 -16.4902 -21.791q-5.88965 -12.0723 -6.47852 -25.6182l-83.6279 2.35547
q1.17871 33.5693 13.5459 58.0098t34.4521 40.3418q22.085 15.9004 53.2979 23.2627q31.2129 7.36133 70.083 7.36133q68.9043 -0.588867 107.773 -26.207t38.8691 -80.9775q0 -18.8457 -8.24512 -32.6855t-21.2012 -23.2627t-29.4463 -14.4287t-32.9805 -5.59473v-1.17871
q10.0127 0.589844 22.085 0q12.0732 -0.588867 21.4961 -4.12207q15.3125 -4.71094 27.0908 -12.0732q11.7783 -7.36133 19.7295 -19.1396q7.9502 -11.7783 12.0723 -28.5635q4.12305 -16.7842 4.12305 -40.3418q0 -64.1924 -42.1084 -97.1729
q-42.1084 -32.9795 -117.491 -32.9795zM588.883 700.346h140.879l-348.676 -699.992h-140.879zM526.04 89.6582v41.8086l181.172 241.74h88.9775v-217.62h62.7129l8.04102 -65.9287h-50.3857q-9.1123 0 -18.4922 4.01953q-9.37988 4.02051 -16.3486 10.4521
l-0.535156 -0.536133q6.43164 -6.43164 10.7197 -15.8115q4.28809 -9.38086 4.28809 -18.4932v-71.2891h-77.7217v91.6582h-192.428zM632.17 159.875h86.2979v134.003z" />
    <glyph glyph-name="questiondown" unicode="&#xbf;" horiz-adv-x="570" 
d="M281 -205q-60 0 -109.5 12.5t-84 38t-53.5 64t-19 91.5q0 44 16.5 70t42 43.5t54.5 31t54.5 31t42 44t16.5 71.5v17h142v-17q0 -59 -16 -98.5t-40.5 -65t-52.5 -42t-52.5 -30t-40.5 -28.5t-16 -39q0 -44 30.5 -68t85.5 -24q60 0 95 28t36 76h143q0 -48 -20 -86t-56.5 -65
t-87 -41t-110.5 -14zM230 501h165v-137h-165v137z" />
    <glyph glyph-name="Agrave" unicode="&#xc0;" horiz-adv-x="780" 
d="M41 0l264 700h189l264 -700h-153l-58 144l-297 -1l-55 -143h-154zM290 262h95t62 -7q26 -7 50 -32.5t44 -59.5l-144 383zM479 758h-122l-103 142h166z" />
    <glyph glyph-name="Aacute" unicode="&#xc1;" horiz-adv-x="772" 
d="M37 0l264 700h189l264 -700h-153l-58 144l-297 -1l-55 -143h-154zM286 262h95t62 -7q26 -7 50 -32.5t44 -59.5l-144 383zM314 758l58 142h161l-102 -142h-117z" />
    <glyph glyph-name="Acircumflex" unicode="&#xc2;" horiz-adv-x="772" 
d="M37 0l264 700h189l264 -700h-153l-58 144l-297 -1l-55 -143h-154zM286 262h95t62 -7q26 -7 50 -32.5t44 -59.5l-144 383zM167 779l127 161h190l128 -161h-150l-72 97l-73 -97h-150z" />
    <glyph glyph-name="Atilde" unicode="&#xc3;" horiz-adv-x="772" 
d="M37 0l264 700h189l264 -700h-153l-58 144l-297 -1l-55 -143h-154zM286 262h95t62 -7q26 -7 50 -32.5t44 -59.5l-144 383zM159 765q9 74 51.5 108.5t110.5 34.5q30 0 50.5 -9t36 -19.5t29 -19.5t28.5 -10q13 -1 22.5 4.5t16 14t10.5 19t6 20.5l107 -10q-2 -31 -11.5 -58.5
t-28.5 -48t-47 -32.5t-67 -11q-32 0 -51.5 8.5t-34.5 19t-28 19.5t-32 10q-32 2 -52.5 -15t-25.5 -40z" />
    <glyph glyph-name="Adieresis" unicode="&#xc4;" horiz-adv-x="772" 
d="M37 0l264 700h189l264 -700h-153l-58 144l-297 -1l-55 -143h-154zM286 262h95t62 -7q26 -7 50 -32.5t44 -59.5l-144 383zM414 783v117h143v-117h-143zM216 783v117h143v-117h-143z" />
    <glyph glyph-name="Aring" unicode="&#xc5;" horiz-adv-x="772" 
d="M37 0l264 700h189l264 -700h-153l-58 144l-297 -1l-55 -143h-154zM286 262h95t62 -7q26 -7 50 -32.5t44 -59.5l-144 383zM250 849q0 22 11 41.5t30.5 33.5t46 22.5t56.5 8.5t56 -8.5t45.5 -22.5t30.5 -33.5t11 -41.5t-11 -41.5t-30.5 -33.5t-45.5 -22.5t-56 -8.5
t-56.5 8.5t-46 22.5t-30.5 33.5t-11 41.5zM335 849q0 -19 17 -32.5t42 -13.5q23 0 40 13.5t17 32.5t-17 32.5t-40 13.5q-25 0 -42 -13.5t-17 -32.5z" />
    <glyph glyph-name="AE" unicode="&#xc6;" horiz-adv-x="1011" 
d="M28 0l264 700h688v-131h-384v-159h329v-111h-329v-168h384v-131h-527v159h-212l-59 -159h-154zM292 297h161v350h-28z" />
    <glyph glyph-name="Ccedilla" unicode="&#xc7;" horiz-adv-x="751" 
d="M22 350q0 91 27.5 158.5t75.5 112t114 66t142 20.5q63 -1 119.5 -16t102.5 -45.5t78.5 -76.5t47.5 -108l-139 -33q-8 27 -25.5 51.5t-44 43.5t-61.5 30t-79 11q-53 0 -93.5 -15.5t-67.5 -43.5t-40.5 -67.5t-13.5 -87.5q0 -100 58 -157t157 -57q45 0 81 11t62.5 30
t43 43.5t23.5 52.5l139 -34q-15 -62 -47.5 -108t-78.5 -76.5t-102.5 -45.5t-119.5 -16q-76 -1 -142 20.5t-114 66t-75.5 112t-27.5 158.5zM262 -159q13 -21 38 -32t51 -11t45.5 12.5t20.5 40.5q0 18 -15 27.5t-36.5 13t-44 4t-37.5 0.5l16 40l27 78h115l-34 -68
q42 0 68.5 -23.5t26.5 -75.5q0 -33 -12.5 -56.5t-33 -39t-46.5 -22.5t-54 -7q-44 0 -84 16.5t-60 46.5z" />
    <glyph glyph-name="Egrave" unicode="&#xc8;" horiz-adv-x="653" 
d="M30 700h596v-131h-453v-172h423v-111h-423v-155h453v-131h-596v700zM414 758h-122l-103 142h166z" />
    <glyph glyph-name="Eacute" unicode="&#xc9;" horiz-adv-x="653" 
d="M30 700h596v-131h-453v-172h423v-111h-423v-155h453v-131h-596v700zM246 758l58 142h161l-102 -142h-117z" />
    <glyph glyph-name="Ecircumflex" unicode="&#xca;" horiz-adv-x="653" 
d="M30 700h596v-131h-453v-172h423v-111h-423v-155h453v-131h-596v700zM117 769l127 161h190l128 -161h-150l-72 97l-73 -97h-150z" />
    <glyph glyph-name="Edieresis" unicode="&#xcb;" horiz-adv-x="653" 
d="M30 700h596v-131h-453v-172h423v-111h-423v-155h453v-131h-596v700zM366 783v117h143v-117h-143zM168 783v117h143v-117h-143z" />
    <glyph glyph-name="Igrave" unicode="&#xcc;" 
d="M30 700h143v-700h-143v700zM181 758h-122l-103 142h166z" />
    <glyph glyph-name="Iacute" unicode="&#xcd;" 
d="M30 700h143v-700h-143v700zM38 758l58 142h161l-102 -142h-117z" />
    <glyph glyph-name="Icircumflex" unicode="&#xce;" 
d="M30 700h143v-700h-143v700zM-115 766l127 161h190l128 -161h-150l-72 97l-73 -97h-150z" />
    <glyph glyph-name="Idieresis" unicode="&#xcf;" 
d="M30 700h143v-700h-143v700zM140 783v117h143v-117h-143zM-58 783v117h143v-117h-143z" />
    <glyph glyph-name="Eth" unicode="&#xd0;" horiz-adv-x="784" 
d="M410 700q73 0 138 -21t113.5 -64.5t76.5 -109.5t28 -155t-28 -155t-76.5 -109.5t-113.5 -64.5t-138 -21h-324v700h324zM144 569q13 0 28 -1t27.5 -4.5t21 -9.5t8.5 -17v-53.5v-102.5v-125.5v-123.5h192q33 0 68.5 12t65.5 38t49 67.5t19 100.5q0 57 -19 98.5t-48.5 68
t-65 39.5t-69.5 13h-277zM0 418h424v-143h-424v143z" />
    <glyph glyph-name="Ntilde" unicode="&#xd1;" horiz-adv-x="730" 
d="M30 700h148l351 -451q13 -16 24 -37t18 -41l2 1q-7 19 -11.5 43t-4.5 44v441h143v-700h-148l-351 447q-13 16 -24 37.5t-18 40.5l-2 -1q7 -19 11.5 -43t4.5 -44v-437h-143v700zM131 762q9 74 51.5 108.5t110.5 34.5q30 0 50.5 -9t36 -19.5t29 -19.5t28.5 -10
q13 -1 22.5 4.5t16 14t10.5 19t6 20.5l107 -10q-2 -31 -11.5 -58.5t-28.5 -48t-47 -32.5t-67 -11q-32 0 -51.5 8.5t-34.5 19t-28 19.5t-32 10q-32 2 -52.5 -15t-25.5 -40z" />
    <glyph glyph-name="Ograve" unicode="&#xd2;" horiz-adv-x="772" 
d="M386 -7q-75 0 -141.5 22t-116 66t-78 111t-28.5 158t28.5 158.5t78 112t116 66t141.5 20.5t141.5 -22.5t116 -66t78 -111t28.5 -157.5t-28.5 -158t-78 -111t-116 -66t-141.5 -22zM386 576q-42 0 -81.5 -15t-70.5 -44.5t-50 -71.5t-19 -95t19 -95t49.5 -71t70.5 -44.5
t82 -15.5q44 0 84 15.5t70 44.5t48 71t18 95q0 54 -18.5 95.5t-49.5 70.5t-70.5 44.5t-81.5 15.5zM446 758h-122l-103 142h166z" />
    <glyph glyph-name="Oacute" unicode="&#xd3;" horiz-adv-x="771" 
d="M386 -7q-75 0 -141.5 22t-116 66t-78 111t-28.5 158t28.5 158.5t78 112t116 66t141.5 20.5t141.5 -22.5t116 -66t78 -111t28.5 -157.5t-28.5 -158t-78 -111t-116 -66t-141.5 -22zM386 576q-42 0 -81.5 -15t-70.5 -44.5t-50 -71.5t-19 -95t19 -95t49.5 -71t70.5 -44.5
t82 -15.5q44 0 84 15.5t70 44.5t48 71t18 95q0 54 -18.5 95.5t-49.5 70.5t-70.5 44.5t-81.5 15.5zM284 758l58 142h161l-102 -142h-117z" />
    <glyph glyph-name="Ocircumflex" unicode="&#xd4;" horiz-adv-x="771" 
d="M386 -7q-75 0 -141.5 22t-116 66t-78 111t-28.5 158t28.5 158.5t78 112t116 66t141.5 20.5t141.5 -22.5t116 -66t78 -111t28.5 -157.5t-28.5 -158t-78 -111t-116 -66t-141.5 -22zM386 576q-42 0 -81.5 -15t-70.5 -44.5t-50 -71.5t-19 -95t19 -95t49.5 -71t70.5 -44.5
t82 -15.5q44 0 84 15.5t70 44.5t48 71t18 95q0 54 -18.5 95.5t-49.5 70.5t-70.5 44.5t-81.5 15.5zM163 781l127 161h190l128 -161h-150l-72 97l-73 -97h-150z" />
    <glyph glyph-name="Otilde" unicode="&#xd5;" horiz-adv-x="772" 
d="M386 -7q-75 0 -141.5 22t-116 66t-78 111t-28.5 158t28.5 158.5t78 112t116 66t141.5 20.5t141.5 -22.5t116 -66t78 -111t28.5 -157.5t-28.5 -158t-78 -111t-116 -66t-141.5 -22zM386 576q-42 0 -81.5 -15t-70.5 -44.5t-50 -71.5t-19 -95t19 -95t49.5 -71t70.5 -44.5
t82 -15.5q44 0 84 15.5t70 44.5t48 71t18 95q0 54 -18.5 95.5t-49.5 70.5t-70.5 44.5t-81.5 15.5zM144 765q9 74 51.5 108.5t110.5 34.5q30 0 50.5 -9t36 -19.5t29 -19.5t28.5 -10q13 -1 22.5 4.5t16 14t10.5 19t6 20.5l107 -10q-2 -31 -11.5 -58.5t-28.5 -48t-47 -32.5
t-67 -11q-32 0 -51.5 8.5t-34.5 19t-28 19.5t-32 10q-32 2 -52.5 -15t-25.5 -40z" />
    <glyph glyph-name="Odieresis" unicode="&#xd6;" horiz-adv-x="772" 
d="M386 -7q-75 0 -141.5 22t-116 66t-78 111t-28.5 158t28.5 158.5t78 112t116 66t141.5 20.5t141.5 -22.5t116 -66t78 -111t28.5 -157.5t-28.5 -158t-78 -111t-116 -66t-141.5 -22zM386 576q-42 0 -81.5 -15t-70.5 -44.5t-50 -71.5t-19 -95t19 -95t49.5 -71t70.5 -44.5
t82 -15.5q44 0 84 15.5t70 44.5t48 71t18 95q0 54 -18.5 95.5t-49.5 70.5t-70.5 44.5t-81.5 15.5zM419 783v117h143v-117h-143zM221 783v117h143v-117h-143z" />
    <glyph glyph-name="multiply" unicode="&#xd7;" horiz-adv-x="545" 
d="M198 352v164h142v-164h196v-132h-196v-167h-142v167h-189v132h189z" />
    <glyph glyph-name="Oslash" unicode="&#xd8;" horiz-adv-x="772" 
d="M386 -7q-75 0 -141.5 22t-116 66t-78 111t-28.5 158t28.5 158.5t78 112t116 66t141.5 20.5t141.5 -22.5t116 -66t78 -111t28.5 -157.5t-28.5 -158t-78 -111t-116 -66t-141.5 -22zM386 576q-42 0 -81.5 -15t-70.5 -44.5t-50 -71.5t-19 -95t19 -95t49.5 -71t70.5 -44.5
t82 -15.5q44 0 84 15.5t70 44.5t48 71t18 95q0 54 -18.5 95.5t-49.5 70.5t-70.5 44.5t-81.5 15.5zM499 742h160l-396 -795h-160z" />
    <glyph glyph-name="Ugrave" unicode="&#xd9;" horiz-adv-x="731" 
d="M30 315v385h143v-386q0 -45 14.5 -80.5t40.5 -60t61.5 -37.5t77.5 -13q86 0 138.5 48.5t52.5 142.5v386h143v-385q0 -83 -28 -144t-74.5 -100.5t-106.5 -59t-125 -19.5q-69 0 -130.5 18.5t-107.5 57.5t-72.5 100.5t-26.5 146.5zM435 758h-122l-103 142h166z" />
    <glyph glyph-name="Uacute" unicode="&#xda;" horiz-adv-x="731" 
d="M30 315v385h143v-386q0 -45 14.5 -80.5t40.5 -60t61.5 -37.5t77.5 -13q86 0 138.5 48.5t52.5 142.5v386h143v-385q0 -83 -28 -144t-74.5 -100.5t-106.5 -59t-125 -19.5q-69 0 -130.5 18.5t-107.5 57.5t-72.5 100.5t-26.5 146.5zM290 758l58 142h161l-102 -142h-117z" />
    <glyph glyph-name="Ucircumflex" unicode="&#xdb;" horiz-adv-x="731" 
d="M30 315v385h143v-386q0 -45 14.5 -80.5t40.5 -60t61.5 -37.5t77.5 -13q86 0 138.5 48.5t52.5 142.5v386h143v-385q0 -83 -28 -144t-74.5 -100.5t-106.5 -59t-125 -19.5q-69 0 -130.5 18.5t-107.5 57.5t-72.5 100.5t-26.5 146.5zM144 778l127 161h190l128 -161h-150
l-72 97l-73 -97h-150z" />
    <glyph glyph-name="Udieresis" unicode="&#xdc;" horiz-adv-x="731" 
d="M30 315v385h143v-386q0 -45 14.5 -80.5t40.5 -60t61.5 -37.5t77.5 -13q86 0 138.5 48.5t52.5 142.5v386h143v-385q0 -83 -28 -144t-74.5 -100.5t-106.5 -59t-125 -19.5q-69 0 -130.5 18.5t-107.5 57.5t-72.5 100.5t-26.5 146.5zM400 783v117h143v-117h-143zM202 783v117
h143v-117h-143z" />
    <glyph glyph-name="Yacute" unicode="&#xdd;" horiz-adv-x="752" 
d="M192 699l163 -226q10 -14 15.5 -33t5.5 -36h2q0 17 5.5 36t15.5 33l162 226h175l-289 -385v-314h-143v314l-287 385h175zM302 758l58 142h161l-102 -142h-117z" />
    <glyph glyph-name="Thorn" unicode="&#xde;" horiz-adv-x="666" 
d="M30 0v700h143v-110h193q133 0 203 -58.5t70 -173.5q0 -112 -70 -172t-203 -60h-193v-126h-143zM173 476v-236h147q57 0 92 9.5t53.5 26t24.5 38t6 44.5q0 27 -6 48.5t-24.5 37t-53.5 24t-92 8.5h-147z" />
    <glyph glyph-name="germandbls" unicode="&#xdf;" horiz-adv-x="649" 
d="M30 527q0 41 21.5 73.5t58.5 55.5t85 35t100 12q68 0 122 -9t91.5 -29.5t58 -54t20.5 -83.5q0 -32 -15 -55.5t-38 -39.5t-50.5 -26.5t-52.5 -17.5q32 -4 66 -14.5t62 -30t46 -51.5t18 -80q0 -56 -24 -96t-68.5 -66t-108.5 -38t-144 -12v116q54 -1 92 7.5t62 24.5
t35.5 37.5t11.5 45.5q0 23 -10 43.5t-33 35.5t-62 24t-96 10v75q30 0 56.5 6t47 18t32 29t11.5 39q0 50 -34.5 77t-95.5 27q-24 0 -46 -9t-39 -25t-27 -38.5t-10 -50.5v-492h-143v527z" />
    <glyph glyph-name="agrave" unicode="&#xe0;" horiz-adv-x="668" 
d="M43 142q0 41 17.5 67.5t46 42.5t64.5 23t74 10t74.5 3t64.5 2.5t45 8.5t17 20q-2 42 -35.5 60.5t-96.5 18.5q-26 0 -50 -3t-42.5 -11.5t-30.5 -23.5t-14 -39l-124 7q3 47 27.5 80t61 54.5t82 31t90.5 9.5q51 0 99.5 -10t86.5 -32.5t61 -60t23 -93.5v-143q0 -20 8 -26
t26 -6h25v-132h-98q-21 0 -39 7t-31.5 19t-21 28t-7.5 34v39q-9 -32 -29.5 -56t-48.5 -39.5t-60.5 -23t-65.5 -7.5q-38 0 -74 9t-63.5 27t-44.5 44.5t-17 60.5zM186 146q0 -32 29.5 -46t69.5 -14q28 0 56.5 6.5t52 18t38 28.5t14.5 38v55q-16 -11 -41.5 -15t-54.5 -5
t-58 -2.5t-52.5 -7t-38.5 -18.5t-15 -38zM395 558h-122l-103 142h166z" />
    <glyph glyph-name="aacute" unicode="&#xe1;" horiz-adv-x="675" 
d="M43 142q0 41 17.5 67.5t46 42.5t64.5 23t74 10t74.5 3t64.5 2.5t45 8.5t17 20q-2 42 -35.5 60.5t-96.5 18.5q-26 0 -50 -3t-42.5 -11.5t-30.5 -23.5t-14 -39l-124 7q3 47 27.5 80t61 54.5t82 31t90.5 9.5q51 0 99.5 -10t86.5 -32.5t61 -60t23 -93.5v-143q0 -20 8 -26
t26 -6h25v-132h-98q-21 0 -39 7t-31.5 19t-21 28t-7.5 34v39q-9 -32 -29.5 -56t-48.5 -39.5t-60.5 -23t-65.5 -7.5q-38 0 -74 9t-63.5 27t-44.5 44.5t-17 60.5zM186 146q0 -32 29.5 -46t69.5 -14q28 0 56.5 6.5t52 18t38 28.5t14.5 38v55q-16 -11 -41.5 -15t-54.5 -5
t-58 -2.5t-52.5 -7t-38.5 -18.5t-15 -38zM263 558l58 142h161l-102 -142h-117z" />
    <glyph glyph-name="acircumflex" unicode="&#xe2;" horiz-adv-x="675" 
d="M43 142q0 41 17.5 67.5t46 42.5t64.5 23t74 10t74.5 3t64.5 2.5t45 8.5t17 20q-2 42 -35.5 60.5t-96.5 18.5q-26 0 -50 -3t-42.5 -11.5t-30.5 -23.5t-14 -39l-124 7q3 47 27.5 80t61 54.5t82 31t90.5 9.5q51 0 99.5 -10t86.5 -32.5t61 -60t23 -93.5v-143q0 -20 8 -26
t26 -6h25v-132h-98q-21 0 -39 7t-31.5 19t-21 28t-7.5 34v39q-9 -32 -29.5 -56t-48.5 -39.5t-60.5 -23t-65.5 -7.5q-38 0 -74 9t-63.5 27t-44.5 44.5t-17 60.5zM186 146q0 -32 29.5 -46t69.5 -14q28 0 56.5 6.5t52 18t38 28.5t14.5 38v55q-16 -11 -41.5 -15t-54.5 -5
t-58 -2.5t-52.5 -7t-38.5 -18.5t-15 -38zM102 571l127 161h190l128 -161h-150l-72 97l-73 -97h-150z" />
    <glyph glyph-name="atilde" unicode="&#xe3;" horiz-adv-x="675" 
d="M43 142q0 41 17.5 67.5t46 42.5t64.5 23t74 10t74.5 3t64.5 2.5t45 8.5t17 20q-2 42 -35.5 60.5t-96.5 18.5q-26 0 -50 -3t-42.5 -11.5t-30.5 -23.5t-14 -39l-124 7q3 47 27.5 80t61 54.5t82 31t90.5 9.5q51 0 99.5 -10t86.5 -32.5t61 -60t23 -93.5v-143q0 -20 8 -26
t26 -6h25v-132h-98q-21 0 -39 7t-31.5 19t-21 28t-7.5 34v39q-9 -32 -29.5 -56t-48.5 -39.5t-60.5 -23t-65.5 -7.5q-38 0 -74 9t-63.5 27t-44.5 44.5t-17 60.5zM186 146q0 -32 29.5 -46t69.5 -14q28 0 56.5 6.5t52 18t38 28.5t14.5 38v55q-16 -11 -41.5 -15t-54.5 -5
t-58 -2.5t-52.5 -7t-38.5 -18.5t-15 -38zM93 565q9 74 51.5 108.5t110.5 34.5q30 0 50.5 -9t36 -19.5t29 -19.5t28.5 -10q13 -1 22.5 4.5t16 14t10.5 19t6 20.5l107 -10q-2 -31 -11.5 -58.5t-28.5 -48t-47 -32.5t-67 -11q-32 0 -51.5 8.5t-34.5 19t-28 19.5t-32 10
q-32 2 -52.5 -15t-25.5 -40z" />
    <glyph glyph-name="adieresis" unicode="&#xe4;" horiz-adv-x="675" 
d="M43 142q0 41 17.5 67.5t46 42.5t64.5 23t74 10t74.5 3t64.5 2.5t45 8.5t17 20q-2 42 -35.5 60.5t-96.5 18.5q-26 0 -50 -3t-42.5 -11.5t-30.5 -23.5t-14 -39l-124 7q3 47 27.5 80t61 54.5t82 31t90.5 9.5q51 0 99.5 -10t86.5 -32.5t61 -60t23 -93.5v-143q0 -20 8 -26
t26 -6h25v-132h-98q-21 0 -39 7t-31.5 19t-21 28t-7.5 34v39q-9 -32 -29.5 -56t-48.5 -39.5t-60.5 -23t-65.5 -7.5q-38 0 -74 9t-63.5 27t-44.5 44.5t-17 60.5zM186 146q0 -32 29.5 -46t69.5 -14q28 0 56.5 6.5t52 18t38 28.5t14.5 38v55q-16 -11 -41.5 -15t-54.5 -5
t-58 -2.5t-52.5 -7t-38.5 -18.5t-15 -38zM366 583v117h143v-117h-143zM168 583v117h143v-117h-143z" />
    <glyph glyph-name="aring" unicode="&#xe5;" horiz-adv-x="675" 
d="M43 142q0 41 17.5 67.5t46 42.5t64.5 23t74 10t74.5 3t64.5 2.5t45 8.5t17 20q-2 42 -35.5 60.5t-96.5 18.5q-26 0 -50 -3t-42.5 -11.5t-30.5 -23.5t-14 -39l-124 7q3 47 27.5 80t61 54.5t82 31t90.5 9.5q51 0 99.5 -10t86.5 -32.5t61 -60t23 -93.5v-143q0 -20 8 -26
t26 -6h25v-132h-98q-21 0 -39 7t-31.5 19t-21 28t-7.5 34v39q-9 -32 -29.5 -56t-48.5 -39.5t-60.5 -23t-65.5 -7.5q-38 0 -74 9t-63.5 27t-44.5 44.5t-17 60.5zM186 146q0 -32 29.5 -46t69.5 -14q28 0 56.5 6.5t52 18t38 28.5t14.5 38v55q-16 -11 -41.5 -15t-54.5 -5
t-58 -2.5t-52.5 -7t-38.5 -18.5t-15 -38zM182 650q0 22 11 41.5t30.5 33.5t46 22.5t56.5 8.5t56 -8.5t45.5 -22.5t30.5 -33.5t11 -41.5t-11 -41.5t-30.5 -33.5t-45.5 -22.5t-56 -8.5t-56.5 8.5t-46 22.5t-30.5 33.5t-11 41.5zM267 650q0 -19 17 -32.5t42 -13.5q23 0 40 13.5
t17 32.5t-17 32.5t-40 13.5q-25 0 -42 -13.5t-17 -32.5z" />
    <glyph glyph-name="ae" unicode="&#xe6;" horiz-adv-x="1027" 
d="M22 142q0 43 16.5 70.5t44 44t62 23.5t71 10t71 3.5t62 4t44 11.5t16.5 26t-10.5 32t-27.5 24t-38.5 16t-42.5 7q-16 2 -36.5 -1t-38.5 -12t-31.5 -24.5t-16.5 -39.5l-137 5q3 45 28 75.5t62 50t82 27.5t88 8q80 -1 131.5 -35.5t71.5 -94.5q9 27 31.5 51.5t55 42.5
t73 28.5t84.5 10.5q59 0 108 -16t85 -47.5t56 -79.5t20 -113q0 -11 -1 -13.5t-3 -12.5h-455q0 -34 16.5 -57t39.5 -37.5t49 -20.5t47 -6q18 0 40.5 5t44.5 15t40.5 24.5t28.5 33.5l144 -8q-6 -46 -33 -79.5t-66 -55.5t-86.5 -33t-95.5 -11t-89.5 11.5t-74 33t-54.5 51
t-30 64.5q-10 -40 -34.5 -69t-58 -48.5t-72.5 -29t-78 -9.5t-76 9.5t-65 27.5t-45 45t-17 62zM160 155q0 -27 26.5 -42t63.5 -15q27 0 55 8.5t51 27t38 47.5t15 69v31q-7 -16 -28 -26t-49 -17t-58 -13t-55.5 -14.5t-42 -21.5t-16.5 -34zM707 406q-30 0 -58 -11t-50.5 -33.5
t-36 -56.5t-15.5 -81q11 20 24.5 30.5t29.5 15.5t35.5 6t42.5 1h176q-3 61 -41 95t-107 34z" />
    <glyph glyph-name="ccedilla" unicode="&#xe7;" horiz-adv-x="628" 
d="M325 506q47 0 94.5 -12.5t87 -37t66.5 -62t33 -88.5l-132 -8q-14 42 -50.5 69t-98.5 28q-72 0 -116 -38.5t-44 -106.5q0 -33 11.5 -60t32.5 -46t50.5 -29t65.5 -9q116 3 148 93l133 -8q-6 -50 -33 -87t-66.5 -61t-87 -36.5t-94.5 -12.5q-61 0 -116 15.5t-96.5 47.5
t-66 80t-24.5 113t24.5 113t66 80t96.5 47.5t116 15.5zM208 -159q13 -21 38 -32t51 -11t45.5 12.5t20.5 40.5q0 18 -15 27.5t-36.5 13t-44 4t-37.5 0.5l16 40l27 78h115l-34 -68q42 0 68.5 -23.5t26.5 -75.5q0 -33 -12.5 -56.5t-33 -39t-46.5 -22.5t-54 -7q-44 0 -84 16.5
t-60 46.5z" />
    <glyph glyph-name="egrave" unicode="&#xe8;" horiz-adv-x="643" 
d="M326 -6q-61 0 -116.5 15.5t-97 47.5t-66 80t-24.5 113t24.5 113t66 80t97 47.5t116.5 15.5q62 0 115 -16t92 -47.5t61.5 -79.5t22.5 -113q0 -11 -0.5 -14.5t-0.5 -13.5h-447q4 -29 18 -51.5t35.5 -38t49 -23t58.5 -7.5q58 0 95.5 16t54.5 65l132 -7q-13 -54 -40 -89.5
t-64.5 -55.5t-83.5 -28.5t-98 -8.5zM330 405q-28 0 -58 -9.5t-54 -31.5t-38 -57t-11 -85q12 41 33 54t54 13h232q-3 31 -17 52.5t-35 35.5t-48.5 21t-57.5 7zM420 558h-122l-103 142h166z" />
    <glyph glyph-name="eacute" unicode="&#xe9;" horiz-adv-x="639" 
d="M326 -6q-61 0 -116.5 15.5t-97 47.5t-66 80t-24.5 113t24.5 113t66 80t97 47.5t116.5 15.5q62 0 115 -16t92 -47.5t61.5 -79.5t22.5 -113q0 -11 -0.5 -14.5t-0.5 -13.5h-447q4 -29 18 -51.5t35.5 -38t49 -23t58.5 -7.5q58 0 95.5 16t54.5 65l132 -7q-13 -54 -40 -89.5
t-64.5 -55.5t-83.5 -28.5t-98 -8.5zM330 405q-28 0 -58 -9.5t-54 -31.5t-38 -57t-11 -85q12 41 33 54t54 13h232q-3 31 -17 52.5t-35 35.5t-48.5 21t-57.5 7zM261 558l58 142h161l-102 -142h-117z" />
    <glyph glyph-name="ecircumflex" unicode="&#xea;" horiz-adv-x="639" 
d="M326 -6q-61 0 -116.5 15.5t-97 47.5t-66 80t-24.5 113t24.5 113t66 80t97 47.5t116.5 15.5q62 0 115 -16t92 -47.5t61.5 -79.5t22.5 -113q0 -11 -0.5 -14.5t-0.5 -13.5h-447q4 -29 18 -51.5t35.5 -38t49 -23t58.5 -7.5q58 0 95.5 16t54.5 65l132 -7q-13 -54 -40 -89.5
t-64.5 -55.5t-83.5 -28.5t-98 -8.5zM330 405q-28 0 -58 -9.5t-54 -31.5t-38 -57t-11 -85q12 41 33 54t54 13h232q-3 31 -17 52.5t-35 35.5t-48.5 21t-57.5 7zM108 581l127 161h190l128 -161h-150l-72 97l-73 -97h-150z" />
    <glyph glyph-name="edieresis" unicode="&#xeb;" horiz-adv-x="639" 
d="M326 -6q-61 0 -116.5 15.5t-97 47.5t-66 80t-24.5 113t24.5 113t66 80t97 47.5t116.5 15.5q62 0 115 -16t92 -47.5t61.5 -79.5t22.5 -113q0 -11 -0.5 -14.5t-0.5 -13.5h-447q4 -29 18 -51.5t35.5 -38t49 -23t58.5 -7.5q58 0 95.5 16t54.5 65l132 -7q-13 -54 -40 -89.5
t-64.5 -55.5t-83.5 -28.5t-98 -8.5zM330 405q-28 0 -58 -9.5t-54 -31.5t-38 -57t-11 -85q12 41 33 54t54 13h232q-3 31 -17 52.5t-35 35.5t-48.5 21t-57.5 7zM359 583v117h143v-117h-143zM161 583v117h143v-117h-143z" />
    <glyph glyph-name="igrave" unicode="&#xec;" 
d="M30 500h143v-500h-143v500zM174 558h-122l-103 142h166z" />
    <glyph glyph-name="iacute" unicode="&#xed;" 
d="M30 500h143v-500h-143v500zM29 558l58 142h161l-102 -142h-117z" />
    <glyph glyph-name="icircumflex" unicode="&#xee;" 
d="M30 500h143v-500h-143v500zM-121 581l127 161h190l128 -161h-150l-72 97l-73 -97h-150z" />
    <glyph glyph-name="idieresis" unicode="&#xef;" 
d="M30 500h143v-500h-143v500zM129 583v117h143v-117h-143zM-69 583v117h143v-117h-143z" />
    <glyph glyph-name="eth" unicode="&#xf0;" horiz-adv-x="664" 
d="M22 222q-1 56 22.5 98t61.5 70.5t87 43t99 14.5q39 0 76 -8.5t68 -26t54 -44t33 -61.5q-4 40 -12 70.5t-17.5 54t-19.5 41.5t-19 33l-107 -36l-42 80l83 25q-19 21 -41 27t-45 8t-45.5 -4t-37.5 -15l-81 79q29 14 66 24t94 10q43 0 73.5 -4.5t54.5 -14.5t45 -26t45 -39
l58 22l35 -74l-42 -15q12 -24 25.5 -52.5t24 -60t17.5 -64.5t7 -64q0 -82 -22.5 -141.5t-63.5 -98.5t-98 -58t-126 -19q-60 0 -115.5 12.5t-98.5 39.5t-69 70t-27 104zM337 360q-36 -2 -66.5 -11.5t-53 -26.5t-35.5 -41.5t-13 -56.5q0 -35 19 -57.5t47.5 -35.5t62 -16.5
t63.5 0.5q26 3 51 13t45.5 26t34 37t16.5 46q6 36 -9 60.5t-42 39t-59.5 20t-60.5 3.5z" />
    <glyph glyph-name="ntilde" unicode="&#xf1;" horiz-adv-x="601" 
d="M30 500h143v-119q0 -16 -2.5 -34t-5.5 -33l2 -1q3 15 7 33t11 32q15 34 37 58.5t47.5 40.5t53 23.5t52.5 7.5q52 0 89 -20t61 -56.5t35 -88t11 -115.5v-228h-142v229q0 66 -30 101t-78 35q-21 0 -47 -7.5t-48.5 -27.5t-37.5 -54.5t-15 -88.5v-187h-143v500zM81 565
q9 74 51.5 108.5t110.5 34.5q30 0 50.5 -9t36 -19.5t29 -19.5t28.5 -10q13 -1 22.5 4.5t16 14t10.5 19t6 20.5l107 -10q-2 -31 -11.5 -58.5t-28.5 -48t-47 -32.5t-67 -11q-32 0 -51.5 8.5t-34.5 19t-28 19.5t-32 10q-32 2 -52.5 -15t-25.5 -40z" />
    <glyph glyph-name="ograve" unicode="&#xf2;" horiz-adv-x="657" 
d="M329 -6q-62 0 -117.5 15.5t-97.5 47.5t-67 80t-25 113t25 113t67 80t97.5 47.5t117.5 15.5t117.5 -16t97.5 -47.5t66.5 -79.5t24.5 -113t-24.5 -113t-66.5 -80t-97.5 -47.5t-117.5 -15.5zM329 392q-32 0 -61.5 -9.5t-52.5 -28t-36.5 -45t-13.5 -59.5q0 -34 12.5 -60.5
t35 -44.5t52.5 -27t64 -9q33 0 62.5 9.5t52 27.5t35.5 44t13 60t-13 60.5t-35.5 44.5t-52 27.5t-62.5 9.5zM406 558h-122l-103 142h166z" />
    <glyph glyph-name="oacute" unicode="&#xf3;" horiz-adv-x="657" 
d="M329 -6q-62 0 -117.5 15.5t-97.5 47.5t-67 80t-25 113t25 113t67 80t97.5 47.5t117.5 15.5t117.5 -16t97.5 -47.5t66.5 -79.5t24.5 -113t-24.5 -113t-66.5 -80t-97.5 -47.5t-117.5 -15.5zM329 392q-32 0 -61.5 -9.5t-52.5 -28t-36.5 -45t-13.5 -59.5q0 -34 12.5 -60.5
t35 -44.5t52.5 -27t64 -9q33 0 62.5 9.5t52 27.5t35.5 44t13 60t-13 60.5t-35.5 44.5t-52 27.5t-62.5 9.5zM263 558l58 142h161l-102 -142h-117z" />
    <glyph glyph-name="ocircumflex" unicode="&#xf4;" horiz-adv-x="657" 
d="M329 -6q-62 0 -117.5 15.5t-97.5 47.5t-67 80t-25 113t25 113t67 80t97.5 47.5t117.5 15.5t117.5 -16t97.5 -47.5t66.5 -79.5t24.5 -113t-24.5 -113t-66.5 -80t-97.5 -47.5t-117.5 -15.5zM329 392q-32 0 -61.5 -9.5t-52.5 -28t-36.5 -45t-13.5 -59.5q0 -34 12.5 -60.5
t35 -44.5t52.5 -27t64 -9q33 0 62.5 9.5t52 27.5t35.5 44t13 60t-13 60.5t-35.5 44.5t-52 27.5t-62.5 9.5zM106 581l127 161h190l128 -161h-150l-72 97l-73 -97h-150z" />
    <glyph glyph-name="otilde" unicode="&#xf5;" horiz-adv-x="657" 
d="M329 -6q-62 0 -117.5 15.5t-97.5 47.5t-67 80t-25 113t25 113t67 80t97.5 47.5t117.5 15.5t117.5 -16t97.5 -47.5t66.5 -79.5t24.5 -113t-24.5 -113t-66.5 -80t-97.5 -47.5t-117.5 -15.5zM329 392q-32 0 -61.5 -9.5t-52.5 -28t-36.5 -45t-13.5 -59.5q0 -34 12.5 -60.5
t35 -44.5t52.5 -27t64 -9q33 0 62.5 9.5t52 27.5t35.5 44t13 60t-13 60.5t-35.5 44.5t-52 27.5t-62.5 9.5zM107 565q9 74 51.5 108.5t110.5 34.5q30 0 50.5 -9t36 -19.5t29 -19.5t28.5 -10q13 -1 22.5 4.5t16 14t10.5 19t6 20.5l107 -10q-2 -31 -11.5 -58.5t-28.5 -48
t-47 -32.5t-67 -11q-32 0 -51.5 8.5t-34.5 19t-28 19.5t-32 10q-32 2 -52.5 -15t-25.5 -40z" />
    <glyph glyph-name="odieresis" unicode="&#xf6;" horiz-adv-x="657" 
d="M329 -6q-62 0 -117.5 15.5t-97.5 47.5t-67 80t-25 113t25 113t67 80t97.5 47.5t117.5 15.5t117.5 -16t97.5 -47.5t66.5 -79.5t24.5 -113t-24.5 -113t-66.5 -80t-97.5 -47.5t-117.5 -15.5zM329 392q-32 0 -61.5 -9.5t-52.5 -28t-36.5 -45t-13.5 -59.5q0 -34 12.5 -60.5
t35 -44.5t52.5 -27t64 -9q33 0 62.5 9.5t52 27.5t35.5 44t13 60t-13 60.5t-35.5 44.5t-52 27.5t-62.5 9.5zM359 583v117h143v-117h-143zM161 583v117h143v-117h-143z" />
    <glyph glyph-name="divide" unicode="&#xf7;" horiz-adv-x="598" 
d="M114 330l16 58l-6 1l8 5l12 44l60 -5l118 65l134 -27l-93 -51l107 -9l-30 -109zM342 122v-81h-104v81h104z" />
    <glyph glyph-name="oslash" unicode="&#xf8;" horiz-adv-x="657" 
d="M329 -6q-62 0 -117.5 15.5t-97.5 47.5t-67 80t-25 113t25 113t67 80t97.5 47.5t117.5 15.5t117.5 -16t97.5 -47.5t66.5 -79.5t24.5 -113t-24.5 -113t-66.5 -80t-97.5 -47.5t-117.5 -15.5zM329 392q-32 0 -61.5 -9.5t-52.5 -28t-36.5 -45t-13.5 -59.5q0 -34 12.5 -60.5
t35 -44.5t52.5 -27t64 -9q33 0 62.5 9.5t52 27.5t35.5 44t13 60t-13 60.5t-35.5 44.5t-52 27.5t-62.5 9.5zM446 527.896h160l-396 -566.603h-160z" />
    <glyph glyph-name="ugrave" unicode="&#xf9;" horiz-adv-x="619" 
d="M236 -3q-56 0 -95.5 20t-64 56.5t-35.5 88t-11 114.5v229h143v-229q0 -72 32 -104t86 -32q20 0 43.5 7.5t44 27t34 54.5t13.5 89v187h143v-500h-143v115q0 15 2.5 33.5t5.5 33.5h-2q-3 -15 -7 -33t-11 -32q-28 -65 -77.5 -95t-100.5 -30zM382 558h-122l-103 142h166z" />
    <glyph glyph-name="uacute" unicode="&#xfa;" horiz-adv-x="619" 
d="M236 -3q-56 0 -95.5 20t-64 56.5t-35.5 88t-11 114.5v229h143v-229q0 -72 32 -104t86 -32q20 0 43.5 7.5t44 27t34 54.5t13.5 89v187h143v-500h-143v115q0 15 2.5 33.5t5.5 33.5h-2q-3 -15 -7 -33t-11 -32q-28 -65 -77.5 -95t-100.5 -30zM239 558l58 142h161l-102 -142
h-117z" />
    <glyph glyph-name="ucircumflex" unicode="&#xfb;" horiz-adv-x="619" 
d="M236 -3q-56 0 -95.5 20t-64 56.5t-35.5 88t-11 114.5v229h143v-229q0 -72 32 -104t86 -32q20 0 43.5 7.5t44 27t34 54.5t13.5 89v187h143v-500h-143v115q0 15 2.5 33.5t5.5 33.5h-2q-3 -15 -7 -33t-11 -32q-28 -65 -77.5 -95t-100.5 -30zM96 581l127 161h190l128 -161
h-150l-72 97l-73 -97h-150z" />
    <glyph glyph-name="udieresis" unicode="&#xfc;" horiz-adv-x="619" 
d="M236 -3q-56 0 -95.5 20t-64 56.5t-35.5 88t-11 114.5v229h143v-229q0 -72 32 -104t86 -32q20 0 43.5 7.5t44 27t34 54.5t13.5 89v187h143v-500h-143v115q0 15 2.5 33.5t5.5 33.5h-2q-3 -15 -7 -33t-11 -32q-28 -65 -77.5 -95t-100.5 -30zM356 583v117h143v-117h-143z
M158 583v117h143v-117h-143z" />
    <glyph glyph-name="yacute" unicode="&#xfd;" horiz-adv-x="655" 
d="M48 500h157l121 -289q7 -16 10.5 -36t3.5 -37h2q0 17 3.5 37t10.5 36l121 289h155l-243 -571q-16 -42 -39.5 -68.5t-49 -41t-52 -20t-48.5 -5.5h-150v105h75q10 0 27 2t35 7.5t33.5 15t21.5 25.5l20 58zM249 558l58 142h161l-102 -142h-117z" />
    <glyph glyph-name="thorn" unicode="&#xfe;" horiz-adv-x="679" 
d="M30 700h144v-248q0 -17 -4.5 -37t-11.5 -36l2 -1q7 17 17 34.5t23 28.5q45 39 101.5 52.5t113.5 12.5q47 0 90 -18t76 -51t52.5 -80t19.5 -107q0 -61 -19.5 -108.5t-52.5 -80.5t-76 -50t-90 -17q-56 0 -112 15.5t-101 50.5q-14 11 -25 28t-18 33l-1 -1q7 -15 11.5 -35
t4.5 -37v-248h-142zM174 250q0 -40 13.5 -71t37 -51t54 -30.5t64.5 -10.5q36 0 66 11t52.5 31.5t35 51t12.5 69.5q0 41 -13.5 72t-36.5 51.5t-53 30.5t-63 10q-34 0 -64.5 -10t-54 -30.5t-37 -51.5t-13.5 -72z" />
    <glyph glyph-name="ydieresis" unicode="&#xff;" horiz-adv-x="655" 
d="M48 500h157l121 -289q7 -16 10.5 -36t3.5 -37h2q0 17 3.5 37t10.5 36l121 289h155l-243 -571q-16 -42 -39.5 -68.5t-49 -41t-52 -20t-48.5 -5.5h-150v105h75q10 0 27 2t35 7.5t33.5 15t21.5 25.5l20 58zM358 583v117h143v-117h-143zM160 583v117h143v-117h-143z" />
    <glyph glyph-name="Amacron" unicode="&#x100;" horiz-adv-x="780" 
d="M41 0l264 700h189l264 -700h-153l-58 144l-297 -1l-55 -143h-154zM290 262h95t62 -7q26 -7 50 -32.5t44 -59.5l-144 383zM199 885h404v-91h-404v91z" />
    <glyph glyph-name="amacron" unicode="&#x101;" horiz-adv-x="648" 
d="M20 142q0 41 17.5 67.5t46 42.5t64.5 23t74 10t74.5 3t64.5 2.5t45 8.5t17 20q-2 42 -35.5 60.5t-96.5 18.5q-26 0 -50 -3t-42.5 -11.5t-30.5 -23.5t-14 -39l-124 7q3 47 27.5 80t61 54.5t82 31t90.5 9.5q51 0 99.5 -10t86.5 -32.5t61 -60t23 -93.5v-143q0 -20 8 -26
t26 -6h25v-132h-98q-21 0 -39 7t-31.5 19t-21 28t-7.5 34v39q-9 -32 -29.5 -56t-48.5 -39.5t-60.5 -23t-65.5 -7.5q-38 0 -74 9t-63.5 27t-44.5 44.5t-17 60.5zM163 146q0 -32 29.5 -46t69.5 -14q28 0 56.5 6.5t52 18t38 28.5t14.5 38v55q-16 -11 -41.5 -15t-54.5 -5
t-58 -2.5t-52.5 -7t-38.5 -18.5t-15 -38zM109 685h404v-91h-404v91z" />
    <glyph glyph-name="Abreve" unicode="&#x102;" horiz-adv-x="780" 
d="M41 0l264 700h189l264 -700h-153l-58 144l-297 -1l-55 -143h-154zM290 262h95t62 -7q26 -7 50 -32.5t44 -59.5l-144 383zM322 936q0 -16 3.5 -32t12 -29.5t23 -22t37.5 -8.5q22 0 36.5 8.5t23.5 22t12.5 29.5t3.5 32h112q0 -33 -10 -66t-32.5 -59t-58.5 -42t-87 -16
t-87 16t-58.5 42t-32.5 59t-10 66h112z" />
    <glyph glyph-name="abreve" unicode="&#x103;" horiz-adv-x="648" 
d="M20 142q0 41 17.5 67.5t46 42.5t64.5 23t74 10t74.5 3t64.5 2.5t45 8.5t17 20q-2 42 -35.5 60.5t-96.5 18.5q-26 0 -50 -3t-42.5 -11.5t-30.5 -23.5t-14 -39l-124 7q3 47 27.5 80t61 54.5t82 31t90.5 9.5q51 0 99.5 -10t86.5 -32.5t61 -60t23 -93.5v-143q0 -20 8 -26
t26 -6h25v-132h-98q-21 0 -39 7t-31.5 19t-21 28t-7.5 34v39q-9 -32 -29.5 -56t-48.5 -39.5t-60.5 -23t-65.5 -7.5q-38 0 -74 9t-63.5 27t-44.5 44.5t-17 60.5zM163 146q0 -32 29.5 -46t69.5 -14q28 0 56.5 6.5t52 18t38 28.5t14.5 38v55q-16 -11 -41.5 -15t-54.5 -5
t-58 -2.5t-52.5 -7t-38.5 -18.5t-15 -38zM223 735q0 -16 3.5 -32t12 -29.5t23 -22t37.5 -8.5q22 0 36.5 8.5t23.5 22t12.5 29.5t3.5 32h112q0 -33 -10 -66t-32.5 -59t-58.5 -42t-87 -16t-87 16t-58.5 42t-32.5 59t-10 66h112z" />
    <glyph glyph-name="Aogonek" unicode="&#x104;" horiz-adv-x="780" 
d="M41 0l264 700h189l264 -700h-153l-58 144l-297 -1l-55 -143h-154zM290 262h95t62 -7q26 -7 50 -32.5t44 -59.5l-144 383zM648 0h84q-26 -29 -38.5 -58.5t-13 -53t10.5 -38.5t33 -15t51 16l55 -46q-19 -27 -54.5 -41t-73.5 -14q-39 0 -72.5 14.5t-47.5 45.5t-1 78t67 112z
" />
    <glyph glyph-name="aogonek" unicode="&#x105;" horiz-adv-x="648" 
d="M20 142q0 41 17.5 67.5t46 42.5t64.5 23t74 10t74.5 3t64.5 2.5t45 8.5t17 20q-2 42 -35.5 60.5t-96.5 18.5q-26 0 -50 -3t-42.5 -11.5t-30.5 -23.5t-14 -39l-124 7q3 47 27.5 80t61 54.5t82 31t90.5 9.5q51 0 99.5 -10t86.5 -32.5t61 -60t23 -93.5v-143q0 -20 8 -26
t26 -6h25v-132h-98q-21 0 -39 7t-31.5 19t-21 28t-7.5 34v39q-9 -32 -29.5 -56t-48.5 -39.5t-60.5 -23t-65.5 -7.5q-38 0 -74 9t-63.5 27t-44.5 44.5t-17 60.5zM163 146q0 -32 29.5 -46t69.5 -14q28 0 56.5 6.5t52 18t38 28.5t14.5 38v55q-16 -11 -41.5 -15t-54.5 -5
t-58 -2.5t-52.5 -7t-38.5 -18.5t-15 -38zM535 3h84q-26 -29 -38.5 -58.5t-13 -53t10.5 -38.5t33 -15t51 16l55 -46q-19 -27 -54.5 -41t-73.5 -14q-39 0 -72.5 14.5t-47.5 45.5t-1 78t67 112z" />
    <glyph glyph-name="Cacute" unicode="&#x106;" horiz-adv-x="751" 
d="M22 350q0 91 27.5 158.5t75.5 112t114 66t142 20.5q63 -1 119.5 -16t102.5 -45.5t78.5 -76.5t47.5 -108l-139 -33q-8 27 -25.5 51.5t-44 43.5t-61.5 30t-79 11q-53 0 -93.5 -15.5t-67.5 -43.5t-40.5 -67.5t-13.5 -87.5q0 -100 58 -157t157 -57q45 0 81 11t62.5 30
t43 43.5t23.5 52.5l139 -34q-15 -62 -47.5 -108t-78.5 -76.5t-102.5 -45.5t-119.5 -16q-76 -1 -142 20.5t-114 66t-75.5 112t-27.5 158.5zM307 758l58 142h161l-102 -142h-117z" />
    <glyph glyph-name="cacute" unicode="&#x107;" horiz-adv-x="628" 
d="M325 506q47 0 94.5 -12.5t87 -37t66.5 -62t33 -88.5l-132 -8q-14 42 -50.5 69t-98.5 28q-72 0 -116 -38.5t-44 -106.5q0 -33 11.5 -60t32.5 -46t50.5 -29t65.5 -9q116 3 148 93l133 -8q-6 -50 -33 -87t-66.5 -61t-87 -36.5t-94.5 -12.5q-61 0 -116 15.5t-96.5 47.5
t-66 80t-24.5 113t24.5 113t66 80t96.5 47.5t116 15.5zM252 558l58 142h161l-102 -142h-117z" />
    <glyph glyph-name="Ccircumflex" unicode="&#x108;" horiz-adv-x="751" 
d="M22 350q0 91 27.5 158.5t75.5 112t114 66t142 20.5q63 -1 119.5 -16t102.5 -45.5t78.5 -76.5t47.5 -108l-139 -33q-8 27 -25.5 51.5t-44 43.5t-61.5 30t-79 11q-53 0 -93.5 -15.5t-67.5 -43.5t-40.5 -67.5t-13.5 -87.5q0 -100 58 -157t157 -57q45 0 81 11t62.5 30
t43 43.5t23.5 52.5l139 -34q-15 -62 -47.5 -108t-78.5 -76.5t-102.5 -45.5t-119.5 -16q-76 -1 -142 20.5t-114 66t-75.5 112t-27.5 158.5zM158 781l127 161h190l128 -161h-150l-72 97l-73 -97h-150z" />
    <glyph glyph-name="ccircumflex" unicode="&#x109;" horiz-adv-x="628" 
d="M325 506q47 0 94.5 -12.5t87 -37t66.5 -62t33 -88.5l-132 -8q-14 42 -50.5 69t-98.5 28q-72 0 -116 -38.5t-44 -106.5q0 -33 11.5 -60t32.5 -46t50.5 -29t65.5 -9q116 3 148 93l133 -8q-6 -50 -33 -87t-66.5 -61t-87 -36.5t-94.5 -12.5q-61 0 -116 15.5t-96.5 47.5
t-66 80t-24.5 113t24.5 113t66 80t96.5 47.5t116 15.5zM105 581l127 161h190l128 -161h-150l-72 97l-73 -97h-150z" />
    <glyph glyph-name="Cdotaccent" unicode="&#x10a;" horiz-adv-x="751" 
d="M22 350q0 91 27.5 158.5t75.5 112t114 66t142 20.5q63 -1 119.5 -16t102.5 -45.5t78.5 -76.5t47.5 -108l-139 -33q-8 27 -25.5 51.5t-44 43.5t-61.5 30t-79 11q-53 0 -93.5 -15.5t-67.5 -43.5t-40.5 -67.5t-13.5 -87.5q0 -100 58 -157t157 -57q45 0 81 11t62.5 30
t43 43.5t23.5 52.5l139 -34q-15 -62 -47.5 -108t-78.5 -76.5t-102.5 -45.5t-119.5 -16q-76 -1 -142 20.5t-114 66t-75.5 112t-27.5 158.5zM306 781v119h150v-119h-150z" />
    <glyph glyph-name="cdotaccent" unicode="&#x10b;" horiz-adv-x="628" 
d="M325 506q47 0 94.5 -12.5t87 -37t66.5 -62t33 -88.5l-132 -8q-14 42 -50.5 69t-98.5 28q-72 0 -116 -38.5t-44 -106.5q0 -33 11.5 -60t32.5 -46t50.5 -29t65.5 -9q116 3 148 93l133 -8q-6 -50 -33 -87t-66.5 -61t-87 -36.5t-94.5 -12.5q-61 0 -116 15.5t-96.5 47.5
t-66 80t-24.5 113t24.5 113t66 80t96.5 47.5t116 15.5zM251 581v119h150v-119h-150z" />
    <glyph glyph-name="Ccaron" unicode="&#x10c;" horiz-adv-x="751" 
d="M22 350q0 91 27.5 158.5t75.5 112t114 66t142 20.5q63 -1 119.5 -16t102.5 -45.5t78.5 -76.5t47.5 -108l-139 -33q-8 27 -25.5 51.5t-44 43.5t-61.5 30t-79 11q-53 0 -93.5 -15.5t-67.5 -43.5t-40.5 -67.5t-13.5 -87.5q0 -100 58 -157t157 -57q45 0 81 11t62.5 30
t43 43.5t23.5 52.5l139 -34q-15 -62 -47.5 -108t-78.5 -76.5t-102.5 -45.5t-119.5 -16q-76 -1 -142 20.5t-114 66t-75.5 112t-27.5 158.5zM159 942h150l73 -98l72 98h150l-128 -161h-190z" />
    <glyph glyph-name="ccaron" unicode="&#x10d;" horiz-adv-x="628" 
d="M325 506q47 0 94.5 -12.5t87 -37t66.5 -62t33 -88.5l-132 -8q-14 42 -50.5 69t-98.5 28q-72 0 -116 -38.5t-44 -106.5q0 -33 11.5 -60t32.5 -46t50.5 -29t65.5 -9q116 3 148 93l133 -8q-6 -50 -33 -87t-66.5 -61t-87 -36.5t-94.5 -12.5q-61 0 -116 15.5t-96.5 47.5
t-66 80t-24.5 113t24.5 113t66 80t96.5 47.5t116 15.5zM104 742h150l73 -98l72 98h150l-128 -161h-190z" />
    <glyph glyph-name="Dcaron" unicode="&#x10e;" horiz-adv-x="734" 
d="M353 700q73 0 138 -21t113.5 -64.5t76.5 -109.5t28 -155t-28 -155t-76.5 -109.5t-113.5 -64.5t-138 -21h-324v700h324zM87 569q13 0 28 -1t27.5 -4.5t21 -9.5t8.5 -17v-53.5v-102.5v-125.5v-123.5h192q33 0 68.5 12t65.5 38t49 67.5t19 100.5q0 57 -19 98.5t-48.5 68
t-65 39.5t-69.5 13h-277zM84 942h150l73 -98l72 98h150l-128 -161h-190z" />
    <glyph glyph-name="dcaron" unicode="&#x10f;" horiz-adv-x="704" 
d="M27 250q0 130 66.5 192.5t190.5 63.5q25 0 51.5 -5.5t51.5 -16t47.5 -25t39.5 -32.5q11 -12 19.5 -31t13.5 -35h2q-5 17 -9 37t-4 37v265h176l-33 -128v-572h-143v61q0 17 4 37t9 36l-1 1q-6 -16 -14.5 -35t-19.5 -31q-35 -35 -87.5 -55t-102.5 -20q-124 0 -190.5 63
t-66.5 193zM168 250q0 -32 8 -58t26 -44.5t47.5 -28.5t72.5 -10q37 0 68.5 10.5t55 29t37 44.5t13.5 57t-13.5 58t-37 47.5t-55 31.5t-68.5 11q-43 0 -72.5 -11t-47.5 -30.5t-26 -46.5t-8 -60z" />
    <glyph glyph-name="Dcroat" unicode="&#x110;" horiz-adv-x="792" 
d="M414 700q73 0 138 -21t113.5 -64.5t76.5 -109.5t28 -155t-28 -155t-76.5 -109.5t-113.5 -64.5t-138 -21h-324v700h324zM148 569q13 0 28 -1t27.5 -4.5t21 -9.5t8.5 -17v-53.5v-102.5v-125.5v-123.5h192q33 0 68.5 12t65.5 38t49 67.5t19 100.5q0 57 -19 98.5t-48.5 68
t-65 39.5t-69.5 13h-277zM4 418h424v-143h-424v143z" />
    <glyph glyph-name="dcroat" unicode="&#x111;" horiz-adv-x="664" 
d="M27 250q0 130 66.5 192.5t190.5 63.5q25 0 51.5 -5.5t51.5 -16t47.5 -25t39.5 -32.5q11 -12 19.5 -31t13.5 -35h2q-5 17 -9 37t-4 37v265h143v-700h-143v61q0 17 4 37t9 36l-1 1q-6 -16 -14.5 -35t-19.5 -31q-35 -35 -87.5 -55t-102.5 -20q-124 0 -190.5 63t-66.5 193z
M322 398q-43 0 -72.5 -11t-47.5 -30.5t-26 -46.5t-8 -60q0 -32 8 -58t26 -44.5t47.5 -28.5t72.5 -10q37 0 68.5 10.5t55 29t37 44.5t13.5 57t-13.5 58t-37 47.5t-55 31.5t-68.5 11zM360 641h377v-101h-377v101z" />
    <glyph glyph-name="Emacron" unicode="&#x112;" horiz-adv-x="653" 
d="M30 700h596v-131h-453v-172h423v-111h-423v-155h453v-131h-596v700zM123 885h404v-91h-404v91z" />
    <glyph glyph-name="emacron" unicode="&#x113;" horiz-adv-x="639" 
d="M326 -6q-61 0 -116.5 15.5t-97 47.5t-66 80t-24.5 113t24.5 113t66 80t97 47.5t116.5 15.5q62 0 115 -16t92 -47.5t61.5 -79.5t22.5 -113q0 -11 -0.5 -14.5t-0.5 -13.5h-447q4 -29 18 -51.5t35.5 -38t49 -23t58.5 -7.5q58 0 95.5 16t54.5 65l132 -7q-13 -54 -40 -89.5
t-64.5 -55.5t-83.5 -28.5t-98 -8.5zM330 405q-28 0 -58 -9.5t-54 -31.5t-38 -57t-11 -85q12 41 33 54t54 13h232q-3 31 -17 52.5t-35 35.5t-48.5 21t-57.5 7zM128 685h404v-91h-404v91z" />
    <glyph glyph-name="Ebreve" unicode="&#x114;" horiz-adv-x="653" 
d="M30 700h596v-131h-453v-172h423v-111h-423v-155h453v-131h-596v700zM257 936q0 -16 3.5 -32t12 -29.5t23 -22t37.5 -8.5q22 0 36.5 8.5t23.5 22t12.5 29.5t3.5 32h112q0 -33 -10 -66t-32.5 -59t-58.5 -42t-87 -16t-87 16t-58.5 42t-32.5 59t-10 66h112z" />
    <glyph glyph-name="ebreve" unicode="&#x115;" horiz-adv-x="639" 
d="M326 -6q-61 0 -116.5 15.5t-97 47.5t-66 80t-24.5 113t24.5 113t66 80t97 47.5t116.5 15.5q62 0 115 -16t92 -47.5t61.5 -79.5t22.5 -113q0 -11 -0.5 -14.5t-0.5 -13.5h-447q4 -29 18 -51.5t35.5 -38t49 -23t58.5 -7.5q58 0 95.5 16t54.5 65l132 -7q-13 -54 -40 -89.5
t-64.5 -55.5t-83.5 -28.5t-98 -8.5zM330 405q-28 0 -58 -9.5t-54 -31.5t-38 -57t-11 -85q12 41 33 54t54 13h232q-3 31 -17 52.5t-35 35.5t-48.5 21t-57.5 7zM252 735q0 -16 3.5 -32t12 -29.5t23 -22t37.5 -8.5q22 0 36.5 8.5t23.5 22t12.5 29.5t3.5 32h112q0 -33 -10 -66
t-32.5 -59t-58.5 -42t-87 -16t-87 16t-58.5 42t-32.5 59t-10 66h112z" />
    <glyph glyph-name="Edotaccent" unicode="&#x116;" horiz-adv-x="653" 
d="M30 700h596v-131h-453v-172h423v-111h-423v-155h453v-131h-596v700zM256 781v119h150v-119h-150z" />
    <glyph glyph-name="edotaccent" unicode="&#x117;" horiz-adv-x="639" 
d="M326 -6q-61 0 -116.5 15.5t-97 47.5t-66 80t-24.5 113t24.5 113t66 80t97 47.5t116.5 15.5q62 0 115 -16t92 -47.5t61.5 -79.5t22.5 -113q0 -11 -0.5 -14.5t-0.5 -13.5h-447q4 -29 18 -51.5t35.5 -38t49 -23t58.5 -7.5q58 0 95.5 16t54.5 65l132 -7q-13 -54 -40 -89.5
t-64.5 -55.5t-83.5 -28.5t-98 -8.5zM330 405q-28 0 -58 -9.5t-54 -31.5t-38 -57t-11 -85q12 41 33 54t54 13h232q-3 31 -17 52.5t-35 35.5t-48.5 21t-57.5 7zM254 581v119h150v-119h-150z" />
    <glyph glyph-name="Eogonek" unicode="&#x118;" horiz-adv-x="653" 
d="M30 700h596v-131h-453v-172h423v-111h-423v-155h453v-131h-596v700zM404 0h84q-26 -29 -38.5 -58.5t-13 -53t10.5 -38.5t33 -15t51 16l55 -46q-19 -27 -54.5 -41t-73.5 -14q-39 0 -72.5 14.5t-47.5 45.5t-1 78t67 112z" />
    <glyph glyph-name="eogonek" unicode="&#x119;" horiz-adv-x="639" 
d="M326 -6q-61 0 -116.5 15.5t-97 47.5t-66 80t-24.5 113t24.5 113t66 80t97 47.5t116.5 15.5q62 0 115 -16t92 -47.5t61.5 -79.5t22.5 -113q0 -11 -0.5 -14.5t-0.5 -13.5h-447q4 -29 18 -51.5t35.5 -38t49 -23t58.5 -7.5q58 0 95.5 16t54.5 65l132 -7q-13 -54 -40 -89.5
t-64.5 -55.5t-83.5 -28.5t-98 -8.5zM330 405q-28 0 -58 -9.5t-54 -31.5t-38 -57t-11 -85q12 41 33 54t54 13h232q-3 31 -17 52.5t-35 35.5t-48.5 21t-57.5 7zM285 29h84q-26 -29 -38.5 -58.5t-13 -53t10.5 -38.5t33 -15t51 16l55 -46q-19 -27 -54.5 -41t-73.5 -14
q-39 0 -72.5 14.5t-47.5 45.5t-1 78t67 112z" />
    <glyph glyph-name="Ecaron" unicode="&#x11a;" horiz-adv-x="653" 
d="M30 700h596v-131h-453v-172h423v-111h-423v-155h453v-131h-596v700zM118 942h150l73 -98l72 98h150l-128 -161h-190z" />
    <glyph glyph-name="ecaron" unicode="&#x11b;" horiz-adv-x="639" 
d="M326 -6q-61 0 -116.5 15.5t-97 47.5t-66 80t-24.5 113t24.5 113t66 80t97 47.5t116.5 15.5q62 0 115 -16t92 -47.5t61.5 -79.5t22.5 -113q0 -11 -0.5 -14.5t-0.5 -13.5h-447q4 -29 18 -51.5t35.5 -38t49 -23t58.5 -7.5q58 0 95.5 16t54.5 65l132 -7q-13 -54 -40 -89.5
t-64.5 -55.5t-83.5 -28.5t-98 -8.5zM330 405q-28 0 -58 -9.5t-54 -31.5t-38 -57t-11 -85q12 41 33 54t54 13h232q-3 31 -17 52.5t-35 35.5t-48.5 21t-57.5 7zM107 742h150l73 -98l72 98h150l-128 -161h-190z" />
    <glyph glyph-name="Gcircumflex" unicode="&#x11c;" horiz-adv-x="768" 
d="M22 350q0 91 27.5 158.5t76 112t115 66t143.5 20.5q64 -1 121 -16t103 -45.5t79 -76.5t49 -108l-132 -37q-13 38 -37 66t-54 47t-63.5 29t-65.5 10q-43 0 -82.5 -14t-70 -42.5t-48.5 -71t-18 -98.5q0 -54 16.5 -96.5t45 -71t68 -43.5t84.5 -15q33 0 58 14.5t42.5 36
t28 46t14.5 44.5h-97v106h249q38 0 55 -18.5t17 -50.5v-302h-140v265h-14q-2 -77 -18 -129.5t-45 -84t-70.5 -45t-94.5 -13.5q-77 0 -140 22t-108 66t-69.5 111t-24.5 158zM150 781l127 161h190l128 -161h-150l-72 97l-73 -97h-150z" />
    <glyph glyph-name="gcircumflex" unicode="&#x11d;" horiz-adv-x="661" 
d="M113 84q-42 9 -59 27.5t-17 42.5q0 28 20.5 45.5t59.5 28.5q0 1 -7.5 9.5t-16.5 22t-16.5 31.5t-7.5 39q0 45 23.5 77t60 52.5t82 30t89.5 9.5q36 0 59 -4.5t52 -11.5q-15 28 -6.5 47.5t35 31t68 16t93.5 2.5v-94h-68q-8 0 -21 -1t-23.5 -4t-14 -9t6.5 -16q2 -2 13 -11
t23.5 -25t22.5 -38t10 -49q0 -44 -23 -75.5t-60 -52t-81.5 -30.5t-88.5 -10q-40 0 -76 9q-8 2 -13.5 4t-7.5 2q-13 1 -24.5 -6t-11.5 -15q0 -17 33.5 -23t84 -9.5t109.5 -9.5t109.5 -23t84 -50t33.5 -90q0 -41 -27.5 -70.5t-72 -48t-100.5 -27t-113 -8.5q-53 0 -111 8.5
t-106.5 27t-80 48t-31.5 70.5q0 29 8.5 49.5t23.5 35.5t36 25.5t45 19.5zM144 -37q0 -19 18 -32.5t45.5 -22.5t60.5 -13t63 -4q27 0 56.5 4t54 12.5t40.5 22t16 33.5t-17.5 33.5t-43.5 22t-57.5 13t-60.5 6.5q-9 2 -21 2.5t-21 0.5q-19 0 -42 -5.5t-43.5 -15.5t-34 -24.5
t-13.5 -32.5zM212 331q0 -21 10 -34.5t26 -22t35.5 -12t37.5 -3.5q19 0 38.5 3.5t35.5 11.5t26 22.5t10 35.5t-10 34.5t-26 22t-35.5 12t-37.5 3.5q-19 0 -38.5 -3.5t-35.5 -11.5t-26 -22.5t-10 -35.5zM111 616l127 161h190l128 -161h-150l-72 97l-73 -97h-150z" />
    <glyph glyph-name="Gbreve" unicode="&#x11e;" horiz-adv-x="768" 
d="M22 350q0 91 27.5 158.5t76 112t115 66t143.5 20.5q64 -1 121 -16t103 -45.5t79 -76.5t49 -108l-132 -37q-13 38 -37 66t-54 47t-63.5 29t-65.5 10q-43 0 -82.5 -14t-70 -42.5t-48.5 -71t-18 -98.5q0 -54 16.5 -96.5t45 -71t68 -43.5t84.5 -15q33 0 58 14.5t42.5 36
t28 46t14.5 44.5h-97v106h249q38 0 55 -18.5t17 -50.5v-302h-140v265h-14q-2 -77 -18 -129.5t-45 -84t-70.5 -45t-94.5 -13.5q-77 0 -140 22t-108 66t-69.5 111t-24.5 158zM317 935q0 -16 3.5 -32t12 -29.5t23 -22t37.5 -8.5q22 0 36.5 8.5t23.5 22t12.5 29.5t3.5 32h112
q0 -33 -10 -66t-32.5 -59t-58.5 -42t-87 -16t-87 16t-58.5 42t-32.5 59t-10 66h112z" />
    <glyph glyph-name="gbreve" unicode="&#x11f;" horiz-adv-x="662" 
d="M113 84q-42 9 -59 27.5t-17 42.5q0 28 20.5 45.5t59.5 28.5q0 1 -7.5 9.5t-16.5 22t-16.5 31.5t-7.5 39q0 45 23.5 77t60 52.5t82 30t89.5 9.5q36 0 59 -4.5t52 -11.5q-15 28 -6.5 47.5t35 31t68 16t93.5 2.5v-94h-68q-8 0 -21 -1t-23.5 -4t-14 -9t6.5 -16q2 -2 13 -11
t23.5 -25t22.5 -38t10 -49q0 -44 -23 -75.5t-60 -52t-81.5 -30.5t-88.5 -10q-40 0 -76 9q-8 2 -13.5 4t-7.5 2q-13 1 -24.5 -6t-11.5 -15q0 -17 33.5 -23t84 -9.5t109.5 -9.5t109.5 -23t84 -50t33.5 -90q0 -41 -27.5 -70.5t-72 -48t-100.5 -27t-113 -8.5q-53 0 -111 8.5
t-106.5 27t-80 48t-31.5 70.5q0 29 8.5 49.5t23.5 35.5t36 25.5t45 19.5zM144 -37q0 -19 18 -32.5t45.5 -22.5t60.5 -13t63 -4q27 0 56.5 4t54 12.5t40.5 22t16 33.5t-17.5 33.5t-43.5 22t-57.5 13t-60.5 6.5q-9 2 -21 2.5t-21 0.5q-19 0 -42 -5.5t-43.5 -15.5t-34 -24.5
t-13.5 -32.5zM212 331q0 -21 10 -34.5t26 -22t35.5 -12t37.5 -3.5q19 0 38.5 3.5t35.5 11.5t26 22.5t10 35.5t-10 34.5t-26 22t-35.5 12t-37.5 3.5q-19 0 -38.5 -3.5t-35.5 -11.5t-26 -22.5t-10 -35.5zM245 761q0 -16 3.5 -32t12 -29.5t23 -22t37.5 -8.5q22 0 36.5 8.5
t23.5 22t12.5 29.5t3.5 32h112q0 -33 -10 -66t-32.5 -59t-58.5 -42t-87 -16t-87 16t-58.5 42t-32.5 59t-10 66h112z" />
    <glyph glyph-name="Gdotaccent" unicode="&#x120;" horiz-adv-x="768" 
d="M22 350q0 91 27.5 158.5t76 112t115 66t143.5 20.5q64 -1 121 -16t103 -45.5t79 -76.5t49 -108l-132 -37q-13 38 -37 66t-54 47t-63.5 29t-65.5 10q-43 0 -82.5 -14t-70 -42.5t-48.5 -71t-18 -98.5q0 -54 16.5 -96.5t45 -71t68 -43.5t84.5 -15q33 0 58 14.5t42.5 36
t28 46t14.5 44.5h-97v106h249q38 0 55 -18.5t17 -50.5v-302h-140v265h-14q-2 -77 -18 -129.5t-45 -84t-70.5 -45t-94.5 -13.5q-77 0 -140 22t-108 66t-69.5 111t-24.5 158zM307 781v119h150v-119h-150z" />
    <glyph glyph-name="gdotaccent" unicode="&#x121;" horiz-adv-x="662" 
d="M113 84q-42 9 -59 27.5t-17 42.5q0 28 20.5 45.5t59.5 28.5q0 1 -7.5 9.5t-16.5 22t-16.5 31.5t-7.5 39q0 45 23.5 77t60 52.5t82 30t89.5 9.5q36 0 59 -4.5t52 -11.5q-15 28 -6.5 47.5t35 31t68 16t93.5 2.5v-94h-68q-8 0 -21 -1t-23.5 -4t-14 -9t6.5 -16q2 -2 13 -11
t23.5 -25t22.5 -38t10 -49q0 -44 -23 -75.5t-60 -52t-81.5 -30.5t-88.5 -10q-40 0 -76 9q-8 2 -13.5 4t-7.5 2q-13 1 -24.5 -6t-11.5 -15q0 -17 33.5 -23t84 -9.5t109.5 -9.5t109.5 -23t84 -50t33.5 -90q0 -41 -27.5 -70.5t-72 -48t-100.5 -27t-113 -8.5q-53 0 -111 8.5
t-106.5 27t-80 48t-31.5 70.5q0 29 8.5 49.5t23.5 35.5t36 25.5t45 19.5zM144 -37q0 -19 18 -32.5t45.5 -22.5t60.5 -13t63 -4q27 0 56.5 4t54 12.5t40.5 22t16 33.5t-17.5 33.5t-43.5 22t-57.5 13t-60.5 6.5q-9 2 -21 2.5t-21 0.5q-19 0 -42 -5.5t-43.5 -15.5t-34 -24.5
t-13.5 -32.5zM212 331q0 -21 10 -34.5t26 -22t35.5 -12t37.5 -3.5q19 0 38.5 3.5t35.5 11.5t26 22.5t10 35.5t-10 34.5t-26 22t-35.5 12t-37.5 3.5q-19 0 -38.5 -3.5t-35.5 -11.5t-26 -22.5t-10 -35.5zM254 635v119h150v-119h-150z" />
    <glyph glyph-name="uni0122" unicode="&#x122;" horiz-adv-x="768" 
d="M22 350q0 91 27.5 158.5t76 112t115 66t143.5 20.5q64 -1 121 -16t103 -45.5t79 -76.5t49 -108l-132 -37q-13 38 -37 66t-54 47t-63.5 29t-65.5 10q-43 0 -82.5 -14t-70 -42.5t-48.5 -71t-18 -98.5q0 -54 16.5 -96.5t45 -71t68 -43.5t84.5 -15q33 0 58 14.5t42.5 36
t28 46t14.5 44.5h-97v106h249q38 0 55 -18.5t17 -50.5v-302h-140v265h-14q-2 -77 -18 -129.5t-45 -84t-70.5 -45t-94.5 -13.5q-77 0 -140 22t-108 66t-69.5 111t-24.5 158zM270 -192l58 142h113l-77 -142h-94z" />
    <glyph glyph-name="uni0123" unicode="&#x123;" horiz-adv-x="662" 
d="M113 84q-42 9 -59 27.5t-17 42.5q0 28 20.5 45.5t59.5 28.5q0 1 -7.5 9.5t-16.5 22t-16.5 31.5t-7.5 39q0 45 23.5 77t60 52.5t82 30t89.5 9.5q36 0 59 -4.5t52 -11.5q-15 28 -6.5 47.5t35 31t68 16t93.5 2.5v-94h-68q-8 0 -21 -1t-23.5 -4t-14 -9t6.5 -16q2 -2 13 -11
t23.5 -25t22.5 -38t10 -49q0 -44 -23 -75.5t-60 -52t-81.5 -30.5t-88.5 -10q-40 0 -76 9q-8 2 -13.5 4t-7.5 2q-13 1 -24.5 -6t-11.5 -15q0 -17 33.5 -23t84 -9.5t109.5 -9.5t109.5 -23t84 -50t33.5 -90q0 -41 -27.5 -70.5t-72 -48t-100.5 -27t-113 -8.5q-53 0 -111 8.5
t-106.5 27t-80 48t-31.5 70.5q0 29 8.5 49.5t23.5 35.5t36 25.5t45 19.5zM144 -37q0 -19 18 -32.5t45.5 -22.5t60.5 -13t63 -4q27 0 56.5 4t54 12.5t40.5 22t16 33.5t-17.5 33.5t-43.5 22t-57.5 13t-60.5 6.5q-9 2 -21 2.5t-21 0.5q-19 0 -42 -5.5t-43.5 -15.5t-34 -24.5
t-13.5 -32.5zM212 331q0 -21 10 -34.5t26 -22t35.5 -12t37.5 -3.5q19 0 38.5 3.5t35.5 11.5t26 22.5t10 35.5t-10 34.5t-26 22t-35.5 12t-37.5 3.5q-19 0 -38.5 -3.5t-35.5 -11.5t-26 -22.5t-10 -35.5zM245 786l10 47h148l-68 -263h-90v216z" />
    <glyph glyph-name="Hcircumflex" unicode="&#x124;" horiz-adv-x="713" 
d="M173 700v-278h367v278h143v-700h-143v279h-367v-279h-143v700h143zM137 781l127 161h190l128 -161h-150l-72 97l-73 -97h-150z" />
    <glyph glyph-name="hcircumflex" unicode="&#x125;" horiz-adv-x="646" 
d="M31 700h143v-287q0 -17 -3 -37t-7 -37l2 -1q4 17 10.5 36.5t15.5 33.5q35 53 89.5 76.5t116.5 23.5q47 0 87.5 -17.5t70 -51.5t46 -83.5t16.5 -112.5v-243h-142v243q0 61 -34 100.5t-98 39.5q-23 0 -52.5 -9.5t-55.5 -32.5t-44 -60.5t-18 -93.5v-187h-143v700zM-119 761
l127 161h190l128 -161h-150l-72 97l-73 -97h-150z" />
    <glyph glyph-name="Hbar" unicode="&#x126;" horiz-adv-x="713" 
d="M173 700v-278h367v278h143v-700h-143v279h-367v-279h-143v700h143zM-124.323 590h-684.693v-101h684.693v101z" />
    <glyph glyph-name="hbar" unicode="&#x127;" horiz-adv-x="646" 
d="M31 700h143v-287q0 -17 -3 -37t-7 -37l2 -1q4 17 10.5 36.5t15.5 33.5q35 53 89.5 76.5t116.5 23.5q47 0 87.5 -17.5t70 -51.5t46 -83.5t16.5 -112.5v-243h-142v243q0 61 -34 100.5t-98 39.5q-23 0 -52.5 -9.5t-55.5 -32.5t-44 -60.5t-18 -93.5v-187h-143v700zM-68 639
h377v-101h-377v101z" />
    <glyph glyph-name="Itilde" unicode="&#x128;" 
d="M30 700h143v-700h-143v700zM-114 765q9 74 51.5 108.5t110.5 34.5q30 0 50.5 -9t36 -19.5t29 -19.5t28.5 -10q13 -1 22.5 4.5t16 14t10.5 19t6 20.5l107 -10q-2 -31 -11.5 -58.5t-28.5 -48t-47 -32.5t-67 -11q-32 0 -51.5 8.5t-34.5 19t-28 19.5t-32 10q-32 2 -52.5 -15
t-25.5 -40z" />
    <glyph glyph-name="itilde" unicode="&#x129;" 
d="M30 500h143v-500h-143v500zM-125 567q9 74 51.5 108.5t110.5 34.5q30 0 50.5 -9t36 -19.5t29 -19.5t28.5 -10q13 -1 22.5 4.5t16 14t10.5 19t6 20.5l107 -10q-2 -31 -11.5 -58.5t-28.5 -48t-47 -32.5t-67 -11q-32 0 -51.5 8.5t-34.5 19t-28 19.5t-32 10q-32 2 -52.5 -15
t-25.5 -40z" />
    <glyph glyph-name="Imacron" unicode="&#x12a;" 
d="M30 700h143v-700h-143v700zM-81 888h377v-101h-377v101z" />
    <glyph glyph-name="imacron" unicode="&#x12b;" horiz-adv-x="113" 
d="M30 500h143v-500h-143v500zM-98 685h404v-91h-404v91z" />
    <glyph glyph-name="Iogonek" unicode="&#x12e;" 
d="M30 700h143v-700h-143v700zM59 2h84q-26 -29 -38.5 -58.5t-13 -53t10.5 -38.5t33 -15t51 16l55 -46q-19 -27 -54.5 -41t-73.5 -14q-39 0 -72.5 14.5t-47.5 45.5t-1 78t67 112z" />
    <glyph glyph-name="iogonek" unicode="&#x12f;" horiz-adv-x="224" 
d="M174 583v117h-144v-117h144zM32 500h140v-500h-140v500zM64 0h84q-26 -29 -38.5 -58.5t-13 -53t10.5 -38.5t33 -15t51 16l55 -46q-19 -27 -54.5 -41t-73.5 -14q-39 0 -72.5 14.5t-47.5 45.5t-1 78t67 112z" />
    <glyph glyph-name="Idotaccent" unicode="&#x130;" 
d="M30 700h143v-700h-143v700zM26 781v119h150v-119h-150z" />
    <glyph glyph-name="dotlessi" unicode="&#x131;" 
d="M30 500h143v-500h-143v500z" />
    <glyph glyph-name="IJ" unicode="&#x132;" horiz-adv-x="602" 
d="M30 -230v114h103q78 0 122 34t44 99v683h143v-700q0 -58 -17.5 -101t-47.5 -71.5t-69.5 -43t-84.5 -14.5h-193zM30 0v700h143v-700h-143z" />
    <glyph glyph-name="ij" unicode="&#x133;" horiz-adv-x="426" 
d="M174 583v117h-144v-117h144zM32 500h140v-500h-140v500zM132 -78h22q51 0 74.5 23t23.5 81v474h143v-474q0 -56 -13 -95.5t-41.5 -65t-74.5 -37t-112 -11.5h-22v105zM395 700v-117h-143v117h143z" />
    <glyph glyph-name="Jcircumflex" unicode="&#x134;" horiz-adv-x="668" 
d="M162 268q2 -26 12 -52t30.5 -46.5t51.5 -33t73 -12.5q33 0 63.5 13t53 38t36 62t13.5 86v377h143v-384q0 -89 -24 -150.5t-65.5 -100t-98 -55.5t-121.5 -17q-52 0 -105 12t-96 40t-71 74t-30 113zM338 781l127 161h190l128 -161h-150l-72 97l-73 -97h-150z" />
    <glyph glyph-name="jcircumflex" unicode="&#x135;" horiz-adv-x="263" 
d="M-31 -78h22q51 0 74.5 23t23.5 81v474h143v-474q0 -56 -13 -95.5t-41.5 -65t-74.5 -37t-112 -11.5h-22v105zM232 700v-117h-143v117h143zM-58 555l127 161h190l128 -161h-150l-72 97l-73 -97h-150z" />
    <glyph glyph-name="uni0136" unicode="&#x136;" horiz-adv-x="711" 
d="M30 0v700h143v-315q0 -17 -4.5 -38t-10.5 -38h2q6 17 16.5 35t22.5 32l283 324h188l-283 -325l298 -375h-188l-257 325l-67 -163v-162h-143zM227 -192l58 142h113l-77 -142h-94z" />
    <glyph glyph-name="uni0137" unicode="&#x137;" horiz-adv-x="652" 
d="M30 0v700h144l-3 -355q0 -17 -5 -36.5t-13 -34.5l2 -1q8 15 19.5 31t25.5 27l205 169h206l-242 -196l257 -303h-58v-1l-1 1h-122l-184 219l-87 -71v-149h-144zM184 -187l58 142h113l-77 -142h-94z" />
    <glyph glyph-name="kgreenlandic" unicode="&#x138;" horiz-adv-x="550" 
d="M518 502l-216 -231l222 -271h-143l-164 195l-78 -71v-124h-109v501h109l-1 -240l237 241h143z" />
    <glyph glyph-name="Lacute" unicode="&#x139;" horiz-adv-x="603" 
d="M30 0v700h143v-531q0 -17 -8 -34.5t-20 -29.5l2 -1q12 12 29.5 19.5t34.5 7.5h369v-131h-550zM42 758l58 142h161l-102 -142h-117z" />
    <glyph glyph-name="lacute" unicode="&#x13a;" horiz-adv-x="213" 
d="M35 728h143v-728h-143v728zM44 772l58 142h161l-102 -142h-117z" />
    <glyph glyph-name="uni013B" unicode="&#x13b;" horiz-adv-x="603" 
d="M30 0v700h143v-531q0 -17 -8 -34.5t-20 -29.5l2 -1q12 12 29.5 19.5t34.5 7.5h369v-131h-550zM207 -191l58 142h113l-77 -142h-94z" />
    <glyph glyph-name="uni013C" unicode="&#x13c;" horiz-adv-x="213" 
d="M35 728h143v-728h-143v728zM7 -193l58 142h113l-77 -142h-94z" />
    <glyph glyph-name="Lcaron" unicode="&#x13d;" horiz-adv-x="603" 
d="M30 0v700h143v-531q0 -17 -8 -34.5t-20 -29.5l2 -1q12 12 29.5 19.5t34.5 7.5h369v-131h-550zM275 546l-1 27l124 63l-42 -161h-60z" />
    <glyph glyph-name="lcaron" unicode="&#x13e;" horiz-adv-x="412" 
d="M35 728h143v-728h-143v728zM244 501l-1 27l124 63l-42 -161h-60z" />
    <glyph glyph-name="Ldot" unicode="&#x13f;" horiz-adv-x="603" 
d="M30 0v700h143v-531q0 -17 -8 -34.5t-20 -29.5l2 -1q12 12 29.5 19.5t34.5 7.5h369v-131h-550zM300 321v136h146v-136h-146z" />
    <glyph glyph-name="ldot" unicode="&#x140;" horiz-adv-x="397" 
d="M35 728h143v-728h-143v728zM223 313v136h146v-136h-146z" />
    <glyph glyph-name="Lslash" unicode="&#x141;" horiz-adv-x="716" 
d="M147 0v700h143v-531q0 -17 -8 -34.5t-20 -29.5l2 -1q12 12 29.5 19.5t34.5 7.5h369v-131h-550zM-59.3252 314.695l514.518 194.3l50.5088 -133.774l-514.518 -194.3z" />
    <glyph glyph-name="lslash" unicode="&#x142;" horiz-adv-x="449" 
d="M150 728h143v-728h-143v728zM-58.291 324.912l521.029 176.205l45.8047 -135.467l-521.029 -176.206z" />
    <glyph glyph-name="Nacute" unicode="&#x143;" horiz-adv-x="730" 
d="M30 700h148l351 -451q13 -16 24 -37t18 -41l2 1q-7 19 -11.5 43t-4.5 44v441h143v-700h-148l-351 447q-13 16 -24 37.5t-18 40.5l-2 -1q7 -19 11.5 -43t4.5 -44v-437h-143v700zM290 758l58 142h161l-102 -142h-117z" />
    <glyph glyph-name="nacute" unicode="&#x144;" horiz-adv-x="601" 
d="M30 500h143v-119q0 -16 -2.5 -34t-5.5 -33l2 -1q3 15 7 33t11 32q15 34 37 58.5t47.5 40.5t53 23.5t52.5 7.5q52 0 89 -20t61 -56.5t35 -88t11 -115.5v-228h-142v229q0 66 -30 101t-78 35q-21 0 -47 -7.5t-48.5 -27.5t-37.5 -54.5t-15 -88.5v-187h-143v500zM170 558
l58 142h161l-102 -142h-117z" />
    <glyph glyph-name="uni0145" unicode="&#x145;" horiz-adv-x="730" 
d="M30 700h148l351 -451q13 -16 24 -37t18 -41l2 1q-7 19 -11.5 43t-4.5 44v441h143v-700h-148l-351 447q-13 16 -24 37.5t-18 40.5l-2 -1q7 -19 11.5 -43t4.5 -44v-437h-143v700zM267 -190l58 142h113l-77 -142h-94z" />
    <glyph glyph-name="uni0146" unicode="&#x146;" horiz-adv-x="601" 
d="M30 500h143v-119q0 -16 -2.5 -34t-5.5 -33l2 -1q3 15 7 33t11 32q15 34 37 58.5t47.5 40.5t53 23.5t52.5 7.5q52 0 89 -20t61 -56.5t35 -88t11 -115.5v-228h-142v229q0 66 -30 101t-78 35q-21 0 -47 -7.5t-48.5 -27.5t-37.5 -54.5t-15 -88.5v-187h-143v500zM195 -192
l58 142h113l-77 -142h-94z" />
    <glyph glyph-name="Ncaron" unicode="&#x147;" horiz-adv-x="730" 
d="M30 700h148l351 -451q13 -16 24 -37t18 -41l2 1q-7 19 -11.5 43t-4.5 44v441h143v-700h-148l-351 447q-13 16 -24 37.5t-18 40.5l-2 -1q7 -19 11.5 -43t4.5 -44v-437h-143v700zM147 942h150l73 -98l72 98h150l-128 -161h-190z" />
    <glyph glyph-name="ncaron" unicode="&#x148;" horiz-adv-x="601" 
d="M30 500h143v-119q0 -16 -2.5 -34t-5.5 -33l2 -1q3 15 7 33t11 32q15 34 37 58.5t47.5 40.5t53 23.5t52.5 7.5q52 0 89 -20t61 -56.5t35 -88t11 -115.5v-228h-142v229q0 66 -30 101t-78 35q-21 0 -47 -7.5t-48.5 -27.5t-37.5 -54.5t-15 -88.5v-187h-143v500zM86 742h150
l73 -98l72 98h150l-128 -161h-190z" />
    <glyph glyph-name="napostrophe" unicode="&#x149;" horiz-adv-x="601" 
d="M30 500h143v-119q0 -16 -2.5 -34t-5.5 -33l2 -1q3 15 7 33t11 32q15 34 37 58.5t47.5 40.5t53 23.5t52.5 7.5q52 0 89 -20t61 -56.5t35 -88t11 -115.5v-228h-142v229q0 66 -30 101t-78 35q-21 0 -47 -7.5t-48.5 -27.5t-37.5 -54.5t-15 -88.5v-187h-143v500zM266 707
l-1 27l124 63l-42 -161h-60z" />
    <glyph glyph-name="Omacron" unicode="&#x14c;" horiz-adv-x="772" 
d="M386 -7q-75 0 -141.5 22t-116 66t-78 111t-28.5 158t28.5 158.5t78 112t116 66t141.5 20.5t141.5 -22.5t116 -66t78 -111t28.5 -157.5t-28.5 -158t-78 -111t-116 -66t-141.5 -22zM386 576q-42 0 -81.5 -15t-70.5 -44.5t-50 -71.5t-19 -95t19 -95t49.5 -71t70.5 -44.5
t82 -15.5q44 0 84 15.5t70 44.5t48 71t18 95q0 54 -18.5 95.5t-49.5 70.5t-70.5 44.5t-81.5 15.5zM193 885h404v-91h-404v91z" />
    <glyph glyph-name="omacron" unicode="&#x14d;" horiz-adv-x="657" 
d="M329 -6q-62 0 -117.5 15.5t-97.5 47.5t-67 80t-25 113t25 113t67 80t97.5 47.5t117.5 15.5t117.5 -16t97.5 -47.5t66.5 -79.5t24.5 -113t-24.5 -113t-66.5 -80t-97.5 -47.5t-117.5 -15.5zM329 392q-32 0 -61.5 -9.5t-52.5 -28t-36.5 -45t-13.5 -59.5q0 -34 12.5 -60.5
t35 -44.5t52.5 -27t64 -9q33 0 62.5 9.5t52 27.5t35.5 44t13 60t-13 60.5t-35.5 44.5t-52 27.5t-62.5 9.5zM128 685h404v-91h-404v91z" />
    <glyph glyph-name="Obreve" unicode="&#x14e;" horiz-adv-x="772" 
d="M386 -7q-75 0 -141.5 22t-116 66t-78 111t-28.5 158t28.5 158.5t78 112t116 66t141.5 20.5t141.5 -22.5t116 -66t78 -111t28.5 -157.5t-28.5 -158t-78 -111t-116 -66t-141.5 -22zM386 576q-42 0 -81.5 -15t-70.5 -44.5t-50 -71.5t-19 -95t19 -95t49.5 -71t70.5 -44.5
t82 -15.5q44 0 84 15.5t70 44.5t48 71t18 95q0 54 -18.5 95.5t-49.5 70.5t-70.5 44.5t-81.5 15.5zM310 935q0 -16 3.5 -32t12 -29.5t23 -22t37.5 -8.5q22 0 36.5 8.5t23.5 22t12.5 29.5t3.5 32h112q0 -33 -10 -66t-32.5 -59t-58.5 -42t-87 -16t-87 16t-58.5 42t-32.5 59
t-10 66h112z" />
    <glyph glyph-name="obreve" unicode="&#x14f;" horiz-adv-x="657" 
d="M329 -6q-62 0 -117.5 15.5t-97.5 47.5t-67 80t-25 113t25 113t67 80t97.5 47.5t117.5 15.5t117.5 -16t97.5 -47.5t66.5 -79.5t24.5 -113t-24.5 -113t-66.5 -80t-97.5 -47.5t-117.5 -15.5zM329 392q-32 0 -61.5 -9.5t-52.5 -28t-36.5 -45t-13.5 -59.5q0 -34 12.5 -60.5
t35 -44.5t52.5 -27t64 -9q33 0 62.5 9.5t52 27.5t35.5 44t13 60t-13 60.5t-35.5 44.5t-52 27.5t-62.5 9.5zM253 735q0 -16 3.5 -32t12 -29.5t23 -22t37.5 -8.5q22 0 36.5 8.5t23.5 22t12.5 29.5t3.5 32h112q0 -33 -10 -66t-32.5 -59t-58.5 -42t-87 -16t-87 16t-58.5 42
t-32.5 59t-10 66h112z" />
    <glyph glyph-name="Ohungarumlaut" unicode="&#x150;" horiz-adv-x="772" 
d="M386 -7q-75 0 -141.5 22t-116 66t-78 111t-28.5 158t28.5 158.5t78 112t116 66t141.5 20.5t141.5 -22.5t116 -66t78 -111t28.5 -157.5t-28.5 -158t-78 -111t-116 -66t-141.5 -22zM386 576q-42 0 -81.5 -15t-70.5 -44.5t-50 -71.5t-19 -95t19 -95t49.5 -71t70.5 -44.5
t82 -15.5q44 0 84 15.5t70 44.5t48 71t18 95q0 54 -18.5 95.5t-49.5 70.5t-70.5 44.5t-81.5 15.5zM472 900h165l-112 -142h-111zM218 758l58 142h165l-111 -142h-112z" />
    <glyph glyph-name="ohungarumlaut" unicode="&#x151;" horiz-adv-x="657" 
d="M329 -6q-62 0 -117.5 15.5t-97.5 47.5t-67 80t-25 113t25 113t67 80t97.5 47.5t117.5 15.5t117.5 -16t97.5 -47.5t66.5 -79.5t24.5 -113t-24.5 -113t-66.5 -80t-97.5 -47.5t-117.5 -15.5zM329 392q-32 0 -61.5 -9.5t-52.5 -28t-36.5 -45t-13.5 -59.5q0 -34 12.5 -60.5
t35 -44.5t52.5 -27t64 -9q33 0 62.5 9.5t52 27.5t35.5 44t13 60t-13 60.5t-35.5 44.5t-52 27.5t-62.5 9.5zM413 700h165l-112 -142h-111zM159 558l58 142h165l-111 -142h-112z" />
    <glyph glyph-name="OE" unicode="&#x152;" horiz-adv-x="1218" 
d="M402 -7q-78 0 -147.5 22t-121 66t-81.5 111t-30 158t30 158.5t81.5 112t121 66t147.5 20.5q42 0 83.5 -10t80 -30t71 -49.5t56.5 -69.5v152h500v-131h-368l1 -167h305v-111h-305v-160h367v-131h-500v141q-21 -34 -53.5 -61t-71.5 -46.5t-81.5 -30t-84.5 -10.5zM202 350
q0 -59 19.5 -106t54 -80t81.5 -50.5t102 -17.5q44 0 86.5 17.5t75.5 50.5t53.5 80t20.5 106q0 60 -20.5 107t-53.5 79.5t-75.5 50t-86.5 17.5q-57 1 -104 -16.5t-81 -50.5t-53 -80t-19 -107z" />
    <glyph glyph-name="oe" unicode="&#x153;" horiz-adv-x="1067" 
d="M308 -6q-57 0 -109 15.5t-91.5 47.5t-62.5 80t-23 113t23 113t62.5 80t91.5 47.5t109 15.5q37 0 73.5 -9.5t68.5 -25.5t57.5 -38t38.5 -48q11 26 37 48t60 38.5t72.5 25.5t75.5 9q57 0 104.5 -16t82 -47.5t53.5 -79.5t19 -113q0 -11 -1 -12t-3 -11h-450q0 -25 12.5 -48
t34 -40t52 -27t66.5 -10q53 0 90.5 18.5t57.5 60.5l129 -13q-10 -38 -34 -70t-57 -55t-73 -36t-83 -13q-37 0 -73 7t-68 21.5t-59 35t-45 46.5q-37 -52 -100.5 -81t-137.5 -29zM164 250q0 -41 14 -70t38 -48t55.5 -27.5t67.5 -8.5q75 0 118.5 36t43.5 118q0 35 -12.5 63.5
t-34 48.5t-51 31t-64.5 11q-36 0 -67.5 -10.5t-55.5 -31t-38 -49t-14 -63.5zM766 404q-34 0 -64.5 -11.5t-54 -34.5t-37.5 -56t-14 -75q26 40 67.5 55t81.5 15q20 0 36 -0.5t34.5 -0.5t42 0.5t57.5 0.5q0 21 -9.5 40.5t-28.5 34t-47 23.5t-64 9z" />
    <glyph glyph-name="Racute" unicode="&#x154;" horiz-adv-x="707" 
d="M30 0v700h387q120 0 188 -46.5t68 -145.5q0 -28 -6.5 -48t-16.5 -34.5t-23 -23.5t-26 -17q-20 -16 -50 -24.5t-56 -11.5l1 -2q11 2 24.5 3t27.5 1q17 0 32.5 -2.5t27.5 -10.5q13 -6 25.5 -16.5t22.5 -28.5t16.5 -46.5t6.5 -71.5l1 -175h-143v171q0 35 -21.5 51t-61.5 16
l-280 -1v-237h-144zM377 358q32 0 62.5 7.5t54 21.5t38 34.5t14.5 47.5q0 33 -10.5 54.5t-30 34.5t-46 18.5t-58.5 5.5h-227v-224h203zM261 758l58 142h161l-102 -142h-117z" />
    <glyph glyph-name="racute" unicode="&#x155;" horiz-adv-x="452" 
d="M30 336q0 85 38 124.5t126 39.5h233v-131l-187 -1q-21 0 -34 -3t-20.5 -11.5t-10 -24t-2.5 -41.5v-288h-143v336zM158 558l58 142h161l-102 -142h-117z" />
    <glyph glyph-name="uni0156" unicode="&#x156;" horiz-adv-x="707" 
d="M30 0v700h387q120 0 188 -46.5t68 -145.5q0 -28 -6.5 -48t-16.5 -34.5t-23 -23.5t-26 -17q-20 -16 -50 -24.5t-56 -11.5l1 -2q11 2 24.5 3t27.5 1q17 0 32.5 -2.5t27.5 -10.5q13 -6 25.5 -16.5t22.5 -28.5t16.5 -46.5t6.5 -71.5l1 -175h-143v171q0 35 -21.5 51t-61.5 16
l-280 -1v-237h-144zM377 358q32 0 62.5 7.5t54 21.5t38 34.5t14.5 47.5q0 33 -10.5 54.5t-30 34.5t-46 18.5t-58.5 5.5h-227v-224h203zM250 -191l58 142h113l-77 -142h-94z" />
    <glyph glyph-name="uni0157" unicode="&#x157;" horiz-adv-x="452" 
d="M30 336q0 85 38 124.5t126 39.5h233v-131l-187 -1q-21 0 -34 -3t-20.5 -11.5t-10 -24t-2.5 -41.5v-288h-143v336zM50 -192l58 142h113l-77 -142h-94z" />
    <glyph glyph-name="Rcaron" unicode="&#x158;" horiz-adv-x="707" 
d="M30 0v700h387q120 0 188 -46.5t68 -145.5q0 -28 -6.5 -48t-16.5 -34.5t-23 -23.5t-26 -17q-20 -16 -50 -24.5t-56 -11.5l1 -2q11 2 24.5 3t27.5 1q17 0 32.5 -2.5t27.5 -10.5q13 -6 25.5 -16.5t22.5 -28.5t16.5 -46.5t6.5 -71.5l1 -175h-143v171q0 35 -21.5 51t-61.5 16
l-280 -1v-237h-144zM377 358q32 0 62.5 7.5t54 21.5t38 34.5t14.5 47.5q0 33 -10.5 54.5t-30 34.5t-46 18.5t-58.5 5.5h-227v-224h203zM120 942h150l73 -98l72 98h150l-128 -161h-190z" />
    <glyph glyph-name="rcaron" unicode="&#x159;" horiz-adv-x="452" 
d="M30 336q0 85 38 124.5t126 39.5h233v-131l-187 -1q-21 0 -34 -3t-20.5 -11.5t-10 -24t-2.5 -41.5v-288h-143v336zM9 742h150l73 -98l72 98h150l-128 -161h-190z" />
    <glyph glyph-name="Sacute" unicode="&#x15a;" horiz-adv-x="710" 
d="M170 227q3 -51 49 -75t121 -25q91 -2 143 21t52 74q0 24 -21.5 37.5t-56.5 21.5t-79.5 13.5t-91 12.5t-91 18.5t-79.5 32t-56.5 52.5t-21.5 81q0 59 25.5 101t68.5 68.5t100 38.5t120 11t116.5 -13.5t93 -38t63 -65t26.5 -93.5l-135 -7q-4 45 -43.5 65.5t-120.5 20.5
q-82 0 -126.5 -22.5t-44.5 -64.5q0 -22 21.5 -34t56.5 -19t79.5 -11t91 -11t91 -18.5t79.5 -32.5t56.5 -54t21.5 -83q0 -37 -14.5 -78.5t-52 -76t-102.5 -57t-166 -22.5q-91 0 -150.5 19t-95 50.5t-50 72t-15.5 83.5zM282 758l58 142h161l-102 -142h-117z" />
    <glyph glyph-name="sacute" unicode="&#x15b;" horiz-adv-x="602" 
d="M164 171q4 -42 41 -59.5t99 -17.5q64 0 98 17.5t34 51.5q0 19 -30 26.5t-75 12t-97 10t-97 20t-75 41.5t-30 76q0 36 15.5 61.5t40 43.5t55 28t60.5 16t57 7.5t45 1.5q39 0 84 -8t83 -26t64 -47t29 -70l-127 -14q-5 35 -39.5 49.5t-97.5 14.5q-61 0 -93.5 -13t-32.5 -50
q0 -19 30 -26.5t75 -12t97 -9.5t97 -19t75 -41t30 -75q0 -38 -15.5 -65.5t-41 -45.5t-56.5 -29t-62.5 -17t-59.5 -7.5t-46 -1.5q-16 0 -42.5 2t-56.5 8.5t-60.5 17.5t-55.5 29t-41.5 43t-18.5 60zM232 558l58 142h161l-102 -142h-117z" />
    <glyph glyph-name="Scircumflex" unicode="&#x15c;" horiz-adv-x="705" 
d="M168 227q3 -51 49 -75t121 -25q91 -2 143 21t52 74q0 24 -21.5 37.5t-56.5 21.5t-79.5 13.5t-91 12.5t-91 18.5t-79.5 32t-56.5 52.5t-21.5 81q0 59 25.5 101t68.5 68.5t100 38.5t120 11t116.5 -13.5t93 -38t63 -65t26.5 -93.5l-135 -7q-4 45 -43.5 65.5t-120.5 20.5
q-82 0 -126.5 -22.5t-44.5 -64.5q0 -22 21.5 -34t56.5 -19t79.5 -11t91 -11t91 -18.5t79.5 -32.5t56.5 -54t21.5 -83q0 -37 -14.5 -78.5t-52 -76t-102.5 -57t-166 -22.5q-91 0 -150.5 19t-95 50.5t-50 72t-15.5 83.5zM125 781l127 161h190l128 -161h-150l-72 97l-73 -97
h-150z" />
    <glyph glyph-name="scircumflex" unicode="&#x15d;" horiz-adv-x="602" 
d="M164 171q4 -42 41 -59.5t99 -17.5q64 0 98 17.5t34 51.5q0 19 -30 26.5t-75 12t-97 10t-97 20t-75 41.5t-30 76q0 36 15.5 61.5t40 43.5t55 28t60.5 16t57 7.5t45 1.5q39 0 84 -8t83 -26t64 -47t29 -70l-127 -14q-5 35 -39.5 49.5t-97.5 14.5q-61 0 -93.5 -13t-32.5 -50
q0 -19 30 -26.5t75 -12t97 -9.5t97 -19t75 -41t30 -75q0 -38 -15.5 -65.5t-41 -45.5t-56.5 -29t-62.5 -17t-59.5 -7.5t-46 -1.5q-16 0 -42.5 2t-56.5 8.5t-60.5 17.5t-55.5 29t-41.5 43t-18.5 60zM82 581l127 161h190l128 -161h-150l-72 97l-73 -97h-150z" />
    <glyph glyph-name="Scedilla" unicode="&#x15e;" horiz-adv-x="705" 
d="M168 227q3 -51 49 -75t121 -25q91 -2 143 21t52 74q0 24 -21.5 37.5t-56.5 21.5t-79.5 13.5t-91 12.5t-91 18.5t-79.5 32t-56.5 52.5t-21.5 81q0 59 25.5 101t68.5 68.5t100 38.5t120 11t116.5 -13.5t93 -38t63 -65t26.5 -93.5l-135 -7q-4 45 -43.5 65.5t-120.5 20.5
q-82 0 -126.5 -22.5t-44.5 -64.5q0 -22 21.5 -34t56.5 -19t79.5 -11t91 -11t91 -18.5t79.5 -32.5t56.5 -54t21.5 -83q0 -37 -14.5 -78.5t-52 -76t-102.5 -57t-166 -22.5q-91 0 -150.5 19t-95 50.5t-50 72t-15.5 83.5zM232 -159q13 -21 38 -32t51 -11t45.5 12.5t20.5 40.5
q0 18 -15 27.5t-36.5 13t-44 4t-37.5 0.5l16 40l27 78h115l-34 -68q42 0 68.5 -23.5t26.5 -75.5q0 -33 -12.5 -56.5t-33 -39t-46.5 -22.5t-54 -7q-44 0 -84 16.5t-60 46.5z" />
    <glyph glyph-name="scedilla" unicode="&#x15f;" horiz-adv-x="602" 
d="M164 171q4 -42 41 -59.5t99 -17.5q64 0 98 17.5t34 51.5q0 19 -30 26.5t-75 12t-97 10t-97 20t-75 41.5t-30 76q0 36 15.5 61.5t40 43.5t55 28t60.5 16t57 7.5t45 1.5q39 0 84 -8t83 -26t64 -47t29 -70l-127 -14q-5 35 -39.5 49.5t-97.5 14.5q-61 0 -93.5 -13t-32.5 -50
q0 -19 30 -26.5t75 -12t97 -9.5t97 -19t75 -41t30 -75q0 -38 -15.5 -65.5t-41 -45.5t-56.5 -29t-62.5 -17t-59.5 -7.5t-46 -1.5q-16 0 -42.5 2t-56.5 8.5t-60.5 17.5t-55.5 29t-41.5 43t-18.5 60zM189 -159q13 -21 38 -32t51 -11t45.5 12.5t20.5 40.5q0 18 -15 27.5
t-36.5 13t-44 4t-37.5 0.5l16 40l27 78h115l-34 -68q42 0 68.5 -23.5t26.5 -75.5q0 -33 -12.5 -56.5t-33 -39t-46.5 -22.5t-54 -7q-44 0 -84 16.5t-60 46.5z" />
    <glyph glyph-name="Scaron" unicode="&#x160;" horiz-adv-x="710" 
d="M170 227q3 -51 49 -75t121 -25q91 -2 143 21t52 74q0 24 -21.5 37.5t-56.5 21.5t-79.5 13.5t-91 12.5t-91 18.5t-79.5 32t-56.5 52.5t-21.5 81q0 59 25.5 101t68.5 68.5t100 38.5t120 11t116.5 -13.5t93 -38t63 -65t26.5 -93.5l-135 -7q-4 45 -43.5 65.5t-120.5 20.5
q-82 0 -126.5 -22.5t-44.5 -64.5q0 -22 21.5 -34t56.5 -19t79.5 -11t91 -11t91 -18.5t79.5 -32.5t56.5 -54t21.5 -83q0 -37 -14.5 -78.5t-52 -76t-102.5 -57t-166 -22.5q-91 0 -150.5 19t-95 50.5t-50 72t-15.5 83.5zM123 942h150l73 -98l72 98h150l-128 -161h-190z" />
    <glyph glyph-name="scaron" unicode="&#x161;" horiz-adv-x="602" 
d="M164 171q4 -42 41 -59.5t99 -17.5q64 0 98 17.5t34 51.5q0 19 -30 26.5t-75 12t-97 10t-97 20t-75 41.5t-30 76q0 36 15.5 61.5t40 43.5t55 28t60.5 16t57 7.5t45 1.5q39 0 84 -8t83 -26t64 -47t29 -70l-127 -14q-5 35 -39.5 49.5t-97.5 14.5q-61 0 -93.5 -13t-32.5 -50
q0 -19 30 -26.5t75 -12t97 -9.5t97 -19t75 -41t30 -75q0 -38 -15.5 -65.5t-41 -45.5t-56.5 -29t-62.5 -17t-59.5 -7.5t-46 -1.5q-16 0 -42.5 2t-56.5 8.5t-60.5 17.5t-55.5 29t-41.5 43t-18.5 60zM74 742h150l73 -98l72 98h150l-128 -161h-190z" />
    <glyph glyph-name="Tcaron" unicode="&#x164;" horiz-adv-x="693" 
d="M673 700v-131h-221q-15 0 -30.5 7t-26.5 18l-2 -2q11 -11 18 -26.5t7 -30.5v-535h-142v569h-256v131h653zM126 942h150l73 -98l72 98h150l-128 -161h-190z" />
    <glyph glyph-name="tcaron" unicode="&#x165;" horiz-adv-x="533" 
d="M40 503q20 0 38.5 15.5t33 40.5t23.5 55t9 60h143q-1 -51 -23.5 -93t-67.5 -66q-14 -8 -32.5 -11.5t-33.5 -5.5v-2q16 2 34 4.5t34 2.5h205v-132h-150v-186q0 -33 15.5 -43.5t39.5 -10.5h119v-131h-140q-52 0 -86 13t-54 38.5t-28.5 63t-8.5 87.5v169h-100v132h30z
M367 678l-1 27l124 63l-42 -161h-60z" />
    <glyph glyph-name="Tbar" unicode="&#x166;" horiz-adv-x="693" 
d="M673 700v-131h-221q-15 0 -30.5 7t-26.5 18l-2 -2q11 -11 18 -26.5t7 -30.5v-535h-142v569h-256v131h653zM158 411h377v-101h-377v101z" />
    <glyph glyph-name="tbar" unicode="&#x167;" horiz-adv-x="432" 
d="M40 503q20 0 38.5 15.5t33 40.5t23.5 55t9 60h143q-1 -51 -23.5 -93t-67.5 -66q-14 -8 -32.5 -11.5t-33.5 -5.5v-2q16 2 34 4.5t34 2.5h205v-132h-150v-186q0 -33 15.5 -43.5t39.5 -10.5h119v-131h-140q-52 0 -86 13t-54 38.5t-28.5 63t-8.5 87.5v169h-100v132h30zM9 301
h377v-101h-377v101z" />
    <glyph glyph-name="Utilde" unicode="&#x168;" horiz-adv-x="731" 
d="M30 315v385h143v-386q0 -45 14.5 -80.5t40.5 -60t61.5 -37.5t77.5 -13q86 0 138.5 48.5t52.5 142.5v386h143v-385q0 -83 -28 -144t-74.5 -100.5t-106.5 -59t-125 -19.5q-69 0 -130.5 18.5t-107.5 57.5t-72.5 100.5t-26.5 146.5zM137 766q9 74 51.5 108.5t110.5 34.5
q30 0 50.5 -9t36 -19.5t29 -19.5t28.5 -10q13 -1 22.5 4.5t16 14t10.5 19t6 20.5l107 -10q-2 -31 -11.5 -58.5t-28.5 -48t-47 -32.5t-67 -11q-32 0 -51.5 8.5t-34.5 19t-28 19.5t-32 10q-32 2 -52.5 -15t-25.5 -40z" />
    <glyph glyph-name="utilde" unicode="&#x169;" horiz-adv-x="619" 
d="M236 -3q-56 0 -95.5 20t-64 56.5t-35.5 88t-11 114.5v229h143v-229q0 -72 32 -104t86 -32q20 0 43.5 7.5t44 27t34 54.5t13.5 89v187h143v-500h-143v115q0 15 2.5 33.5t5.5 33.5h-2q-3 -15 -7 -33t-11 -32q-28 -65 -77.5 -95t-100.5 -30zM79 565q9 74 51.5 108.5
t110.5 34.5q30 0 50.5 -9t36 -19.5t29 -19.5t28.5 -10q13 -1 22.5 4.5t16 14t10.5 19t6 20.5l107 -10q-2 -31 -11.5 -58.5t-28.5 -48t-47 -32.5t-67 -11q-32 0 -51.5 8.5t-34.5 19t-28 19.5t-32 10q-32 2 -52.5 -15t-25.5 -40z" />
    <glyph glyph-name="Umacron" unicode="&#x16a;" horiz-adv-x="731" 
d="M30 315v385h143v-386q0 -45 14.5 -80.5t40.5 -60t61.5 -37.5t77.5 -13q86 0 138.5 48.5t52.5 142.5v386h143v-385q0 -83 -28 -144t-74.5 -100.5t-106.5 -59t-125 -19.5q-69 0 -130.5 18.5t-107.5 57.5t-72.5 100.5t-26.5 146.5zM163 885h404v-91h-404v91z" />
    <glyph glyph-name="umacron" unicode="&#x16b;" horiz-adv-x="619" 
d="M236 -3q-56 0 -95.5 20t-64 56.5t-35.5 88t-11 114.5v229h143v-229q0 -72 32 -104t86 -32q20 0 43.5 7.5t44 27t34 54.5t13.5 89v187h143v-500h-143v115q0 15 2.5 33.5t5.5 33.5h-2q-3 -15 -7 -33t-11 -32q-28 -65 -77.5 -95t-100.5 -30zM107 685h404v-91h-404v91z" />
    <glyph glyph-name="Ubreve" unicode="&#x16c;" horiz-adv-x="731" 
d="M30 315v385h143v-386q0 -45 14.5 -80.5t40.5 -60t61.5 -37.5t77.5 -13q86 0 138.5 48.5t52.5 142.5v386h143v-385q0 -83 -28 -144t-74.5 -100.5t-106.5 -59t-125 -19.5q-69 0 -130.5 18.5t-107.5 57.5t-72.5 100.5t-26.5 146.5zM281 935q0 -16 3.5 -32t12 -29.5t23 -22
t37.5 -8.5q22 0 36.5 8.5t23.5 22t12.5 29.5t3.5 32h112q0 -33 -10 -66t-32.5 -59t-58.5 -42t-87 -16t-87 16t-58.5 42t-32.5 59t-10 66h112z" />
    <glyph glyph-name="ubreve" unicode="&#x16d;" horiz-adv-x="619" 
d="M236 -3q-56 0 -95.5 20t-64 56.5t-35.5 88t-11 114.5v229h143v-229q0 -72 32 -104t86 -32q20 0 43.5 7.5t44 27t34 54.5t13.5 89v187h143v-500h-143v115q0 15 2.5 33.5t5.5 33.5h-2q-3 -15 -7 -33t-11 -32q-28 -65 -77.5 -95t-100.5 -30zM223 735q0 -16 3.5 -32t12 -29.5
t23 -22t37.5 -8.5q22 0 36.5 8.5t23.5 22t12.5 29.5t3.5 32h112q0 -33 -10 -66t-32.5 -59t-58.5 -42t-87 -16t-87 16t-58.5 42t-32.5 59t-10 66h112z" />
    <glyph glyph-name="Uring" unicode="&#x16e;" horiz-adv-x="731" 
d="M30 315v385h143v-386q0 -45 14.5 -80.5t40.5 -60t61.5 -37.5t77.5 -13q86 0 138.5 48.5t52.5 142.5v386h143v-385q0 -83 -28 -144t-74.5 -100.5t-106.5 -59t-125 -19.5q-69 0 -130.5 18.5t-107.5 57.5t-72.5 100.5t-26.5 146.5zM213 850q0 22 11 41.5t30.5 33.5t46 22.5
t56.5 8.5t56 -8.5t45.5 -22.5t30.5 -33.5t11 -41.5t-11 -41.5t-30.5 -33.5t-45.5 -22.5t-56 -8.5t-56.5 8.5t-46 22.5t-30.5 33.5t-11 41.5zM298 850q0 -19 17 -32.5t42 -13.5q23 0 40 13.5t17 32.5t-17 32.5t-40 13.5q-25 0 -42 -13.5t-17 -32.5z" />
    <glyph glyph-name="uring" unicode="&#x16f;" horiz-adv-x="619" 
d="M236 -3q-56 0 -95.5 20t-64 56.5t-35.5 88t-11 114.5v229h143v-229q0 -72 32 -104t86 -32q20 0 43.5 7.5t44 27t34 54.5t13.5 89v187h143v-500h-143v115q0 15 2.5 33.5t5.5 33.5h-2q-3 -15 -7 -33t-11 -32q-28 -65 -77.5 -95t-100.5 -30zM160 650q0 22 11 41.5t30.5 33.5
t46 22.5t56.5 8.5t56 -8.5t45.5 -22.5t30.5 -33.5t11 -41.5t-11 -41.5t-30.5 -33.5t-45.5 -22.5t-56 -8.5t-56.5 8.5t-46 22.5t-30.5 33.5t-11 41.5zM245 650q0 -19 17 -32.5t42 -13.5q23 0 40 13.5t17 32.5t-17 32.5t-40 13.5q-25 0 -42 -13.5t-17 -32.5z" />
    <glyph glyph-name="Uhungarumlaut" unicode="&#x170;" horiz-adv-x="731" 
d="M30 315v385h143v-386q0 -45 14.5 -80.5t40.5 -60t61.5 -37.5t77.5 -13q86 0 138.5 48.5t52.5 142.5v386h143v-385q0 -83 -28 -144t-74.5 -100.5t-106.5 -59t-125 -19.5q-69 0 -130.5 18.5t-107.5 57.5t-72.5 100.5t-26.5 146.5zM434 900h165l-112 -142h-111zM180 758
l58 142h165l-111 -142h-112z" />
    <glyph glyph-name="uhungarumlaut" unicode="&#x171;" horiz-adv-x="619" 
d="M236 -3q-56 0 -95.5 20t-64 56.5t-35.5 88t-11 114.5v229h143v-229q0 -72 32 -104t86 -32q20 0 43.5 7.5t44 27t34 54.5t13.5 89v187h143v-500h-143v115q0 15 2.5 33.5t5.5 33.5h-2q-3 -15 -7 -33t-11 -32q-28 -65 -77.5 -95t-100.5 -30zM378 703h165l-112 -142h-111z
M124 561l58 142h165l-111 -142h-112z" />
    <glyph glyph-name="Uogonek" unicode="&#x172;" horiz-adv-x="731" 
d="M30 315v385h143v-386q0 -45 14.5 -80.5t40.5 -60t61.5 -37.5t77.5 -13q86 0 138.5 48.5t52.5 142.5v386h143v-385q0 -83 -28 -144t-74.5 -100.5t-106.5 -59t-125 -19.5q-69 0 -130.5 18.5t-107.5 57.5t-72.5 100.5t-26.5 146.5zM394 36h84q-26 -29 -38.5 -58.5t-13 -53
t10.5 -38.5t33 -15t51 16l55 -46q-19 -27 -54.5 -41t-73.5 -14q-39 0 -72.5 14.5t-47.5 45.5t-1 78t67 112z" />
    <glyph glyph-name="uogonek" unicode="&#x173;" horiz-adv-x="619" 
d="M236 -3q-56 0 -95.5 20t-64 56.5t-35.5 88t-11 114.5v229h143v-229q0 -72 32 -104t86 -32q20 0 43.5 7.5t44 27t34 54.5t13.5 89v187h143v-500h-143v115q0 15 2.5 33.5t5.5 33.5h-2q-3 -15 -7 -33t-11 -32q-28 -65 -77.5 -95t-100.5 -30zM454 5h84q-26 -29 -38.5 -58.5
t-13 -53t10.5 -38.5t33 -15t51 16l55 -46q-19 -27 -54.5 -41t-73.5 -14q-39 0 -72.5 14.5t-47.5 45.5t-1 78t67 112z" />
    <glyph glyph-name="Wcircumflex" unicode="&#x174;" horiz-adv-x="1097" 
d="M22 700h152l170 -511q5 -17 5 -34h2v17.5t2 17.5l122 510h144l121 -511q2 -8 2.5 -17t-0.5 -17h2q1 8 2.5 17t3.5 16l174 512h152l-240 -700h-180l-106 443q-1 3 -0.5 6t0.5 5h-2q0 -7 -1 -11l-107 -443h-178zM253 781l127 161h190l128 -161h-150l-72 97l-73 -97h-150z
" />
    <glyph glyph-name="wcircumflex" unicode="&#x175;" horiz-adv-x="1001" 
d="M12 500h152l121 -357q5 -14 7 -31.5t3 -32.5l2 1q-1 14 0.5 31.5t6.5 31.5l99 357h232l103 -359q5 -14 6.5 -31.5t0.5 -31.5h2q1 14 3.5 31.5t7.5 31.5l120 359h153l-172 -500h-228l-101 351q-5 17 -7 37.5t-2 37.5h-2q0 -17 -2 -37.5t-7 -37.5l-97 -351h-230zM275 581
l127 161h190l128 -161h-150l-72 97l-73 -97h-150z" />
    <glyph glyph-name="Ycircumflex" unicode="&#x176;" horiz-adv-x="752" 
d="M192 699l163 -226q10 -14 15.5 -33t5.5 -36h2q0 17 5.5 36t15.5 33l162 226h175l-289 -385v-314h-143v314l-287 385h175zM155 781l127 161h190l128 -161h-150l-72 97l-73 -97h-150z" />
    <glyph glyph-name="ycircumflex" unicode="&#x177;" horiz-adv-x="646" 
d="M43 500h157l121 -289q7 -16 10.5 -36t3.5 -37h2q0 17 3.5 37t10.5 36l121 289h155l-243 -571q-16 -42 -39.5 -68.5t-49 -41t-52 -20t-48.5 -5.5h-150v105h75q10 0 27 2t35 7.5t33.5 15t21.5 25.5l20 58zM103 581l127 161h190l128 -161h-150l-72 97l-73 -97h-150z" />
    <glyph glyph-name="Ydieresis" unicode="&#x178;" horiz-adv-x="752" 
d="M192 699l163 -226q10 -14 15.5 -33t5.5 -36h2q0 17 5.5 36t15.5 33l162 226h175l-289 -385v-314h-143v314l-287 385h175zM403 783v117h143v-117h-143zM205 783v117h143v-117h-143z" />
    <glyph glyph-name="Zacute" unicode="&#x179;" horiz-adv-x="724" 
d="M22 0v89l428 453q12 12 28.5 23t32.5 18l-1 2q-15 -7 -35 -11.5t-37 -4.5h-408v131h663v-89l-421 -452q-11 -13 -28 -24t-33 -18l1 -2q16 7 36 11.5t37 4.5h417v-131h-680zM288 758l58 142h161l-102 -142h-117z" />
    <glyph glyph-name="zacute" unicode="&#x17a;" horiz-adv-x="611" 
d="M25 0v117l272 228q14 11 32 20.5t34 14.5v2q-17 -5 -37 -9t-37 -4h-254v131h547v-117l-270 -228q-14 -11 -31.5 -20.5t-34.5 -14.5l1 -2q17 5 37 9t37 4h265v-131h-561zM233 560l58 142h161l-102 -142h-117z" />
    <glyph glyph-name="Zdotaccent" unicode="&#x17b;" horiz-adv-x="724" 
d="M22 0v89l428 453q12 12 28.5 23t32.5 18l-1 2q-15 -7 -35 -11.5t-37 -4.5h-408v131h663v-89l-421 -452q-11 -13 -28 -24t-33 -18l1 -2q16 7 36 11.5t37 4.5h417v-131h-680zM281 781v119h150v-119h-150z" />
    <glyph glyph-name="zdotaccent" unicode="&#x17c;" horiz-adv-x="611" 
d="M25 0v117l272 228q14 11 32 20.5t34 14.5v2q-17 -5 -37 -9t-37 -4h-254v131h547v-117l-270 -228q-14 -11 -31.5 -20.5t-34.5 -14.5l1 -2q17 5 37 9t37 4h265v-131h-561zM232 581v119h150v-119h-150z" />
    <glyph glyph-name="Zcaron" unicode="&#x17d;" horiz-adv-x="724" 
d="M22 0v89l428 453q12 12 28.5 23t32.5 18l-1 2q-15 -7 -35 -11.5t-37 -4.5h-408v131h663v-89l-421 -452q-11 -13 -28 -24t-33 -18l1 -2q16 7 36 11.5t37 4.5h417v-131h-680zM136 942h150l73 -98l72 98h150l-128 -161h-190z" />
    <glyph glyph-name="zcaron" unicode="&#x17e;" horiz-adv-x="611" 
d="M25 0v117l272 228q14 11 32 20.5t34 14.5v2q-17 -5 -37 -9t-37 -4h-254v131h547v-117l-270 -228q-14 -11 -31.5 -20.5t-34.5 -14.5l1 -2q17 5 37 9t37 4h265v-131h-561zM93 742h150l73 -98l72 98h150l-128 -161h-190z" />
    <glyph glyph-name="uni0218" unicode="&#x218;" horiz-adv-x="699" 
d="M165 227q3 -51 49 -75t121 -25q91 -2 143 21t52 74q0 24 -21.5 37.5t-56.5 21.5t-79.5 13.5t-91 12.5t-91 18.5t-79.5 32t-56.5 52.5t-21.5 81q0 59 25.5 101t68.5 68.5t100 38.5t120 11t116.5 -13.5t93 -38t63 -65t26.5 -93.5l-135 -7q-4 45 -43.5 65.5t-120.5 20.5
q-82 0 -126.5 -22.5t-44.5 -64.5q0 -22 21.5 -34t56.5 -19t79.5 -11t91 -11t91 -18.5t79.5 -32.5t56.5 -54t21.5 -83q0 -37 -14.5 -78.5t-52 -76t-102.5 -57t-166 -22.5q-91 0 -150.5 19t-95 50.5t-50 72t-15.5 83.5zM240 -192l58 142h113l-77 -142h-94z" />
    <glyph glyph-name="uni0219" unicode="&#x219;" horiz-adv-x="601" 
d="M164 171q4 -42 41 -59.5t99 -17.5q64 0 98 17.5t34 51.5q0 19 -30 26.5t-75 12t-97 10t-97 20t-75 41.5t-30 76q0 36 15.5 61.5t40 43.5t55 28t60.5 16t57 7.5t45 1.5q39 0 84 -8t83 -26t64 -47t29 -70l-127 -14q-5 35 -39.5 49.5t-97.5 14.5q-61 0 -93.5 -13t-32.5 -50
q0 -19 30 -26.5t75 -12t97 -9.5t97 -19t75 -41t30 -75q0 -38 -15.5 -65.5t-41 -45.5t-56.5 -29t-62.5 -17t-59.5 -7.5t-46 -1.5q-16 0 -42.5 2t-56.5 8.5t-60.5 17.5t-55.5 29t-41.5 43t-18.5 60zM198 -192l58 142h113l-77 -142h-94z" />
    <glyph glyph-name="uni021A" unicode="&#x21a;" horiz-adv-x="693" 
d="M673 700v-131h-221q-15 0 -30.5 7t-26.5 18l-2 -2q11 -11 18 -26.5t7 -30.5v-535h-142v569h-256v131h653zM248 -192l58 142h113l-77 -142h-94z" />
    <glyph glyph-name="uni021B" unicode="&#x21b;" horiz-adv-x="449" 
d="M49 503q20 0 38.5 15.5t33 40.5t23.5 55t9 60h143q-1 -51 -23.5 -93t-67.5 -66q-14 -8 -32.5 -11.5t-33.5 -5.5v-2q16 2 34 4.5t34 2.5h205v-132h-150v-186q0 -33 15.5 -43.5t39.5 -10.5h119v-131h-140q-52 0 -86 13t-54 38.5t-28.5 63t-8.5 87.5v169h-100v132h30z
M165 -192l58 142h113l-77 -142h-94z" />
    <glyph glyph-name="circumflex" unicode="&#x2c6;" horiz-adv-x="447" 
d="M174 700h99l159 -191h-135l-73 83l-72 -83h-136z" />
    <glyph glyph-name="caron" unicode="&#x2c7;" horiz-adv-x="432" 
d="M120 560l-72 140l142 -36l73 -10l67 46l47 -51l-139 -140z" />
    <glyph glyph-name="uni02C9" unicode="&#x2c9;" horiz-adv-x="377" 
d="M30 644h316v-108h-316v108z" />
    <glyph glyph-name="breve" unicode="&#x2d8;" horiz-adv-x="409" 
d="M204 541q-51 0 -87 16t-58 42.5t-32 59.5t-10 66h111q0 -15 3.5 -31t12 -29.5t23.5 -22.5t37 -9q23 0 37.5 9t23 22.5t12 29.5t3.5 31h112q0 -33 -10 -66t-32.5 -59.5t-58.5 -42.5t-87 -16z" />
    <glyph glyph-name="dotaccent" unicode="&#x2d9;" horiz-adv-x="170" 
d="M10 580v120h150v-120h-150z" />
    <glyph glyph-name="ring" unicode="&#x2da;" horiz-adv-x="314" 
d="M14 650q0 22 11 41.5t30.5 33.5t46 22.5t56.5 8.5t56 -8.5t45.5 -22.5t30.5 -33.5t11 -41.5t-11 -41.5t-30.5 -33.5t-45.5 -22.5t-56 -8.5t-56.5 8.5t-46 22.5t-30.5 33.5t-11 41.5zM108 650q0 -15 14.5 -26t35.5 -11q20 0 34 11t14 26t-14 26t-34 11q-21 0 -35.5 -11
t-14.5 -26z" />
    <glyph glyph-name="ogonek" unicode="&#x2db;" horiz-adv-x="235" 
d="M76 4h84q-18 -20 -31.5 -48t-17.5 -53.5t5 -43.5t34 -18q20 0 50 13l58 -45q-19 -27 -54.5 -41t-73.5 -14q-39 0 -72.5 14.5t-47.5 45.5t-1 78t67 112z" />
    <glyph glyph-name="tilde" unicode="&#x2dc;" horiz-adv-x="490" 
d="M11 596q10 74 49.5 110.5t114.5 34.5q30 0 49.5 -9t34.5 -19.5t27.5 -19t27.5 -9.5q13 -1 22 4t14.5 13t9 18t5.5 20l110 -7q-2 -31 -12 -58.5t-29 -48t-48 -32.5t-68 -11q-31 0 -50.5 8.5t-34.5 19t-28.5 19.5t-32.5 10q-32 2 -49 -16.5t-22 -41.5z" />
    <glyph glyph-name="hungarumlaut" unicode="&#x2dd;" horiz-adv-x="405" 
d="M256 700h165l-111 -142h-112zM-4 558l58 142h164l-111 -142h-111z" />
    <glyph glyph-name="gravecomb" unicode="&#x300;" horiz-adv-x="0" 
d="M22 558h-122l-103 142h166z" />
    <glyph glyph-name="acutecomb" unicode="&#x301;" horiz-adv-x="0" 
d="M-162 558l58 142h161l-102 -142h-117z" />
    <glyph glyph-name="uni0302" unicode="&#x302;" horiz-adv-x="0" 
d="M-420 581l127 161h190l128 -161h-150l-72 97l-73 -97h-150z" />
    <glyph glyph-name="tildecomb" unicode="&#x303;" horiz-adv-x="0" 
d="M-432 596q9 74 51.5 108.5t110.5 34.5q30 0 50.5 -9t36 -19.5t29 -19.5t28.5 -10q13 -1 22.5 4.5t16 14t10.5 19t6 20.5l107 -10q-2 -31 -11.5 -58.5t-28.5 -48t-47 -32.5t-67 -11q-32 0 -51.5 8.5t-34.5 19t-28 19.5t-32 10q-32 2 -52.5 -15t-25.5 -40z" />
    <glyph glyph-name="uni0304" unicode="&#x304;" horiz-adv-x="0" 
d="M-362 685h404v-91h-404v91z" />
    <glyph glyph-name="uni0306" unicode="&#x306;" horiz-adv-x="0" 
d="M-249 735q0 -16 3.5 -32t12 -29.5t23 -22t37.5 -8.5q22 0 36.5 8.5t23.5 22t12.5 29.5t3.5 32h112q0 -33 -10 -66t-32.5 -59t-58.5 -42t-87 -16t-87 16t-58.5 42t-32.5 59t-10 66h112z" />
    <glyph glyph-name="uni0307" unicode="&#x307;" horiz-adv-x="0" 
d="M-134 581v119h150v-119h-150z" />
    <glyph glyph-name="uni0308" unicode="&#x308;" horiz-adv-x="0" 
d="M-99 583v117h143v-117h-143zM-297 583v117h143v-117h-143z" />
    <glyph glyph-name="uni030A" unicode="&#x30a;" horiz-adv-x="0" 
d="M-255 650q0 22 11 41.5t30.5 33.5t46 22.5t56.5 8.5t56 -8.5t45.5 -22.5t30.5 -33.5t11 -41.5t-11 -41.5t-30.5 -33.5t-45.5 -22.5t-56 -8.5t-56.5 8.5t-46 22.5t-30.5 33.5t-11 41.5zM-170 650q0 -19 17 -32.5t42 -13.5q23 0 40 13.5t17 32.5t-17 32.5t-40 13.5
q-25 0 -42 -13.5t-17 -32.5z" />
    <glyph glyph-name="uni030B" unicode="&#x30b;" horiz-adv-x="0" 
d="M-120 700h165l-112 -142h-111zM-374 558l58 142h165l-111 -142h-112z" />
    <glyph glyph-name="uni030C" unicode="&#x30c;" horiz-adv-x="0" 
d="M-420 742h150l73 -98l72 98h150l-128 -161h-190z" />
    <glyph glyph-name="uni0326" unicode="&#x326;" horiz-adv-x="0" 
d="M-241 -192l58 142h113l-77 -142h-94z" />
    <glyph glyph-name="uni0327" unicode="&#x327;" horiz-adv-x="0" 
d="M-261 -169q13 -21 38 -32t51 -11t45.5 12.5t20.5 40.5q0 18 -15 27.5t-36.5 13t-44 4t-37.5 0.5l16 40l27 78h115l-34 -68q42 0 68.5 -23.5t26.5 -75.5q0 -33 -12.5 -56.5t-33 -39t-46.5 -22.5t-54 -7q-44 0 -84 16.5t-60 46.5z" />
    <glyph glyph-name="uni0328" unicode="&#x328;" horiz-adv-x="0" 
d="M-179 4h84q-26 -29 -38.5 -58.5t-13 -53t10.5 -38.5t33 -15t51 16l55 -46q-19 -27 -54.5 -41t-73.5 -14q-39 0 -72.5 14.5t-47.5 45.5t-1 78t67 112z" />
    <glyph glyph-name="uni03BC" unicode="&#x3bc;" horiz-adv-x="592" 
d="M30 -132v45.5v70v79.5v75v56.5v23.5v282h143v-179q0 -88 26.5 -130t89.5 -42q11 0 33 9.5t43.5 32.5t37.5 62.5t16 99.5v147h143v-500h-143v77q0 15 2 33.5t6 33.5l-2 1q-4 -15 -8.5 -33t-11.5 -32q-23 -46 -53.5 -67t-77.5 -21q-32 0 -58.5 15t-42.5 52v-191h-143z" />
    <glyph glyph-name="Wgrave" unicode="&#x1e80;" horiz-adv-x="1097" 
d="M22 700h152l170 -511q5 -17 5 -34h2v17.5t2 17.5l122 510h144l121 -511q2 -8 2.5 -17t-0.5 -17h2q1 8 2.5 17t3.5 16l174 512h152l-240 -700h-180l-106 443q-1 3 -0.5 6t0.5 5h-2q0 -7 -1 -11l-107 -443h-178zM607 758h-122l-103 142h166z" />
    <glyph glyph-name="wgrave" unicode="&#x1e81;" horiz-adv-x="995" 
d="M6 500h152l121 -357q5 -14 7 -31.5t3 -32.5l2 1q-1 14 0.5 31.5t6.5 31.5l99 357h232l103 -359q5 -14 6.5 -31.5t0.5 -31.5h2q1 14 3.5 31.5t7.5 31.5l120 359h153l-172 -500h-228l-101 351q-5 17 -7 37.5t-2 37.5h-2q0 -17 -2 -37.5t-7 -37.5l-97 -351h-230zM583 558
h-122l-103 142h166z" />
    <glyph glyph-name="Wacute" unicode="&#x1e82;" horiz-adv-x="1097" 
d="M22 700h152l170 -511q5 -17 5 -34h2v17.5t2 17.5l122 510h144l121 -511q2 -8 2.5 -17t-0.5 -17h2q1 8 2.5 17t3.5 16l174 512h152l-240 -700h-180l-106 443q-1 3 -0.5 6t0.5 5h-2q0 -7 -1 -11l-107 -443h-178zM453 758l58 142h161l-102 -142h-117z" />
    <glyph glyph-name="wacute" unicode="&#x1e83;" horiz-adv-x="995" 
d="M6 500h152l121 -357q5 -14 7 -31.5t3 -32.5l2 1q-1 14 0.5 31.5t6.5 31.5l99 357h232l103 -359q5 -14 6.5 -31.5t0.5 -31.5h2q1 14 3.5 31.5t7.5 31.5l120 359h153l-172 -500h-228l-101 351q-5 17 -7 37.5t-2 37.5h-2q0 -17 -2 -37.5t-7 -37.5l-97 -351h-230zM412 558
l58 142h161l-102 -142h-117z" />
    <glyph glyph-name="Wdieresis" unicode="&#x1e84;" horiz-adv-x="1097" 
d="M22 700h152l170 -511q5 -17 5 -34h2v17.5t2 17.5l122 510h144l121 -511q2 -8 2.5 -17t-0.5 -17h2q1 8 2.5 17t3.5 16l174 512h152l-240 -700h-180l-106 443q-1 3 -0.5 6t0.5 5h-2q0 -7 -1 -11l-107 -443h-178zM568 783v117h143v-117h-143zM370 783v117h143v-117h-143z
" />
    <glyph glyph-name="wdieresis" unicode="&#x1e85;" horiz-adv-x="989" 
d="M6 500h152l121 -357q5 -14 7 -31.5t3 -32.5l2 1q-1 14 0.5 31.5t6.5 31.5l99 357h232l103 -359q5 -14 6.5 -31.5t0.5 -31.5h2q1 14 3.5 31.5t7.5 31.5l120 359h153l-172 -500h-228l-101 351q-5 17 -7 37.5t-2 37.5h-2q0 -17 -2 -37.5t-7 -37.5l-97 -351h-230zM526 583
v117h143v-117h-143zM328 583v117h143v-117h-143z" />
    <glyph glyph-name="endash" unicode="&#x2013;" horiz-adv-x="610" 
d="M30 355h550v-143h-550v143z" />
    <glyph glyph-name="emdash" unicode="&#x2014;" horiz-adv-x="910" 
d="M30 371h850v-143h-850v143z" />
    <glyph glyph-name="quoteleft" unicode="&#x2018;" horiz-adv-x="198" 
d="M20 653l10 47h148l-68 -263h-90v216z" />
    <glyph glyph-name="quoteright" unicode="&#x2019;" horiz-adv-x="198" 
d="M27 590l-1 27l124 63l-42 -161h-60z" />
    <glyph glyph-name="quotesinglbase" unicode="&#x201a;" horiz-adv-x="221" 
d="M187 131v-139q0 -61 -28.5 -88t-103.5 -27h-22v55h22q42 0 58 17t16 43h-96v139h154z" />
    <glyph glyph-name="quotedblleft" unicode="&#x201c;" horiz-adv-x="395" 
d="M33 584q0 61 28.5 88t103.5 27h22v-55h-22q-42 0 -58 -17t-16 -43h96v-139h-154v139zM207 584q0 61 28.5 88t103.5 27h22v-55h-22q-42 0 -58 -17t-16 -43h96v-139h-154v139z" />
    <glyph glyph-name="quotedblright" unicode="&#x201d;" horiz-adv-x="391" 
d="M361 699v-138q0 -30 -6.5 -52t-21.5 -36.5t-40.5 -21t-63.5 -6.5h-22v56h22q42 0 58.5 17t16.5 43h-97v138h154zM55 501q42 0 58 17t16 43h-96v138h154v-138q0 -61 -28.5 -88.5t-103.5 -27.5h-22v56h22z" />
    <glyph glyph-name="quotedblbase" unicode="&#x201e;" horiz-adv-x="430" 
d="M53 -121v56h22q42 0 58 16.5t16 42.5h-96v139h154v-139q0 -61 -28.5 -88t-103.5 -27h-22zM381 133v-139q0 -61 -28.5 -88t-103.5 -27h-22v56h22q42 0 58 16.5t16 42.5h-96v139h154z" />
    <glyph glyph-name="dagger" unicode="&#x2020;" horiz-adv-x="334" 
d="M98 627v73h142l1 -73h78v-125h-78l-1 -158h-142v158h-82v125h82z" />
    <glyph glyph-name="daggerdbl" unicode="&#x2021;" horiz-adv-x="385" 
d="M121 479v45h-97v109h97v67h143v-67h97v-109h-97v-45h97v-109h-97v-81h-143v81h-97v109h97z" />
    <glyph glyph-name="bullet" unicode="&#x2022;" horiz-adv-x="410" 
d="M20 273q0 38 14.5 72t39.5 59t59 39.5t72 14.5t72 -14.5t59 -39.5t39.5 -59t14.5 -72q0 -39 -14.5 -72.5t-39.5 -58.5t-59 -39.5t-72 -14.5t-72 14.5t-59 39.5t-39.5 58.5t-14.5 72.5z" />
    <glyph glyph-name="ellipsis" unicode="&#x2026;" horiz-adv-x="717" 
d="M167 163v-136h-147v136h147zM277 163h147v-136h-147v136zM535 163h147v-136h-147v136z" />
    <glyph glyph-name="perthousand" unicode="&#x2030;" horiz-adv-x="1211" 
d="M208 410q-59 0 -98 21.5t-58.5 53.5t-19.5 70t19.5 70t58.5 53.5t98 21.5t98.5 -21.5t59 -53.5t19.5 -70t-19.5 -70t-59 -53.5t-98.5 -21.5zM597 700h189l-562 -700h-189zM208 493q34 0 51 19.5t17 42.5t-17 42.5t-51 19.5t-50.5 -19.5t-16.5 -42.5t16.5 -42.5
t50.5 -19.5zM616 0q-59 0 -98 21.5t-58.5 53.5t-19.5 70t19.5 70t58.5 53.5t98 21.5t98.5 -21.5t59 -53.5t19.5 -70t-19.5 -70t-59 -53.5t-98.5 -21.5zM616 83q34 0 51 19.5t17 42.5t-17 42.5t-51 19.5t-50.5 -19.5t-16.5 -42.5t16.5 -42.5t50.5 -19.5zM1011 0
q-59 0 -98 21.5t-58.5 53.5t-19.5 70t19.5 70t58.5 53.5t98 21.5t98 -21.5t58.5 -53.5t19.5 -70t-19.5 -70t-58.5 -53.5t-98 -21.5zM1011 83q34 0 51 19.5t17 42.5t-17 42.5t-51 19.5t-51 -19.5t-17 -42.5t17 -42.5t51 -19.5z" />
    <glyph glyph-name="guilsinglleft" unicode="&#x2039;" horiz-adv-x="320" 
d="M305 493v-145l-117 -72l117 -72v-144l-290 165v103z" />
    <glyph glyph-name="guilsinglright" unicode="&#x203a;" horiz-adv-x="320" 
d="M305 328v-103l-290 -165v144l117 72l-117 73v144z" />
    <glyph glyph-name="fraction" unicode="&#x2044;" horiz-adv-x="664" 
d="M478 700h171l-463 -700h-171z" />
    <glyph glyph-name="Euro" unicode="&#x20ac;" horiz-adv-x="812" 
d="M427 -7q-86 0 -160 21.5t-128.5 65.5t-85.5 111.5t-31 158.5t31 158.5t85.5 112t128.5 66t160 20.5q121 -2 216.5 -43.5t146.5 -127.5l-131 -59q-17 29 -42 49t-55.5 32.5t-65 18.5t-70.5 6q-39 0 -74.5 -5.5t-65.5 -18.5t-51.5 -34t-32.5 -51h241l-18 -83h-255
q-4 -14 -3.5 -29.5t2.5 -32.5h264l-14 -81h-217q18 -58 76.5 -92.5t147.5 -33.5q88 0 144.5 25.5t88.5 76.5l131 -60q-51 -86 -146.5 -128t-216.5 -43z" />
    <glyph glyph-name="trademark" unicode="&#x2122;" horiz-adv-x="416" 
d="M186 700h53l51 -82l51 82h54v-140l-51 -1v58l-37 -58h-34l-36 58v-58h-51v141zM21 700h151v-53h-50v-87h-50v87h-51v53z" />
    <glyph glyph-name="arrowleft" unicode="&#x2190;" horiz-adv-x="769" 
d="M365 688l85 -86l-174 -174h459v-142h-459l174 -177l-84 -82l-331 330z" />
    <glyph glyph-name="arrowup" unicode="&#x2191;" horiz-adv-x="730" 
d="M695 378l-86 -84l-173 174v-460h-143v460l-176 -174l-83 84l331 331z" />
    <glyph glyph-name="arrowright" unicode="&#x2192;" horiz-adv-x="769" 
d="M404 27l-84 86l173 173h-459v143h459l-174 176l84 83l331 -331z" />
    <glyph glyph-name="arrowdown" unicode="&#x2193;" horiz-adv-x="730" 
d="M34 339l86 84l174 -174v460h142v-460l177 175l82 -85l-330 -331z" />
    <glyph glyph-name="arrowboth" unicode="&#x2194;" horiz-adv-x="1012" 
d="M658 670l328 -328l-327 -327l-85 84l174 173h-484l172 -173l-82 -83l-328 327l327 327l83 -83l-172 -174l484 -1l-173 175z" />
    <glyph glyph-name="arrowupdn" unicode="&#x2195;" horiz-adv-x="710" 
d="M27 458l328 327l327 -327l-84 -84l-173 173v-472l172 173l84 -83l-327 -328l-328 328l84 83l174 -173l1 473l-175 -173z" />
    <glyph glyph-name="uni2196" unicode="&#x2196;" horiz-adv-x="620" 
d="M505 616l-2 -120h-245l325 -325l-101 -101l-325 325l-1 -248l-118 1v468h467z" />
    <glyph glyph-name="uni2197" unicode="&#x2197;" horiz-adv-x="621" 
d="M584 139l-121 1v246l-324 -325l-101 101l325 324l-248 2l1 118h468v-467z" />
    <glyph glyph-name="uni2198" unicode="&#x2198;" horiz-adv-x="620" 
d="M115 53l1 121l246 -1l-325 325l101 101l324 -325l2 248l118 -1v-468h-467z" />
    <glyph glyph-name="uni2199" unicode="&#x2199;" horiz-adv-x="621" 
d="M35 524l121 -1v-246l324 325l101 -101l-325 -325l248 -1l-1 -118h-468v467z" />
    <glyph glyph-name="partialdiff" unicode="&#x2202;" horiz-adv-x="660" 
d="M250 4q-48 6 -93 24.5t-77.5 51t-47.5 78.5t-5 106q9 52 35 90t63 62.5t81.5 36.5t90.5 12q49 0 95.5 -13t82.5 -38.5t57 -62t19 -83.5q14 65 5 115.5t-32.5 87.5t-58.5 62.5t-73.5 41t-77.5 21.5t-71 6l43 100q92 -5 165 -33t119 -80.5t61.5 -131t-8.5 -185.5
q-15 -72 -45 -123.5t-70.5 -84.5t-90.5 -48.5t-107 -15.5q-15 0 -30 1t-30 3zM179 265q-7 -32 1.5 -59.5t29.5 -49.5t53.5 -36.5t73.5 -20.5q28 -3 60.5 3.5t61.5 22.5t51 40t29 56t-5.5 60t-36 49.5t-52.5 36.5t-56 19q-36 6 -70.5 -0.5t-63 -22.5t-49 -41t-27.5 -57z" />
    <glyph glyph-name="emptyset" unicode="&#x2205;" horiz-adv-x="802" 
d="M32 343q0 65 29 122.5t79 100.5t117.5 68t143.5 25q77 0 144 -25t117 -68t79 -100.5t29 -122.5q0 -66 -29 -124t-79 -101t-117 -68t-144 -25q-76 0 -143.5 25t-117.5 68t-79 101t-29 124zM400 543q-47 0 -89 -16t-73 -43t-49 -63.5t-18 -78.5q0 -33 10 -53t20 -34
l294 262q-15 9 -36.5 17.5t-58.5 8.5zM309 165q14 -8 33.5 -16t56.5 -8q47 0 89 15.5t73.5 43t50 64t16.5 78.5q-2 33 -8.5 52t-16.5 33z" />
    <glyph glyph-name="product" unicode="&#x220f;" horiz-adv-x="805" 
d="M15 700h775v-131h-179v-569h-142v569h-130v-569h-141v569h-183v131z" />
    <glyph glyph-name="summation" unicode="&#x2211;" horiz-adv-x="633" 
d="M30 0l177 358l-177 358h579v-121h-370l117 -237l-117 -238h370v-120h-579z" />
    <glyph glyph-name="minus" unicode="&#x2212;" horiz-adv-x="568" 
d="M30 360h508v-131h-508v131z" />
    <glyph glyph-name="radical" unicode="&#x221a;" horiz-adv-x="914" 
d="M891 424h-169l-38 63l-321 -607h-151l-196 322h162l93 -181l330 624h148z" />
    <glyph glyph-name="infinity" unicode="&#x221e;" horiz-adv-x="883" 
d="M211 131q-39 0 -73 12t-59.5 35t-40.5 55.5t-15 73.5t15 73.5t40.5 55.5t59.5 35t73 12q35 0 66 -9.5t59.5 -25t54 -34.5t49.5 -39q24 19 50 38.5t54.5 35t59.5 25t66 9.5q39 0 73 -12.5t59.5 -35t40 -55t14.5 -73.5t-14.5 -74t-40 -55.5t-59.5 -34.5t-73 -12
q-35 0 -66.5 8.5t-59.5 23t-54 33t-50 38.5q-24 -20 -49.5 -38.5t-53.5 -33t-59.5 -23t-66.5 -8.5zM653 378q-20 0 -38 -6.5t-35 -17t-33 -23.5t-33 -26q35 -29 66.5 -49t73.5 -20q34 0 56 16.5t22 54.5t-22 54.5t-57 16.5zM226 377q-33 0 -55 -16.5t-22 -53.5
q0 -36 22.5 -53.5t54.5 -17.5q41 0 72 20.5t64 48.5q-16 13 -32 25.5t-32.5 23t-34 17t-37.5 6.5z" />
    <glyph glyph-name="integral" unicode="&#x222b;" horiz-adv-x="503" 
d="M65 1q30 0 38 17t13 55l80 589q5 37 12.5 66.5t23.5 50.5t43.5 32t71.5 11h132v-126h-64q-23 0 -36.5 -10.5t-21 -26.5t-11 -36t-6.5 -39l-75 -549q-4 -37 -9.5 -66.5t-17 -50.5t-31 -32t-51.5 -11h-132v126h41z" />
    <glyph glyph-name="approxequal" unicode="&#x2248;" horiz-adv-x="671" 
d="M199 288q42 4 72 -8t54.5 -27.5t46.5 -28t48 -10.5q17 1 30 8t22 17.5t13 23.5t3 25l163 10q3 -43 -8.5 -81t-36.5 -67.5t-63 -48.5t-86 -23q-39 -2 -68.5 11.5t-54.5 29.5t-48.5 27t-52.5 4q-12 -3 -22 -10.5t-17 -18t-11 -22.5t-3 -23l-153 -10q-5 37 5.5 75t33.5 69.5
t57 53t76 24.5zM199 531q42 4 72 -8t54.5 -27.5t46.5 -28.5t48 -10q17 1 30 8t22 17.5t13 23.5t3 25l163 10q3 -43 -8.5 -81t-36.5 -67.5t-63 -48.5t-86 -23q-39 -2 -68.5 11.5t-54.5 29.5t-48.5 27t-52.5 4q-23 -6 -39 -28.5t-14 -45.5l-153 -10q-5 36 5.5 74t33.5 69.5
t57 53t76 25.5z" />
    <glyph glyph-name="notequal" unicode="&#x2260;" horiz-adv-x="607" 
d="M30 138v131h186l31 65h-217v132h291l65 114h124l-66 -114h132v-132h-199l-30 -65h229v-131h-301l-56 -100h-123l56 100h-122z" />
    <glyph glyph-name="lessequal" unicode="&#x2264;" horiz-adv-x="366" 
d="M350 562v-143l-159 -74l159 -75v-142l-334 166v102zM15 90h336v-132h-336v132z" />
    <glyph glyph-name="greaterequal" unicode="&#x2265;" horiz-adv-x="366" 
d="M175 345l-159 74v143l334 -166v-102l-334 -166v142zM351 90v-132h-336v132h336z" />
    <glyph glyph-name="lozenge" unicode="&#x25ca;" horiz-adv-x="482" 
d="M293 547l169 -220l-169 -220h-104l-169 220l169 220h104zM241 202l90 125l-90 125l-90 -125z" />
    <glyph glyph-name="f_f" unicode="&#xfb00;" horiz-adv-x="617" 
d="M161 503q-6 0 -22 3t-32 11.5t-28.5 22.5t-12.5 36q0 36 20.5 60t56.5 38t85.5 20t108.5 6v-110q-69 0 -113 -9.5t-44 -32.5q0 -12 8 -20.5t20.5 -14t27.5 -8t29 -2.5h185q-5 0 -21.5 5.5t-34.5 19t-31.5 36t-12.5 56.5q5 129 256 139v-120q-79 3 -110.5 -15t-34.5 -50
q-2 -19 7 -32.5t22.5 -22t29.5 -12.5t28 -4h58v-132h-87v-371h-143v371h-138v-371h-142v371h-86v132h151z" />
    <glyph glyph-name="fi" unicode="&#xfb01;" horiz-adv-x="599" 
d="M10 503h108q-6 0 -15 5t-17 14.5t-14 23t-6 30.5q0 28 19.5 51.5t52 40t74.5 25.5t87 9q39 0 77 -7t72.5 -22.5t63 -39.5t46.5 -58l-119 -23q-29 33 -64.5 47.5t-67.5 14.5q-33 0 -55.5 -13.5t-22.5 -35.5q0 -17 6.5 -29t17 -19.5t24.5 -10.5t28 -3h58v-132h-106v-371
h-143v371h-104v132zM560 500v-500h-143v500h143z" />
    <glyph glyph-name="f_f_i" unicode="&#xfb03;" horiz-adv-x="895" 
d="M425 503q-6 0 -15 6t-17 16.5t-14 25t-6 31.5q0 29 21.5 52.5t56.5 41t79.5 27t91.5 9.5q38 0 75.5 -7t70.5 -22t58.5 -39t40.5 -57l-119 -23q-26 34 -59.5 48t-64.5 14q-37 0 -62.5 -16t-25.5 -39q0 -34 24 -51t52 -17h58v-132h-106v-371h-142v371h-103v132h106zM96 371
h-86v132h151q-6 0 -22 4t-32 13.5t-28.5 24.5t-12.5 37q0 55 49 87t134 32q52 0 117 -14l-11 -105q-52 13 -91 13q-43 0 -63.5 -12.5t-20.5 -28.5q0 -12 8 -21t20.5 -16t27.5 -10.5t29 -3.5h54v-132h-81v-371h-142v371zM724 0v500h143v-500h-143z" />
    <glyph glyph-name="quotedblleft.001" horiz-adv-x="413" 
d="M217 437v216l10 47h148l-68 -263h-90zM20 653l10 47h148l-68 -263h-90v216z" />
    <glyph glyph-name="quotedblright.001" horiz-adv-x="413" 
d="M235 700h148l10 -47v-216h-90zM38 700h148l10 -47v-216h-90z" />
    </font>
</defs>
</svg>
