<svg width="449" height="150" viewBox="0 0 449 150" fill="none" xmlns="http://www.w3.org/2000/svg">
<path d="M331.319 59.73L322.91 74.508L291.727 0.0609643L249.266 74.5515L239.834 52.1625L217.907 0L184.099 59.7039L184.082 59.73H18.9515L0 92.9869H203.628L213.471 75.6139L244.725 149.956L287.134 75.553L318.299 150L350.795 92.9869H449L430.04 59.73H331.319Z" fill="#00FFFF"/>
<path d="M331.319 59.73L322.91 74.508L291.727 0.0609643L249.266 74.5515L239.834 52.1625L217.907 0L184.099 59.7039L184.082 59.73H18.9515L0 92.9869H203.628L213.471 75.6139L244.725 149.956L287.134 75.553L318.299 150L350.795 92.9869H449L430.04 59.73H331.319Z" fill="url(#paint0_linear_34_513)" fill-opacity="0.8"/>
<defs>
<linearGradient id="paint0_linear_34_513" x1="506.029" y1="74.7606" x2="219.045" y2="74.7606" gradientUnits="userSpaceOnUse">
<stop offset="0.450291"/>
<stop offset="1" stop-opacity="0"/>
</linearGradient>
</defs>
</svg>
