<svg width="64" height="74" viewBox="0 0 64 74" fill="none" xmlns="http://www.w3.org/2000/svg">
<path d="M17.5027 28.6878C16.6965 28.7012 15.8955 28.5557 15.1454 28.2595C14.3954 27.9634 13.7111 27.5224 13.1315 26.9618C11.9609 25.8296 11.288 24.2787 11.2609 22.6504C11.2338 21.022 11.8547 19.4496 12.9869 18.2791C14.1192 17.1085 15.67 16.4357 17.2983 16.4086H17.5027C19.098 16.4313 20.6218 17.0742 21.7513 18.201C22.8808 19.3278 23.5273 20.8501 23.5539 22.4453C23.5805 24.0405 22.985 25.5834 21.8936 26.7472C20.8023 27.911 19.3008 28.6043 17.7071 28.6802H17.5027M21.7497 5H13.2557V8.26283C12.2667 8.55151 11.3122 8.94757 10.4093 9.44386L9.54624 8.55809L8.13816 7.14243L6.7225 8.55809L3.54293 11.7377L2.13485 13.1457L3.54293 14.5614L4.43623 15.4547C3.94494 16.36 3.54915 17.314 3.25526 18.3012H0V26.7952H3.25526C3.55053 27.7819 3.94626 28.7357 4.43623 29.6416L3.48994 30.5349L2.08186 31.943L3.48994 33.3587L6.66951 36.5382L8.08516 37.9463L9.49324 36.5382L10.3865 35.6449C11.2982 36.1494 12.2598 36.5578 13.2557 36.8638V40.119H21.7497V36.8638C22.7369 36.5699 23.6909 36.1741 24.5962 35.6828L25.4895 36.5761L26.9051 37.9842L28.3132 36.5761L31.4928 33.3965L32.9084 31.9809L31.5004 30.5349L30.6071 29.6416C31.1033 28.7387 31.4994 27.7842 31.788 26.7952H35.0509V18.3012H31.788C31.5007 17.3116 31.1047 16.357 30.6071 15.4547L31.5004 14.5614L32.916 13.1457L31.5004 11.7377L28.3208 8.55809L26.9127 7.14243L25.497 8.55809L24.6037 9.45139C23.7015 8.95377 22.7468 8.5577 21.7573 8.27041V5.00758L21.7497 5ZM17.5027 30.6712H17.7677C19.8878 30.5819 21.8893 29.6681 23.3454 28.1244C24.8015 26.5808 25.597 24.5295 25.5624 22.4077C25.5279 20.286 24.6659 18.2616 23.1604 16.7662C21.6548 15.2708 19.6247 14.4226 17.5027 14.4024H17.2377C16.17 14.4198 15.1162 14.6473 14.1364 15.072C13.1566 15.4967 12.2701 16.1102 11.5274 16.8775C10.0274 18.4271 9.20448 20.5091 9.23962 22.6655C9.27476 24.8219 10.1651 26.876 11.7147 28.3759C13.2644 29.8759 15.3464 30.6988 17.5027 30.6636M19.7738 6.99101V9.82991C21.6231 10.1559 23.378 10.8848 24.9141 11.9648L26.9279 9.95106L30.1074 13.1306L28.0937 15.1443C29.175 16.6797 29.904 18.4349 30.2285 20.2846H33.0144V24.7814H30.1755C29.8495 26.6307 29.1207 28.3856 28.0407 29.9217L30.0544 31.9279L26.8749 35.115L24.8611 33.1013C23.3263 34.1821 21.5706 34.9087 19.7208 35.2286V38.075H15.224V35.2286C13.3743 34.9087 11.6186 34.1821 10.0838 33.1013L8.07759 35.115L4.89044 31.9279L6.90419 29.9217C5.82335 28.3869 5.09677 26.6312 4.77691 24.7814H1.97586V20.2846H4.82233C5.14097 18.4345 5.86765 16.6786 6.94961 15.1443L4.93586 13.1306L8.12301 9.95106L10.1292 11.9648C11.6653 10.8848 13.4202 10.1559 15.2694 9.82991V6.99101H19.7738Z" fill="#00FFFF"/>
<path d="M46.467 57.0615C44.8717 57.0388 43.3479 56.3959 42.2184 55.2691C41.0889 54.1423 40.4424 52.62 40.4158 51.0248C40.3893 49.4296 40.9847 47.8866 42.0761 46.7228C43.1674 45.559 44.6689 44.8658 46.2626 44.7899H46.467C47.2733 44.777 48.0742 44.923 48.824 45.2196C49.5738 45.5162 50.2579 45.9576 50.8372 46.5186C51.4164 47.0795 51.8795 47.7491 52.2 48.4891C52.5204 49.229 52.6921 50.0248 52.705 50.8311C52.7179 51.6374 52.5719 52.4383 52.2753 53.1881C51.9787 53.9379 51.5373 54.622 50.9763 55.2013C50.4154 55.7805 49.7458 56.2436 49.0058 56.5641C48.2659 56.8845 47.4701 57.0562 46.6638 57.0691H46.467M50.7064 33.3965H42.22V36.6517C41.2328 36.9456 40.2789 37.3415 39.3736 37.8328L38.4802 36.9394L37.0646 35.5313L35.6565 36.9394L32.4769 40.119L31.0612 41.5346L32.4769 42.9428L33.3702 43.8361C32.8725 44.741 32.4765 45.6981 32.1892 46.6901H28.9264V55.1765H32.1892C32.4765 56.1685 32.8725 57.1256 33.3702 58.0305L32.4769 58.9163L31.0612 60.3319L32.4769 61.74L35.6565 64.9271L37.0646 66.3352L38.4802 64.9196L39.3736 64.0263C40.277 64.5233 41.2313 64.9218 42.22 65.2148V68.4701H50.7064V65.2148C51.6974 64.9217 52.6543 64.5232 53.5604 64.0263L54.4537 64.9196L55.8618 66.3352L57.2775 64.9271L60.4571 61.74L61.8651 60.3319L60.4571 58.9163L59.5638 58.0608C60.0551 57.1529 60.4509 56.1964 60.7447 55.2068H64V46.7052H60.7447C60.4509 45.7156 60.0551 44.7591 59.5638 43.8512L60.4571 42.9579L61.8651 41.5498L60.4571 40.1341L57.2775 36.9546L55.8618 35.5465L54.4537 36.9546L53.5604 37.8479C52.6525 37.3565 51.696 36.9608 50.7064 36.6669V33.4116V33.3965ZM46.467 59.0677H46.7319C47.7997 59.0503 48.8535 58.8227 49.8333 58.3981C50.8131 57.9734 51.6997 57.3599 52.4424 56.5926C53.185 55.8253 53.7693 54.9192 54.1619 53.9261C54.5544 52.933 54.7475 51.8723 54.7301 50.8046C54.7127 49.7369 54.4851 48.683 54.0604 47.7032C53.6358 46.7234 53.0223 45.8369 52.255 45.0942C51.4877 44.3515 50.5816 43.7672 49.5885 43.3747C48.5954 42.9822 47.5347 42.7891 46.467 42.8065H46.202C44.0819 42.8957 42.0804 43.8096 40.6244 45.3532C39.1683 46.8969 38.3727 48.9482 38.4073 51.07C38.4418 53.1917 39.3037 55.216 40.8093 56.7115C42.3149 58.2069 44.3451 59.0551 46.467 59.0753M48.7381 35.3951V38.2415C50.5869 38.5648 52.3419 39.2911 53.8784 40.3688L55.8846 38.3627L59.0641 41.5422L57.058 43.5484C58.1357 45.0849 58.862 46.8399 59.1852 48.6887H62.0317V53.1855H59.1852C58.8619 55.0366 58.1356 56.794 57.058 58.3333L59.0641 60.3395L55.8846 63.5191L53.8784 61.5129C52.3405 62.5883 50.5861 63.3143 48.7381 63.6402V66.4791H44.2186V63.6402C42.3705 63.3143 40.6161 62.5883 39.0783 61.5129L37.0646 63.5191L33.885 60.3395L35.8987 58.3333C34.8197 56.7939 34.091 55.0368 33.7639 53.1855H30.925V48.6735H33.7715C34.0975 46.8242 34.8263 45.0694 35.9063 43.5332L33.8926 41.5271L37.0721 38.3475L39.0859 40.3537C40.6218 39.2748 42.377 38.5484 44.2262 38.2264V35.3497L48.7381 35.3951Z" fill="#00FFFF"/>
<path d="M9.5311 44.7218V58.1289H21.2425" stroke="#00FFFF" stroke-width="2" stroke-miterlimit="10"/>
<path d="M17.268 61.5129L20.652 58.129L17.268 54.745H20.1372L23.5211 58.129L20.1372 61.5129H17.268Z" fill="#00FFFF"/>
<path d="M54.4311 29.1722V15.7574H42.7121" stroke="#00FFFF" stroke-width="2" stroke-miterlimit="10"/>
<path d="M46.6941 12.3735L43.3026 15.7575L46.6941 19.1415H43.8174L40.4334 15.7575L43.8174 12.3735H46.6941Z" fill="#00FFFF"/>
</svg>
