<svg width="66" height="74" viewBox="0 0 66 74" fill="none" xmlns="http://www.w3.org/2000/svg">
<path d="M52.7757 63.8632L44.3802 52.3032M65 47.0352L51.4195 42.616M65 26.24L51.4195 30.65M52.7757 9.43042L44.3802 20.9905M33.0047 3V17.2909M13.2243 9.43042L21.62 20.9905M1 26.2585L14.5806 30.6684M1 47.0536L14.5806 42.6344M13.2243 63.854L21.62 52.2939M33.0047 70.2752V56.0028M33.0047 24.0535L36.3629 32.0062L44.9706 32.7443L38.4387 38.3997L40.3946 46.8137L33.0139 42.3576L25.6332 46.8137L27.5891 38.3997L21.0571 32.7443L29.6649 32.0062L33.0047 24.0535Z" stroke="#00FFFF" stroke-width="2" stroke-miterlimit="10"/>
</svg>
