<svg width="66" height="75" viewBox="0 0 66 75" fill="none" xmlns="http://www.w3.org/2000/svg">
<path d="M13.0569 74.732V52.6515C11.479 51.4309 2.30939 44.1667 1.14831 31.3451C0.94983 29.2909 -0.0822471 18.077 8.09498 9.37376C10.9705 6.39294 14.4845 4.10302 18.3727 2.67633C22.2609 1.24964 26.4221 0.72331 30.543 1.13694C34.664 1.55056 38.6376 2.8934 42.1647 5.06437C45.6918 7.23534 48.6806 10.1779 50.9064 13.6707C52.4278 16.0525 53.5851 18.6481 54.34 21.3716C55.2034 24.4877 55.3324 27.7328 56.1064 30.8886C56.4503 32.0095 57.0597 33.0308 57.8828 33.8657C58.6172 34.749 59.3317 35.652 60.066 36.5452L64.3432 41.8147L53.427 45.9232V60.6997H37.8466V75" stroke="#00FFFF" stroke-width="2" stroke-miterlimit="10"/>
<path d="M27.8533 14.2365L30.7114 23.019H39.9405L32.4679 28.4474L35.326 37.2299L27.8533 31.8016L20.3906 37.2299L23.2387 28.4474L15.7661 23.019H25.0052L27.8533 14.2365Z" stroke="#00FFFF" stroke-width="2" stroke-miterlimit="10"/>
</svg>
