<svg width="86" height="85" viewBox="0 0 86 85" fill="none" xmlns="http://www.w3.org/2000/svg">
<path d="M23.4399 31.723C22.3601 31.7409 21.2874 31.5461 20.283 31.1495C19.2785 30.7529 18.362 30.1623 17.5858 29.4115C16.0182 27.8952 15.1171 25.8182 15.0808 23.6376C15.0445 21.4569 15.876 19.3512 17.3923 17.7835C18.9085 16.2159 20.9855 15.3148 23.1661 15.2785H23.4399C25.5763 15.309 27.617 16.1699 29.1296 17.6789C30.6423 19.188 31.5081 21.2266 31.5437 23.363C31.5793 25.4993 30.7818 27.5656 29.3202 29.1242C27.8587 30.6828 25.8479 31.6112 23.7136 31.7128H23.4399M29.1275 0L17.7523 0V4.36963C16.4277 4.75623 15.1494 5.28664 13.9402 5.95127L12.7845 4.76504L10.8987 2.86917L9.00286 4.76504L4.74474 9.02316L2.85902 10.9089L4.74474 12.8047L5.94106 14.0011C5.28312 15.2135 4.75307 16.491 4.35948 17.8131H0L0 29.1884H4.35948C4.75491 30.5098 5.28488 31.7872 5.94106 33.0004L4.67377 34.1967L2.78805 36.0824L4.67377 37.9783L8.93189 42.2364L10.8278 44.1221L12.7135 42.2364L13.9098 41.0401C15.1307 41.7157 16.4184 42.2627 17.7523 42.6724V47.0318H29.1275V42.6724C30.4495 42.2788 31.7271 41.7487 32.9395 41.0908L34.1358 42.2871L36.0317 44.1728L37.9174 42.2871L42.1755 38.029L44.0714 36.1331L42.1857 34.1967L40.9894 33.0004C41.654 31.7912 42.1843 30.5129 42.5709 29.1884H46.9406V17.8131H42.5709C42.1862 16.4879 41.6558 15.2094 40.9894 14.0011L42.1857 12.8047L44.0815 10.9089L42.1857 9.02316L37.9276 4.76504L36.0418 2.86917L34.146 4.76504L32.9497 5.96136C31.7413 5.29494 30.4628 4.76451 29.1376 4.37978V0.0101483L29.1275 0ZM23.4399 34.3792H23.7947C26.634 34.2597 29.3144 33.0358 31.2644 30.9685C33.2144 28.9012 34.2798 26.1541 34.2335 23.3126C34.1873 20.4712 33.033 17.7601 31.0167 15.7575C29.0004 13.7548 26.2816 12.6189 23.4399 12.5919H23.085C21.6551 12.6152 20.2438 12.9199 18.9316 13.4886C17.6195 14.0573 16.4322 14.879 15.4376 15.9065C13.4289 17.9818 12.3268 20.77 12.3738 23.6579C12.4209 26.5457 13.6132 29.2966 15.6885 31.3053C17.7638 33.3141 20.552 34.4161 23.4399 34.369M26.4814 2.66639V6.46828C28.9579 6.90486 31.3081 7.88094 33.3653 9.3273L36.0621 6.63052L40.3202 10.8886L37.6234 13.5854C39.0715 15.6416 40.0478 17.9922 40.4824 20.4693H44.2133V26.4915H40.4115C39.9749 28.9681 38.9988 31.3183 37.5524 33.3755L40.2493 36.0621L35.9912 40.3304L33.2943 37.6336C31.2388 39.0811 28.8876 40.0541 26.4104 40.4825V44.2945H20.3882V40.4825C17.911 40.0541 15.5598 39.0811 13.5043 37.6336L10.8176 40.3304L6.54934 36.0621L9.24617 33.3755C7.7987 31.32 6.82566 28.9688 6.3973 26.4915H2.6461V20.4693H6.45813C6.88486 17.9916 7.85804 15.6401 9.307 13.5854L6.61017 10.8886L10.8784 6.63052L13.5651 9.3273C15.6223 7.88094 17.9725 6.90486 20.449 6.46828V2.66639H26.4814Z" fill="white"/>
<path d="M62.2294 69.7214C60.0929 69.691 58.0523 68.83 56.5396 67.321C55.027 65.812 54.1612 63.7733 54.1256 61.637C54.09 59.5006 54.8874 57.4343 56.349 55.8758C57.8105 54.3172 59.8214 53.3888 61.9556 53.2871H62.2294C63.3091 53.2698 64.3817 53.4654 65.3859 53.8626C66.3901 54.2598 67.3062 54.8509 68.082 55.6022C68.8577 56.3534 69.4778 57.2502 69.907 58.2411C70.3362 59.232 70.5661 60.2978 70.5834 61.3776C70.6007 62.4573 70.4051 63.5299 70.0079 64.5341C69.6107 65.5383 69.0196 66.4544 68.2683 67.2302C67.5171 68.0059 66.6204 68.626 65.6294 69.0552C64.6385 69.4844 63.5727 69.7143 62.493 69.7316H62.2294M67.9068 38.0289H56.5417V42.3884C55.2196 42.782 53.9421 43.3121 52.7297 43.9701L51.5334 42.7737L49.6375 40.888L47.7518 42.7737L43.4937 47.0318L41.5978 48.9277L43.4937 50.8134L44.69 52.0098C44.0235 53.2216 43.4931 54.5034 43.1084 55.8319H38.7388V67.197H43.1084C43.4931 68.5255 44.0235 69.8073 44.69 71.0192L43.4937 72.2053L41.5978 74.1012L43.4937 75.9869L47.7518 80.2552L49.6375 82.1409L51.5334 80.2451L52.7297 79.0487C53.9397 79.7144 55.2177 80.2481 56.5417 80.6405V85H67.9068V80.6405C69.2341 80.2479 70.5154 79.7142 71.729 79.0487L72.9253 80.2451L74.8111 82.1409L76.7069 80.2552L80.965 75.9869L82.8508 74.1012L80.965 72.2053L79.7687 71.0597C80.4267 69.8438 80.9568 68.5629 81.3503 67.2375H85.7098V55.8522H81.3503C80.9568 54.5268 80.4267 53.2459 79.7687 52.03L80.965 50.8337L82.8508 48.948L80.965 47.0521L76.7069 42.794L74.8111 40.9083L72.9253 42.794L71.729 43.9903C70.5131 43.3323 69.2322 42.8023 67.9068 42.4087V38.0492V38.0289ZM62.2294 72.4081H62.5842C64.0141 72.3848 65.4254 72.0801 66.7376 71.5114C68.0497 70.9426 69.237 70.1211 70.2317 69.0935C71.2263 68.0659 72.0088 66.8525 72.5344 65.5225C73.0601 64.1925 73.3187 62.772 73.2954 61.3421C73.2721 59.9122 72.9673 58.5009 72.3986 57.1887C71.8299 55.8766 71.0083 54.6893 69.9807 53.6947C68.9532 52.7001 67.7398 51.9176 66.4098 51.3919C65.0798 50.8662 63.6593 50.6076 62.2294 50.6309H61.8745C59.0352 50.7504 56.3548 51.9743 54.4048 54.0416C52.4548 56.1088 51.3894 58.856 51.4357 61.6975C51.4819 64.539 52.6362 67.25 54.6525 69.2526C56.6688 71.2553 59.3877 72.3913 62.2294 72.4183M65.2709 40.7055V44.5175C67.7468 44.9504 70.0971 45.923 72.1548 47.3664L74.8415 44.6797L79.0996 48.9378L76.4129 51.6245C77.8563 53.6823 78.8289 56.0325 79.2618 58.5084H83.0738V64.5306H79.2618C78.8287 67.0096 77.8562 69.3631 76.4129 71.4247L79.0996 74.1114L74.8415 78.3695L72.1548 75.6828C70.0953 77.1229 67.7458 78.0953 65.2709 78.5317V82.3336H59.2183V78.5317C56.7434 78.0953 54.3938 77.1229 52.3343 75.6828L49.6375 78.3695L45.3794 74.1114L48.0762 71.4247C46.6311 69.3631 45.6552 67.0099 45.2172 64.5306H41.4153V58.4881H45.2273C45.6639 56.0116 46.64 53.6614 48.0864 51.6042L45.3895 48.9175L49.6476 44.6595L52.3445 47.3461C54.4014 45.9013 56.752 44.9285 59.2284 44.4972V40.6446L65.2709 40.7055Z" fill="white"/>
<path d="M12.7642 53.1959V71.1509H28.4482" stroke="white" stroke-width="2" stroke-miterlimit="10"/>
<path d="M23.1255 75.6828L27.6573 71.151L23.1255 66.6191H26.9679L31.4998 71.151L26.9679 75.6828H23.1255Z" fill="white"/>
<path d="M72.8949 32.3718V14.4066H57.2007" stroke="white" stroke-width="2" stroke-miterlimit="10"/>
<path d="M62.5333 9.87476L57.9914 14.4066L62.5333 18.9384H58.6808L54.1489 14.4066L58.6808 9.87476H62.5333Z" fill="white"/>
</svg>
