<svg width="76" height="86" viewBox="0 0 76 86" fill="none" xmlns="http://www.w3.org/2000/svg">
<path d="M14.8491 85.6922V60.3295C13.0367 58.9274 2.50403 50.5834 1.17035 35.8559C0.942372 33.4963 -0.243122 20.6154 9.14964 10.6185C12.4526 7.19459 16.4889 4.56428 20.9551 2.92551C25.4213 1.28675 30.201 0.68218 34.9346 1.15729C39.6682 1.63241 44.2323 3.17485 48.2838 5.66853C52.3352 8.16222 55.7683 11.5422 58.3249 15.5542C60.0725 18.29 61.4018 21.2714 62.2689 24.3998C63.2606 27.9791 63.4088 31.7066 64.2979 35.3315C64.6929 36.619 65.3929 37.7921 66.3384 38.7512C67.1819 39.7657 68.0026 40.803 68.8461 41.8289L73.7591 47.8818L61.2202 52.6009V69.574H43.3238V86" stroke="white" stroke-width="2" stroke-miterlimit="10"/>
<path d="M31.8449 16.204L35.1278 26.2921H45.7289L37.1454 32.5273L40.4283 42.6154L31.8449 36.3802L23.2729 42.6154L26.5444 32.5273L17.9609 26.2921H28.5734L31.8449 16.204Z" stroke="white" stroke-width="2" stroke-miterlimit="10"/>
</svg>
