<svg width="83" height="85" viewBox="0 0 83 85" fill="none" xmlns="http://www.w3.org/2000/svg">
<path d="M66.4169 76.8986L55.8094 62.2929M81.8619 55.637L64.7034 50.0535M81.8619 29.363L64.7034 34.9348M66.4169 8.12462L55.8094 22.7304M41.4369 0V18.0561M16.445 8.12462L27.0526 22.7304M1 29.3863L18.1586 34.9582M1 55.6603L18.1586 50.0768M16.445 76.887L27.0526 62.2813M41.4369 85V66.9673M41.4369 26.6004L45.6799 36.6484L56.5555 37.5809L48.3026 44.7264L50.7738 55.3572L41.4485 49.7271L32.1232 55.3572L34.5944 44.7264L26.3415 37.5809L37.2172 36.6484L41.4369 26.6004Z" stroke="white" stroke-width="2" stroke-miterlimit="10"/>
</svg>
