<svg width="356" height="222" viewBox="0 0 356 222" fill="none" xmlns="http://www.w3.org/2000/svg">
<path d="M10 5.73608H143L348.5 213.239" stroke="#00FFFF" stroke-width="2"/>
<path d="M9.86453 6.42834C10.2318 4.16508 8.69543 2.03252 6.43306 1.66515C4.17069 1.29777 2.03901 2.83469 1.67177 5.09795C1.30454 7.3612 2.84081 9.49374 5.10318 9.86111C7.36555 10.2285 9.49729 8.69159 9.86453 6.42834Z" stroke="#00FFFF" stroke-width="2"/>
<path d="M350.37 212.697C351.19 212.697 351.993 212.94 352.675 213.396C353.358 213.853 353.89 214.501 354.204 215.26C354.518 216.018 354.6 216.853 354.44 217.658C354.28 218.464 353.884 219.203 353.304 219.784C352.724 220.365 351.984 220.76 351.179 220.92C350.374 221.08 349.54 220.998 348.781 220.684C348.023 220.37 347.375 219.838 346.919 219.155C346.463 218.472 346.22 217.67 346.22 216.848C346.218 216.303 346.325 215.762 346.533 215.258C346.741 214.754 347.046 214.296 347.432 213.91C347.818 213.524 348.276 213.218 348.78 213.01C349.284 212.802 349.824 212.695 350.37 212.697Z" stroke="#00FFFF" stroke-width="2"/>
</svg>
