<svg width="46" height="46" viewBox="0 0 46 46" fill="none" xmlns="http://www.w3.org/2000/svg">
<g clip-path="url(#clip0_135_199)">
<mask id="mask0_135_199" style="mask-type:luminance" maskUnits="userSpaceOnUse" x="0" y="0" width="46" height="46">
<path d="M45.9827 0H0V45.9827H45.9827V0Z" fill="white"/>
</mask>
<g mask="url(#mask0_135_199)">
<path d="M0 0H45.9827V45.9827H0V0ZM12.2062 25.1184V24.2888H7.53728V25.1184C7.53728 29.5225 10.7058 33.2029 14.8804 33.9884L17.5281 29.3901C17.2192 29.4695 16.9103 29.5048 16.5838 29.5048C14.1655 29.5048 12.2062 27.519 12.2062 25.1184ZM35.9301 13.8389L38.6926 9.0465H13.9625L7.25485 20.7143H16.575C18.5343 20.7143 20.1847 22.0029 20.7408 23.7769L23.3973 19.1786C21.7381 17.2722 19.2845 16.0631 16.575 16.0631H15.4629L16.7338 13.8478H35.9212L35.9301 13.8389ZM32.7969 29.293H27.0159L29.1871 25.5244L34.6503 16.0454H29.0371L18.7108 33.9707V33.9884H32.7969V38.4189H37.5452V21.0938L32.7969 29.293Z" fill="white"/>
</g>
</g>
<defs>
<clipPath id="clip0_135_199">
<rect width="45.9827" height="45.9827" fill="white"/>
</clipPath>
</defs>
</svg>
