<svg width="106" height="44" viewBox="0 0 106 44" fill="none" xmlns="http://www.w3.org/2000/svg">
<g clip-path="url(#clip0_135_205)">
<path d="M61.2138 6.79596C61.193 8.5659 61.0472 9.45088 60.5787 10.3671C59.5896 12.3869 57.726 13.5009 55.3522 13.5009C51.7082 13.5009 49.0428 10.8877 49.0428 7.27489C49.0428 3.66212 51.729 0.934326 55.4251 0.934326C57.6635 0.934326 59.4439 1.913 60.5787 3.76624L58.5172 4.86985C57.7989 3.68294 56.7473 3.08949 55.3938 3.08949C53.1241 3.08949 51.4479 4.86985 51.4479 7.29571C51.4479 9.72157 53.1241 11.3874 55.3834 11.3874C57.1013 11.3874 58.3611 10.3775 58.5381 8.84701H55.7062V6.80637H61.2034L61.2138 6.79596Z" fill="white"/>
<path d="M75.644 7.23324C75.644 10.7835 72.8121 13.5113 69.1473 13.5113C65.4824 13.5113 62.7859 10.7523 62.7859 7.13954C62.7859 3.52677 65.6699 0.934326 69.241 0.934326C72.8121 0.934326 75.644 3.69336 75.644 7.23324ZM65.2013 7.18118C65.2013 9.51334 66.9817 11.3666 69.2202 11.3666C71.4586 11.3666 73.2286 9.51334 73.2286 7.22283C73.2286 4.93231 71.4378 3.08949 69.2097 3.08949C66.9817 3.08949 65.2013 4.94273 65.2013 7.18118Z" fill="white"/>
<path d="M80.1521 11.1998H83.8482V13.2404H77.8096V1.20483H80.1521V11.1998Z" fill="white"/>
<path d="M87.815 3.24547V5.92121H91.5839V7.95144H87.815V13.2404H85.4724V1.20483H91.8442V3.24547H87.815Z" fill="white"/>
<path d="M55.7165 19.6956C55.0815 18.9981 54.5296 18.7274 53.7696 18.7274C52.8118 18.7274 52.0725 19.3208 52.0725 20.06C52.0725 20.7055 52.489 21.0491 53.8945 21.5801C55.2064 22.0694 55.7478 22.3193 56.2892 22.7878C56.9867 23.3813 57.3511 24.2454 57.3511 25.3178C57.3511 27.6812 55.6541 29.2846 53.1657 29.2846C51.4166 29.2846 50.1152 28.5662 49.0324 26.994L50.5421 25.5364C51.0835 26.5672 51.9893 27.1398 53.072 27.1398C54.1548 27.1398 54.9253 26.4318 54.9253 25.4427C54.9253 24.9534 54.7066 24.5369 54.2798 24.235C54.0507 24.0684 53.5718 23.8706 52.6035 23.5166C50.438 22.7254 49.6467 21.8612 49.6467 20.2683C49.6467 18.2484 51.2292 16.77 53.3948 16.77C54.717 16.77 55.9248 17.2177 56.9347 18.1027L55.7061 19.706L55.7165 19.6956Z" fill="white"/>
<path d="M61.5261 26.4421L60.4433 28.9825H57.955L63.1711 16.697H64.9411L69.9906 28.9825H67.4815L66.4507 26.4421H61.5261ZM64.0353 20.2161L62.2862 24.5472H65.7115L64.0353 20.2161Z" fill="white"/>
<path d="M73.3327 23.8499C73.3327 25.0784 73.4056 25.4741 73.7075 25.9946C74.1031 26.6818 74.9152 27.1087 75.821 27.1087C76.7268 27.1087 77.5389 26.6714 77.9345 25.9946C78.2365 25.4741 78.3093 25.0784 78.3093 23.8499V16.9575H80.6519V24.3184C80.6519 25.7239 80.3812 26.713 79.7669 27.5251C78.934 28.6079 77.4556 29.2534 75.821 29.2534C74.1864 29.2534 72.6976 28.6079 71.8751 27.5251C71.2608 26.713 70.9901 25.7239 70.9901 24.3184V16.9575H73.3327V23.8499Z" fill="white"/>
<path d="M83.4214 16.9575H86.8676C88.6375 16.9575 90.0431 17.4052 91.1779 18.3422C92.5314 19.4459 93.3227 21.1533 93.3227 22.9545C93.3227 24.7557 92.5106 26.4527 91.1363 27.5876C89.9806 28.5559 88.6687 28.9723 86.8467 28.9723H83.4214V16.9575ZM86.3991 26.9525C87.9087 26.9525 88.8666 26.661 89.6058 25.9946C90.4179 25.2763 90.9072 24.1206 90.9072 22.9649C90.9072 21.8092 90.4179 20.6952 89.6058 19.9664C88.8353 19.2584 87.9087 18.9877 86.3991 18.9877H85.764V26.9421H86.3991V26.9525Z" fill="white"/>
<path d="M97.8308 16.9575H95.4882V28.9827H97.8308V16.9575Z" fill="white"/>
<mask id="mask0_135_205" style="mask-type:luminance" maskUnits="userSpaceOnUse" x="14" y="1" width="27" height="43">
<path d="M14.4144 26.8483C14.4144 33.0743 16.6529 38.7589 20.3385 43.1317C20.401 43.1421 20.4322 43.1526 20.4739 43.163C20.3802 42.2988 20.3281 41.4138 20.3281 40.5289C20.3281 28.2954 28.928 18.1235 40.2764 15.9475V1.90247C39.8183 1.87124 39.3602 1.82959 38.8917 1.82959C25.3777 1.82959 14.4144 13.0323 14.4144 26.8483Z" fill="white"/>
</mask>
<g mask="url(#mask0_135_205)">
<path d="M40.2868 1.82959H14.4144V43.1734H40.2868V1.82959Z" fill="url(#paint0_linear_135_205)"/>
</g>
<mask id="mask1_135_205" style="mask-type:luminance" maskUnits="userSpaceOnUse" x="22" y="18" width="19" height="25">
<path d="M22.6603 42.4135C22.6603 42.5072 22.6707 42.5905 22.6707 42.6842C27.6786 41.1538 40.2868 35.8543 40.2868 21.3616V18.4048C30.1044 21.4345 22.6498 31.0338 22.6498 42.4135" fill="white"/>
</mask>
<g mask="url(#mask1_135_205)">
<path d="M40.2974 18.3945H22.6604V42.674H40.2974V18.3945Z" fill="url(#paint1_linear_135_205)"/>
</g>
<mask id="mask2_135_205" style="mask-type:luminance" maskUnits="userSpaceOnUse" x="9" y="0" width="22" height="8">
<path d="M9.68756 0.809326C13.7168 2.10034 17.3295 4.34921 20.2864 7.28523C23.2432 4.34921 26.856 2.10034 30.8852 0.809326H9.68756Z" fill="white"/>
</mask>
<g mask="url(#mask2_135_205)">
<path d="M30.8956 0.809326H9.68756V7.28523H30.8956V0.809326Z" fill="url(#paint2_linear_135_205)"/>
</g>
<mask id="mask3_135_205" style="mask-type:luminance" maskUnits="userSpaceOnUse" x="0" y="1" width="19" height="22">
<path d="M0.286072 1.90247V15.9475C4.98163 16.8533 9.19826 19.1334 12.5403 22.3609C13.3732 17.2802 15.5701 12.6679 18.7559 8.95101C14.3519 4.54697 8.3237 1.82959 1.67079 1.82959C1.20228 1.82959 0.744175 1.87124 0.286072 1.90247Z" fill="white"/>
</mask>
<g mask="url(#mask3_135_205)">
<path d="M18.7559 1.82959H0.286072V22.3609H18.7559V1.82959Z" fill="url(#paint3_linear_135_205)"/>
</g>
<mask id="mask4_135_205" style="mask-type:luminance" maskUnits="userSpaceOnUse" x="0" y="18" width="17" height="25">
<path d="M0.286072 21.3512C0.286072 34.9798 11.4263 40.477 16.9235 42.3615C13.8418 37.8117 12.1551 32.4082 12.1551 26.8589C12.1551 26.6923 12.1759 26.5257 12.1759 26.3591C9.10455 22.6214 4.99204 19.8103 0.286072 18.4048V21.3616V21.3512Z" fill="white"/>
</mask>
<g mask="url(#mask4_135_205)">
<path d="M16.9235 18.394H0.286072V42.3507H16.9235V18.394Z" fill="url(#paint4_linear_135_205)"/>
</g>
<path d="M93.9161 37.5619C93.9161 37.5619 94.0098 37.6348 94.0723 37.666C94.1347 37.6869 94.1868 37.7077 94.2597 37.7077C94.3326 37.7077 94.395 37.6973 94.4471 37.666C94.5096 37.6452 94.5512 37.6036 94.6033 37.5619C94.6449 37.5203 94.6866 37.4682 94.7074 37.4057C94.7386 37.3433 94.749 37.2808 94.749 37.2183C94.749 37.1559 94.7386 37.0934 94.7074 37.0309C94.6761 36.9685 94.6449 36.9268 94.6033 36.8748C94.5616 36.8331 94.5096 36.8019 94.4471 36.7707C94.3846 36.7394 94.3222 36.729 94.2597 36.729C94.1243 36.729 94.0098 36.7811 93.9161 36.8748C93.8224 36.9685 93.7808 37.083 93.7808 37.2183C93.7808 37.2912 93.7912 37.3537 93.8224 37.4057C93.8536 37.4682 93.8849 37.5203 93.9265 37.5619" fill="white"/>
<path d="M97.987 34.6673C97.8621 34.8027 97.7788 34.9068 97.7267 34.9797C97.6747 35.0525 97.5706 35.1462 97.404 35.2504C97.3623 35.2816 97.2582 35.3441 97.0812 35.4378V35.5002C97.2166 35.5731 97.3103 35.6772 97.3832 35.7917C97.4873 36 97.5497 36.3123 97.5497 36.7392V39.9147H95.4674C95.4883 39.8626 95.4987 39.7897 95.5091 39.696C95.5091 39.6023 95.5195 39.519 95.5195 39.4462C95.5195 39.1442 95.3946 38.8735 95.1447 38.6549C94.8948 38.4258 94.5929 38.3113 94.2597 38.3113C93.9057 38.3113 93.6038 38.4258 93.3539 38.6549C93.1145 38.8839 92.9895 39.1442 92.9895 39.4566C92.9895 39.5294 92.9895 39.6127 92.9999 39.7064C92.9999 39.7897 93.0208 39.8626 93.0416 39.9251H89.8765C89.5538 39.9251 89.2831 39.873 89.0852 39.7793C88.9187 39.7064 88.7729 39.5503 88.648 39.3316H88.5855C88.5022 39.4774 88.4397 39.5815 88.4085 39.644C88.294 39.821 88.1899 39.9563 88.0857 40.05C87.815 40.2999 87.6693 40.4248 87.6589 40.4457C87.4819 40.6018 87.3361 40.7059 87.2112 40.758V40.8517H98.4139V34.3237H98.3202C98.2161 34.4383 98.112 34.5528 98.0078 34.6673M94.2805 39.9147C94.0515 39.9147 93.937 39.8001 93.937 39.5815C93.937 39.3629 94.0515 39.2483 94.2805 39.2483C94.5096 39.2483 94.6137 39.3629 94.6137 39.5815C94.6137 39.8001 94.4992 39.9147 94.2805 39.9147Z" fill="white"/>
<path d="M104.931 37.3537C104.723 37.1663 104.442 37.083 104.119 37.083C103.807 37.083 103.536 37.2079 103.318 37.4474C103.089 37.6973 102.974 37.9992 102.974 38.3636C102.974 38.6968 103.068 38.9571 103.245 39.1549C103.443 39.3839 103.734 39.4985 104.13 39.4985H104.463V39.5818C104.463 39.6755 104.432 39.7587 104.359 39.8212C104.296 39.8837 104.213 39.9253 104.119 39.9253H101.725V39.4672C101.725 39.1341 101.6 38.8634 101.36 38.6447C101.131 38.4365 100.85 38.3324 100.538 38.3324C100.225 38.3324 99.9443 38.4469 99.7257 38.6655C99.4862 38.905 99.3613 39.2278 99.3613 39.6338C99.3613 39.9878 99.4445 40.2689 99.5903 40.4667C99.7881 40.7166 100.1 40.8519 100.538 40.8519H100.871C100.871 41.2892 100.694 41.7057 100.34 42.0805C100.028 42.4137 99.6632 42.6531 99.2571 42.7885V42.8718H99.684C100.35 42.8718 100.871 42.6635 101.246 42.2575C101.579 41.8931 101.735 41.4246 101.735 40.8519H104.307C104.588 40.8519 104.827 40.7478 105.025 40.55C105.223 40.3522 105.327 40.1127 105.327 39.842V38.2699C105.327 37.8743 105.212 37.5723 104.973 37.3641M100.559 39.9253C100.33 39.9253 100.225 39.8108 100.225 39.5922C100.225 39.3735 100.34 39.259 100.559 39.259C100.777 39.259 100.892 39.3735 100.892 39.5922C100.892 39.8108 100.777 39.9253 100.559 39.9253ZM104.151 38.6031C103.921 38.6031 103.817 38.4886 103.817 38.2699C103.817 38.0513 103.932 37.9367 104.151 37.9367C104.369 37.9367 104.484 38.0513 104.484 38.2699C104.484 38.4886 104.369 38.6031 104.151 38.6031Z" fill="white"/>
<path d="M103.089 36.6039C103.089 36.6039 103.182 36.6768 103.245 36.708C103.307 36.7288 103.359 36.7497 103.432 36.7497C103.505 36.7497 103.567 36.7393 103.62 36.708C103.682 36.6872 103.724 36.6456 103.776 36.6039C103.817 36.5623 103.859 36.5102 103.88 36.4477C103.911 36.3853 103.921 36.3228 103.921 36.2603C103.921 36.1979 103.911 36.1354 103.88 36.0729C103.849 36.0105 103.817 35.9688 103.776 35.9168C103.734 35.8751 103.682 35.8439 103.62 35.8126C103.557 35.7814 103.495 35.771 103.432 35.771C103.297 35.771 103.182 35.8231 103.089 35.9168C102.995 36.0105 102.953 36.125 102.953 36.2603C102.953 36.3332 102.964 36.3957 102.995 36.4477C103.026 36.5102 103.057 36.5519 103.099 36.6039" fill="white"/>
<path d="M104.265 36.6039C104.265 36.6039 104.359 36.6768 104.421 36.708C104.484 36.7288 104.536 36.7497 104.609 36.7497C104.682 36.7497 104.744 36.7393 104.796 36.708C104.859 36.6872 104.9 36.6456 104.952 36.6039C104.994 36.5623 105.036 36.5102 105.056 36.4477C105.088 36.3853 105.098 36.3228 105.098 36.2603C105.098 36.1979 105.088 36.1354 105.056 36.0729C105.025 36.0105 104.994 35.9688 104.952 35.9168C104.911 35.8751 104.859 35.8439 104.796 35.8126C104.734 35.7814 104.671 35.771 104.609 35.771C104.473 35.771 104.359 35.8231 104.265 35.9168C104.171 36.0105 104.13 36.125 104.13 36.2603C104.13 36.3332 104.14 36.3957 104.171 36.4477C104.203 36.5102 104.234 36.5519 104.276 36.6039" fill="white"/>
<path d="M49.3343 36.708C49.3968 36.7288 49.4489 36.7497 49.5217 36.7497C49.5946 36.7497 49.6571 36.7393 49.7092 36.708C49.7716 36.6872 49.8237 36.6456 49.8653 36.6039C49.907 36.5623 49.9486 36.5102 49.9694 36.4477C50.0007 36.3853 50.0111 36.3228 50.0111 36.2603C50.0111 36.1979 50.0007 36.1354 49.9694 36.0729C49.9486 36.0105 49.907 35.9688 49.8653 35.9168C49.8237 35.8751 49.7716 35.8439 49.7092 35.8126C49.6467 35.7918 49.5842 35.771 49.5217 35.771C49.3864 35.771 49.2719 35.8231 49.1782 35.9168C49.0845 36.0105 49.0324 36.125 49.0324 36.2603C49.0324 36.3332 49.0428 36.3957 49.0741 36.4477C49.1053 36.5102 49.1365 36.5519 49.1782 36.6039C49.2198 36.6456 49.2719 36.6768 49.3343 36.708Z" fill="white"/>
<path d="M50.3651 36.6039C50.3651 36.6039 50.4588 36.6768 50.5212 36.708C50.5837 36.7288 50.6358 36.7497 50.7086 36.7497C50.7815 36.7497 50.844 36.7393 50.896 36.708C50.9585 36.6872 51.0002 36.6456 51.0522 36.6039C51.0939 36.5623 51.1355 36.5102 51.1563 36.4477C51.1876 36.3853 51.198 36.3228 51.198 36.2603C51.198 36.1979 51.1876 36.1354 51.1563 36.0729C51.1251 36.0105 51.0939 35.9688 51.0522 35.9168C51.0106 35.8751 50.9585 35.8439 50.896 35.8126C50.8336 35.7814 50.7711 35.771 50.7086 35.771C50.5733 35.771 50.4588 35.8231 50.3651 35.9168C50.2714 36.0105 50.2193 36.125 50.2193 36.2603C50.2193 36.3332 50.2297 36.3957 50.2609 36.4477C50.2922 36.5102 50.3234 36.5623 50.3651 36.6039Z" fill="white"/>
<path d="M53.7175 41.4763C53.7175 41.4763 53.6238 41.4034 53.5613 41.3722C53.4989 41.3514 53.4364 41.3306 53.3739 41.3306C53.2386 41.3306 53.124 41.3722 53.0303 41.4659C52.9366 41.5596 52.8846 41.6741 52.8846 41.8095C52.8846 41.8824 52.895 41.9448 52.9262 41.9969C52.9575 42.0594 52.9887 42.101 53.0303 42.1531C53.072 42.1947 53.124 42.226 53.1865 42.2572C53.249 42.278 53.301 42.2988 53.3739 42.2988C53.4468 42.2988 53.5093 42.2884 53.5613 42.2572C53.6238 42.2364 53.6654 42.1947 53.7175 42.1531C53.7591 42.1114 53.7904 42.0594 53.8216 41.9969C53.8528 41.9344 53.8633 41.872 53.8633 41.8095C53.8633 41.747 53.8528 41.6846 53.8216 41.6221C53.7904 41.5596 53.7591 41.5076 53.7175 41.4659" fill="white"/>
<path d="M52.541 41.4763C52.541 41.4763 52.4473 41.4034 52.3849 41.3722C52.3224 41.3514 52.2599 41.3306 52.1975 41.3306C52.0621 41.3306 51.9476 41.3722 51.8539 41.4659C51.7602 41.5596 51.7081 41.6741 51.7081 41.8095C51.7081 41.8824 51.7185 41.9448 51.7498 41.9969C51.781 42.0594 51.8122 42.101 51.8539 42.1531C51.8955 42.1947 51.9476 42.226 52.0101 42.2572C52.0725 42.278 52.1246 42.2988 52.1975 42.2988C52.2703 42.2988 52.3328 42.2884 52.3849 42.2572C52.4473 42.2364 52.489 42.1947 52.541 42.1531C52.5827 42.1114 52.6139 42.0594 52.6452 41.9969C52.6764 41.9344 52.6868 41.872 52.6868 41.8095C52.6868 41.747 52.6764 41.6846 52.6452 41.6221C52.6139 41.5596 52.5827 41.5076 52.541 41.4659" fill="white"/>
<path d="M54.2694 40.8517V37.3534H54.134C53.9778 37.4679 53.8529 37.5825 53.7592 37.6866C53.6655 37.7907 53.5822 37.8948 53.5093 37.9885C53.4364 38.0822 53.3532 38.1863 53.2595 38.28C53.1762 38.3842 53.0512 38.4779 52.8951 38.582V38.7486C53.0512 38.8735 53.1553 39.0088 53.2282 39.1442C53.2907 39.2795 53.3219 39.4149 53.3219 39.5294V39.9146H51.729C51.7706 39.7897 51.7914 39.6648 51.7914 39.5294V36.5205H51.6665C51.5103 36.635 51.3854 36.7496 51.2917 36.8537C51.198 36.9578 51.1147 37.0619 51.0418 37.1556C50.9689 37.2493 50.8856 37.3534 50.7919 37.4471C50.7087 37.5512 50.5837 37.6449 50.4275 37.7491V37.9156C50.5525 38.0198 50.6462 38.1239 50.7087 38.228C50.6358 38.2176 50.5525 38.2072 50.4692 38.2072C50.2922 38.2072 50.1152 38.2384 49.959 38.3113C49.8029 38.3842 49.6675 38.4779 49.5426 38.5924C49.4176 38.7069 49.3343 38.8527 49.2615 39.0088C49.1886 39.165 49.1573 39.342 49.1573 39.519V40.8308H54.2485L54.2694 40.8517ZM50.4484 39.925C50.1881 39.925 50.0527 39.8001 50.0527 39.5398C50.0527 39.2795 50.1881 39.1546 50.4484 39.1546C50.7087 39.1546 50.8336 39.2795 50.8336 39.5398C50.8336 39.8001 50.7087 39.925 50.4484 39.925Z" fill="white"/>
<path d="M68.7621 38.8942C68.658 38.7901 68.533 38.7068 68.3977 38.6444C68.2623 38.5819 68.1166 38.5506 67.9604 38.5506H58.7671C58.6422 38.5506 58.5172 38.5194 58.3819 38.4465C58.2465 38.3841 58.1112 38.2695 57.9862 38.1238H57.8197C57.7155 38.28 57.6114 38.3945 57.5073 38.4882C57.4136 38.5715 57.3095 38.6548 57.2158 38.7381C57.1117 38.8109 57.018 38.8942 56.9139 38.9879C56.8098 39.0816 56.6952 39.1962 56.5807 39.3627V39.4981H67.9604C68.0229 39.4981 68.0645 39.5189 68.1062 39.5606C68.1478 39.6022 68.1686 39.6543 68.1686 39.7063V39.9145H56.9347C56.8098 39.9145 56.6848 39.8833 56.5495 39.8104C56.4141 39.748 56.2788 39.6334 56.1538 39.4877H55.9872C55.8831 39.6438 55.779 39.7584 55.6749 39.8521C55.5812 39.9354 55.4771 40.0187 55.3834 40.102C55.2793 40.1748 55.1856 40.2581 55.0815 40.3518C54.9773 40.4455 54.8628 40.5601 54.7483 40.7162V40.8516H69.1056V39.7063C69.1056 39.5501 69.0744 39.4044 69.012 39.2586C68.9495 39.1233 68.8662 38.9983 68.7621 38.8942Z" fill="white"/>
<path d="M84.3895 34.8755C84.2958 34.9796 84.2126 35.0837 84.1397 35.1774C84.0668 35.2711 83.9835 35.3752 83.8898 35.4689C83.8065 35.5626 83.6816 35.6667 83.5254 35.7709V35.9374C83.6816 36.0624 83.7857 36.1977 83.8586 36.3331C83.921 36.4684 83.9523 36.6038 83.9523 36.7183V40.7059C83.9523 40.8933 83.9419 41.0703 83.9106 41.2264C83.8794 41.3826 83.8377 41.5284 83.7649 41.6637C83.692 41.7991 83.6087 41.924 83.4942 42.0281C83.3796 42.1426 83.2339 42.2468 83.0569 42.3301V42.5695C83.3484 42.5695 83.6087 42.5279 83.8377 42.4342C84.0668 42.3405 84.2542 42.2155 84.4104 42.0489C84.5665 41.8824 84.6811 41.6845 84.7644 41.4555C84.8476 41.2264 84.8893 40.9766 84.8893 40.6955V34.5215H84.7539C84.5978 34.636 84.4728 34.7505 84.3895 34.8546" fill="white"/>
<path d="M83.1506 34.5426C82.9944 34.6571 82.8695 34.7717 82.7862 34.8758C82.6925 34.9799 82.6092 35.084 82.5363 35.1777C82.4635 35.2818 82.3802 35.3755 82.2865 35.4692C82.2032 35.5629 82.0783 35.6671 81.9221 35.7712V35.9378C82.0783 36.0627 82.1824 36.198 82.2552 36.3334C82.3177 36.4687 82.3489 36.6041 82.3489 36.7186V39.9045H81.1725V37.3433H81.0371C80.8809 37.4578 80.756 37.5723 80.6727 37.6765C80.579 37.7806 80.4957 37.8847 80.4228 37.9784C80.35 38.0721 80.2667 38.1762 80.173 38.2699C80.0897 38.374 79.9647 38.4677 79.8086 38.5718V38.7384C79.9647 38.8634 80.0688 38.9987 80.1417 39.1341C80.2042 39.2694 80.2354 39.4048 80.2354 39.5193V39.8941H79.5899V37.4995H79.4546C79.2984 37.614 79.1735 37.7285 79.0902 37.8326C78.9965 37.9367 78.9132 38.0409 78.8403 38.1346C78.7674 38.2387 78.6841 38.3324 78.5904 38.4261C78.5071 38.5302 78.3822 38.6239 78.226 38.7384V38.905C78.3822 39.0299 78.4863 39.1653 78.5488 39.3006C78.6112 39.436 78.6529 39.5713 78.6529 39.6859V39.8837H78.0074V37.6661H77.872C77.7159 37.7806 77.5909 37.8951 77.5076 37.9992C77.4139 38.1033 77.3306 38.2074 77.2578 38.3011C77.1849 38.3948 77.1016 38.499 77.0079 38.5927C76.9246 38.6968 76.7996 38.7905 76.6435 38.8946V39.0612C76.7996 39.1861 76.9038 39.3215 76.9767 39.4568C77.0391 39.5922 77.0703 39.7275 77.0703 39.842V39.8733H75.8314C75.873 39.7483 75.8939 39.6234 75.8939 39.4881C75.8939 39.3111 75.8626 39.1445 75.7897 38.9779C75.7169 38.8217 75.6232 38.676 75.5086 38.5614C75.3941 38.4469 75.2483 38.3532 75.0922 38.2803C74.936 38.2074 74.759 38.1762 74.582 38.1762H73.1036V38.6551C73.1036 38.6551 73.1557 38.6551 73.1765 38.676C73.1973 38.6968 73.2181 38.7176 73.2285 38.7384C73.2389 38.7593 73.2494 38.7801 73.2598 38.8009C73.2598 38.8217 73.2702 38.8425 73.2702 38.853V39.4985C73.2702 39.6338 73.291 39.7587 73.3326 39.8837H72.2499V39.4256C72.2499 39.0924 72.1249 38.8217 71.8855 38.6031C71.6564 38.3948 71.3857 38.2907 71.063 38.2907C70.7402 38.2907 70.4695 38.4053 70.2509 38.6239C70.0114 38.8634 69.8865 39.1861 69.8865 39.5922C69.8865 39.9462 69.9593 40.2273 70.1155 40.4251C70.3029 40.675 70.6257 40.8103 71.063 40.8103H71.3961C71.3961 41.2476 71.2191 41.664 70.8651 42.0388C70.5528 42.372 70.1884 42.6115 69.7823 42.7364V42.8197H70.1988C70.8651 42.8197 71.3857 42.6115 71.7501 42.2054C72.0729 41.841 72.2394 41.3829 72.2394 40.8103H83.2547V34.501H83.1194L83.1506 34.5426ZM71.0838 39.9253C70.8651 39.9253 70.7506 39.8108 70.7506 39.5922C70.7506 39.3735 70.8651 39.259 71.0838 39.259C71.3024 39.259 71.4169 39.3735 71.4169 39.5922C71.4169 39.8108 71.3024 39.9253 71.0838 39.9253ZM74.5196 39.9253C74.2905 39.9253 74.176 39.8108 74.176 39.5922C74.176 39.3735 74.2905 39.259 74.5196 39.259C74.7486 39.259 74.8527 39.3735 74.8527 39.5922C74.8527 39.8108 74.7382 39.9253 74.5196 39.9253Z" fill="white"/>
</g>
<defs>
<linearGradient id="paint0_linear_135_205" x1="47.1329" y1="21.4739" x2="21.2605" y2="21.4739" gradientUnits="userSpaceOnUse">
<stop stop-color="white"/>
<stop offset="0.36" stop-color="white"/>
<stop offset="1" stop-color="white"/>
</linearGradient>
<linearGradient id="paint1_linear_135_205" x1="61.9617" y1="26.9971" x2="44.3247" y2="26.9971" gradientUnits="userSpaceOnUse">
<stop stop-color="white"/>
<stop offset="0.36" stop-color="white"/>
<stop offset="1" stop-color="white"/>
</linearGradient>
<linearGradient id="paint2_linear_135_205" x1="61.5453" y1="-0.818188" x2="40.3372" y2="-0.818188" gradientUnits="userSpaceOnUse">
<stop stop-color="white"/>
<stop offset="0.36" stop-color="white"/>
<stop offset="1" stop-color="white"/>
</linearGradient>
<linearGradient id="paint3_linear_135_205" x1="-9.14897" y1="16.5691" x2="-27.6188" y2="16.5691" gradientUnits="userSpaceOnUse">
<stop stop-color="white"/>
<stop offset="0.36" stop-color="white"/>
<stop offset="1" stop-color="white"/>
</linearGradient>
<linearGradient id="paint4_linear_135_205" x1="7.74753" y1="31.8492" x2="-8.88994" y2="31.8492" gradientUnits="userSpaceOnUse">
<stop stop-color="white"/>
<stop offset="0.36" stop-color="white"/>
<stop offset="1" stop-color="white"/>
</linearGradient>
<clipPath id="clip0_135_205">
<rect width="105.01" height="42.3641" fill="white" transform="translate(0.286072 0.809326)"/>
</clipPath>
</defs>
</svg>
