<svg width="126" height="52" viewBox="0 0 126 52" fill="none" xmlns="http://www.w3.org/2000/svg">
<g clip-path="url(#clip0_119_1119)">
<path d="M93.2515 22.7288C93.2486 25.6155 92.1018 28.384 90.0611 30.4308C88.0204 32.4776 85.2512 33.6366 82.3574 33.6551H62.3702L68.7214 22.4885V27.6634H82.3574C83.65 27.6464 84.8847 27.1261 85.7981 26.2135C86.7114 25.301 87.231 24.0685 87.246 22.7791C87.261 21.4897 86.7702 20.2455 85.8783 19.3121C84.9864 18.3786 83.7641 17.8299 82.4723 17.7831H61.5106L55.7301 27.9443L50.2052 14.6818L42.6646 27.9406L37.1065 14.6929L35.3538 17.7868H18.5681L21.9364 11.8726H31.8855L37.8957 1.21609L41.7939 10.5124L43.4724 14.5007L51.0204 1.22718L56.5786 14.4933L58.0608 11.8615H82.3574C83.1268 11.8247 83.854 11.4998 84.3939 10.9517C84.9337 10.4035 85.2466 9.67251 85.2699 8.90447C85.2656 8.51176 85.1837 8.12376 85.029 7.76262C84.8743 7.40147 84.6498 7.07426 84.3684 6.79967C84.0869 6.52508 83.754 6.30848 83.3886 6.16224C83.0232 6.01601 82.6325 5.94301 82.2389 5.9474H68.7214V8.61985H62.1961V0H82.2982C84.6593 0.0106954 86.9208 0.951108 88.5904 2.61663C90.26 4.28215 91.2027 6.538 91.2135 8.89338C91.2204 10.88 90.5457 12.8091 89.3015 14.3603C90.5458 15.3712 91.5468 16.648 92.2304 18.0964C92.9141 19.5448 93.263 21.1279 93.2515 22.7288Z" fill="white"/>
<path d="M6.86995 50.1038C6.86995 51.2127 5.95099 51.8115 4.47993 51.8115H4.00543e-05V45.5832H4.22055C5.59527 45.5832 6.51422 46.145 6.51422 47.1652C6.52275 47.3481 6.49397 47.5308 6.42965 47.7022C6.36532 47.8737 6.26677 48.0303 6.13998 48.1627C6.01319 48.2951 5.86078 48.4004 5.69199 48.4722C5.52321 48.5441 5.34155 48.5811 5.15803 48.5809C6.12886 48.6437 6.86995 49.091 6.86995 50.1038ZM1.05239 48.2076H4.0501C4.88753 48.2076 5.45076 48.0227 5.45076 47.3352C5.45076 46.6477 4.88753 46.474 4.0501 46.474H1.05239V48.2076ZM5.77313 49.9966C5.77313 49.2943 5.2099 49.0725 4.27242 49.0725H1.05239V50.9207H4.27242C5.2099 50.9207 5.77313 50.6989 5.77313 49.9966Z" fill="white"/>
<path d="M16.304 50.8763V51.8115H10.0788V45.5832H16.2077V46.5183H11.1386V48.1817H15.4036V49.1169H11.1386V50.8763H16.304Z" fill="white"/>
<path d="M26.3384 45.5832V51.8115H25.2712V49.1353H20.5505V51.8115H19.4796V45.5832H20.5505V48.1706H25.2712V45.5832H26.3384Z" fill="white"/>
<path d="M30.0142 51.8115V45.5832H31.0851V51.8115H30.0142Z" fill="white"/>
<path d="M41.6011 45.5832V51.8115H40.6563L35.7762 46.8991V51.8115H34.7424V45.5832H35.8836L40.5562 50.3071V45.5832H41.6011Z" fill="white"/>
<path d="M52.2469 48.6992C52.2469 50.6213 50.7647 51.8115 48.4488 51.8115H45.2806V45.5832H48.4488C50.7647 45.5832 52.2469 46.7771 52.2469 48.6992ZM51.1352 48.6992C51.1352 47.2576 49.994 46.5183 48.3524 46.5183H46.3367V50.8763H48.3524C49.994 50.8763 51.1352 50.1407 51.1352 48.6992Z" fill="white"/>
<path d="M65.6384 46.5183H62.7926V51.8115H61.7217V46.5183H58.8944V45.5832H65.6384V46.5183Z" fill="white"/>
<path d="M75.406 45.5832V51.8115H74.3351V49.1353H69.6144V51.8115H68.5509V45.5832H69.6218V48.1706H74.3425V45.5832H75.406Z" fill="white"/>
<path d="M85.2884 50.8763V51.8115H79.0707V45.5832H85.1995V46.5183H80.1304V48.1817H84.3954V49.1169H80.1304V50.8763H85.2884Z" fill="white"/>
<path d="M92.9587 45.5832L95.5896 50.7174L98.2205 45.5832H99.3877L96.1491 51.8115H95.0078L91.7693 45.5832H92.9587Z" fill="white"/>
<path d="M101.492 48.6992C101.492 46.644 102.974 45.3947 105.372 45.3947C107.769 45.3947 109.255 46.644 109.255 48.6992C109.255 50.7543 107.773 52 105.372 52C102.971 52 101.492 50.7543 101.492 48.6992ZM108.162 48.6992C108.162 47.1837 107.073 46.3409 105.376 46.3409C103.679 46.3409 102.585 47.1837 102.585 48.6992C102.585 50.2147 103.675 51.0574 105.376 51.0574C107.076 51.0574 108.158 50.211 108.158 48.6992H108.162Z" fill="white"/>
<path d="M118.163 50.8689V51.8115H112.49V45.5832H113.561V50.8689H118.163Z" fill="white"/>
<path d="M125.667 46.5183H122.821V51.8115H121.75V46.5183H118.923V45.5832H125.667V46.5183Z" fill="white"/>
</g>
<defs>
<clipPath id="clip0_119_1119">
<rect width="125.667" height="52" fill="white"/>
</clipPath>
</defs>
</svg>
