<svg width="204" height="36" viewBox="0 0 204 36" fill="none" xmlns="http://www.w3.org/2000/svg">
<g clip-path="url(#clip0_135_258)">
<mask id="mask0_135_258" style="mask-type:luminance" maskUnits="userSpaceOnUse" x="0" y="0" width="204" height="36">
<path d="M203.277 0.3396H0.599243V35.643H203.277V0.3396Z" fill="white"/>
</mask>
<g mask="url(#mask0_135_258)">
<path d="M181.672 34.8752H192.817V26.9159H200.725V18.0848H192.859C193.149 14.7537 195.899 12.2528 199.324 12.2528H203.277V1.10764H199.324C189.486 1.10764 181.672 8.92171 181.672 18.7178V34.8752ZM135.846 17.9914C135.846 14.3283 138.689 11.4849 142.363 11.4849C146.036 11.4849 148.869 14.3283 148.869 17.9914C148.869 21.6546 146.026 24.498 142.363 24.498C138.7 24.498 135.846 21.6546 135.846 17.9914ZM90.6012 18.0433C90.6012 27.8291 98.4153 35.6431 108.253 35.6431C116.648 35.6431 123.539 30.3404 125.427 23.0036C127.544 30.3404 134.3 35.6431 142.363 35.6431C150.426 35.6431 157.171 30.3819 159.288 23.1074C161.696 29.9564 168.213 34.8752 175.975 34.8752H179.929V23.6885H175.975C172.312 23.6885 169.458 20.8867 169.458 17.2235V1.10764H158.313V10.3745C155.469 4.39723 149.44 0.339723 142.353 0.339723C134.196 0.339723 127.399 5.74627 125.323 13.2179H108.44V22.0904H113.359C112.103 23.5329 110.318 24.498 108.243 24.498C104.579 24.498 101.726 21.6546 101.726 17.9914C101.726 14.3283 104.569 11.4849 108.243 11.4849C109.208 11.4849 110.173 11.7236 110.992 12.1075L116.441 2.3114C113.981 1.01424 111.231 0.329346 108.243 0.329346C98.4049 0.329346 90.5908 8.14342 90.5908 18.0329M56.8232 34.8648H60.1024C60.7251 34.8648 61.6486 34.3875 62.2713 33.7545L93.5483 2.70574C94.3681 1.93782 94.3681 1.11802 93.5483 1.11802H91.7115L59.7807 32.9035L60.31 30.3923L89.6361 1.10764H86.2635L61.2335 26.1376L61.7109 23.8235L84.1362 1.10764H80.8051L62.6656 19.2886L63.1949 16.8811L78.7919 1.10764H76.5711C75.8966 1.10764 74.9834 1.54348 74.3504 2.16612L64.0769 12.6783L66.2043 2.69536C66.4014 1.78216 65.7684 1.10764 64.8967 1.10764H63.9835L56.844 34.8752L56.8232 34.8648ZM52.7761 34.8648H55.3808L62.5307 1.10764H59.926L52.7865 34.8752L52.7761 34.8648ZM48.7705 34.8648H51.427L58.5251 1.10764H55.9204L48.7808 34.8752L48.7705 34.8648ZM45.1073 33.2771C44.9101 34.1903 45.5431 34.8648 46.4148 34.8648H47.328L54.478 1.10764H53.4195C52.5478 1.10764 51.8318 1.63688 51.6346 2.55008L45.128 33.2771H45.1073ZM38.5904 34.8648H39.6489C40.5205 34.8648 41.2366 34.3356 41.4337 33.4224L47.961 2.70574C48.1478 1.79254 47.5252 1.11802 46.6535 1.11802H45.7403L38.6008 34.8856L38.5904 34.8648ZM30.5376 34.8648H33.1942L40.2922 1.10764H37.6876L30.548 34.8752L30.5376 34.8648ZM26.8745 33.2771C26.6773 34.1903 27.3103 34.8648 28.182 34.8648H29.0952L36.2451 1.10764H35.1866C34.3149 1.10764 33.5989 1.63688 33.4017 2.55008L26.8952 33.2771H26.8745ZM9.99066 32.3639L12.0142 34.8752H22.3811C23.0556 34.8752 23.5849 34.3979 23.7301 33.7649L24.0207 32.3639H12.5642L12.9067 30.8696H24.3424C24.5396 30.1017 24.7264 29.23 24.8716 28.4102H13.384L13.7161 26.9159H25.1933C25.3386 26.0961 25.5254 25.2763 25.7226 24.4046H14.2453L14.5359 22.9621H26.0131L26.2103 22.0489C26.4075 21.2291 25.7745 20.5027 24.9028 20.5027H15.0651L18.8321 2.70574C19.0292 1.79254 18.3962 1.11802 17.5245 1.11802H16.6113L10.001 32.3743L9.99066 32.3639ZM6.80484 28.3168L8.82841 30.8696L15.1689 1.10764H12.5642L6.8256 28.3168H6.80484ZM3.61902 24.2697L5.69448 26.8744L11.1633 1.10764H8.5586L3.63978 24.2593L3.61902 24.2697ZM0.599243 20.4093L2.57092 22.9206L7.11616 1.10764H6.05768C5.18599 1.10764 4.46996 1.63688 4.27279 2.55008L0.599243 20.4093ZM44.2979 1.10764H41.6932L34.5536 34.8752H37.1583L44.2979 1.10764Z" fill="white"/>
</g>
</g>
<defs>
<clipPath id="clip0_135_258">
<rect width="202.678" height="35.3034" fill="white" transform="translate(0.599243 0.3396)"/>
</clipPath>
</defs>
</svg>
