<svg width="76" height="34" viewBox="0 0 76 34" fill="none" xmlns="http://www.w3.org/2000/svg">
<path d="M75.2515 22.7287C75.2486 25.6155 74.1018 28.384 72.0611 30.4308C70.0204 32.4776 67.2512 33.6366 64.3574 33.6551H44.3702L50.7214 22.4885V27.6634H64.3574C65.65 27.6464 66.8847 27.1261 67.7981 26.2135C68.7114 25.301 69.231 24.0685 69.246 22.7791C69.261 21.4897 68.7702 20.2455 67.8783 19.3121C66.9864 18.3786 65.7641 17.8299 64.4723 17.7831H43.5106L37.7301 27.9443L32.2052 14.6818L24.6646 27.9406L19.1065 14.6929L17.3538 17.7868H0.5681L3.93635 11.8726H13.8855L19.8957 1.21609L23.7939 10.5124L25.4724 14.5007L33.0204 1.22718L38.5786 14.4933L40.0608 11.8615H64.3574C65.1268 11.8247 65.854 11.4998 66.3939 10.9517C66.9337 10.4035 67.2466 9.67251 67.2699 8.90447C67.2656 8.51176 67.1837 8.12376 67.029 7.76262C66.8743 7.40147 66.6498 7.07426 66.3684 6.79967C66.0869 6.52508 65.754 6.30848 65.3886 6.16224C65.0232 6.01601 64.6325 5.94301 64.2389 5.9474H50.7214V8.61985H44.1961V0H64.2982C66.6593 0.0106954 68.9208 0.951108 70.5904 2.61663C72.26 4.28215 73.2027 6.538 73.2135 8.89338C73.2204 10.88 72.5457 12.8091 71.3015 14.3603C72.5458 15.3712 73.5468 16.648 74.2304 18.0964C74.9141 19.5448 75.263 21.1279 75.2515 22.7287Z" fill="white"/>
</svg>
