<svg width="142" height="36" viewBox="0 0 142 36" fill="none" xmlns="http://www.w3.org/2000/svg">
<g clip-path="url(#clip0_135_267)">
<mask id="mask0_135_267" style="mask-type:luminance" maskUnits="userSpaceOnUse" x="0" y="0" width="142" height="36">
<path d="M141.968 0.395508H0.9198V35.6989H141.968V0.395508Z" fill="white"/>
</mask>
<g mask="url(#mask0_135_267)">
<path d="M54.9581 12.4143C51.9353 12.4143 50.0061 14.6427 50.0165 17.9956C50.0165 22.0397 51.956 23.8039 56.289 23.7936H59.4149V18.0988C59.4149 14.2817 57.9293 12.404 54.9684 12.4143" fill="white"/>
<path d="M18.4682 12.4559C15.4455 12.4559 13.5163 14.6842 13.5266 18.0371C13.5266 22.0812 15.4661 23.8454 19.7991 23.8351H22.8734V18.1403C22.8734 14.2716 21.5013 12.4455 18.4889 12.4559" fill="white"/>
<path d="M124.348 12.7859C121.273 12.7859 118.828 15.2412 118.828 18.2537C118.828 21.2765 121.284 23.7731 124.358 23.7731C127.37 23.7731 129.815 21.2661 129.815 18.2434C129.815 15.2309 127.36 12.7859 124.348 12.7859Z" fill="white"/>
<path d="M0.9198 35.6989H141.968V0.395508H0.9198V35.6989ZM21.2229 28.1059C16.436 28.1059 14.3314 27.7758 11.8245 26.1251C9.65796 24.6498 8.46124 21.8644 8.45092 18.2123C8.45092 13.1984 11.7419 8.13296 19.0254 8.12264C24.9472 8.12264 28.0834 11.4136 28.0834 17.5623V28.0956H21.2126L21.2229 28.1059ZM41.0411 12.5382C38.0286 12.5382 36.0891 14.6531 36.0994 18.0679V18.5218L36.1097 28.0853H30.9308L30.9205 18.1298C30.9205 11.3517 34.2631 8.16391 41.495 8.15359C41.495 8.15359 43.1353 8.15359 45.1368 8.43214L43.9504 12.9302C43.2695 12.7651 42.2997 12.5382 41.0411 12.5382ZM57.5373 28.0543C52.7607 28.0543 50.6458 27.7242 48.1389 26.0735C45.9724 24.5983 44.7757 21.8128 44.7757 18.1607C44.7757 13.1468 48.0667 8.08138 55.3502 8.07106C61.2719 8.07106 64.4598 11.3621 64.4701 17.5108V28.044H57.5373V28.0543ZM89.7045 28.0131L89.6839 15.7157C89.6839 13.3841 88.6006 12.3009 86.2072 12.3009C85.2993 12.3009 84.4946 12.4763 83.4733 12.8167C83.6486 13.4976 83.7002 14.2404 83.7002 15.3752L83.7209 28.0131H78.5935L78.5832 15.726C78.5832 13.1056 77.8404 12.3112 75.3335 12.3112C74.3121 12.3112 73.5074 12.4247 72.4861 12.7651L72.5067 28.0234H67.4413L67.4206 9.41222L67.9365 9.23684C70.7838 8.26708 73.3939 7.92663 75.9628 7.91631C78.0158 7.91631 79.4395 8.25676 80.9147 9.10272C82.7305 8.35993 85.0104 7.906 87.2285 7.89568C89.8489 7.89568 91.9535 8.69006 93.2121 10.0518C94.347 11.3002 94.7493 12.7857 94.7596 15.2927L94.7803 27.9821H89.7148L89.7045 28.0131ZM107.047 28.3948C101.032 28.3948 97.1531 24.5054 97.1428 18.4702C97.1428 12.1874 101.218 7.95758 107.305 7.95758C107.305 7.95758 109.234 8.00916 110.554 8.41151C111.019 8.53531 112.401 8.94797 113.567 9.91773L111.431 13.6008C110.513 12.8786 109.461 12.5794 109.461 12.5794C108.893 12.4144 108.295 12.3318 107.583 12.3421C104.179 12.3421 102.219 14.4983 102.229 18.2432C102.229 21.9056 104.168 23.9999 107.542 23.9896C108.924 23.9896 109.873 23.7007 111.235 22.8238L113.763 26.0632C111.06 28.5702 107.036 28.4051 107.036 28.4051M124.348 28.3845C118.766 28.3845 114.206 23.8451 114.196 18.2639C114.196 12.6826 118.735 8.12264 124.317 8.12264C129.898 8.12264 134.396 12.662 134.406 18.2432C134.406 23.8245 129.919 28.3845 124.348 28.3845Z" fill="white"/>
</g>
</g>
<defs>
<clipPath id="clip0_135_267">
<rect width="141.049" height="35.3034" fill="white" transform="translate(0.9198 0.395508)"/>
</clipPath>
</defs>
</svg>
