<svg width="64" height="29" viewBox="0 0 64 29" fill="none" xmlns="http://www.w3.org/2000/svg">
<path d="M60.7416 12.3848C61.7253 11.0666 62.2786 9.44186 62.2786 7.78647C62.2786 3.49471 58.7743 0 54.4707 0H37.195V7.75581H43.1892V5.48732H54.44C55.731 5.48732 56.7762 6.49894 56.7762 7.75581C56.7762 9.01268 55.7618 9.99366 54.5322 10.055H33.7829L32.6763 11.9863L27.9731 0.735729L21.5793 11.9863L16.8146 0.735729L11.5581 10.055H3.13545L0 15.5423H14.7858L16.1076 13.2125L20.8108 24.463L27.2046 13.2125L31.9078 24.463L36.9798 15.5423H54.6244C56.7762 15.6036 58.4976 17.351 58.4976 19.4968C58.4976 21.6427 56.7147 23.4514 54.5322 23.4514H43.1892V18.4239L37.1643 29H54.5322C59.7579 29 64 24.7389 64 19.4968C64 14.2548 62.8012 14.1321 60.7416 12.3541V12.3848Z" fill="white"/>
</svg>
