<svg width="94" height="34" viewBox="0 0 94 34" fill="none" xmlns="http://www.w3.org/2000/svg">
<path d="M93.5347 22.8316C93.5347 28.8458 87.4233 33.8204 79.9228 33.8204H54.9676L62.8848 22.6088V27.8063H79.9228C83.3489 27.8063 86.1269 25.5788 86.1269 22.8316C86.1269 20.0844 83.4415 17.9311 80.108 17.8569H53.9491L46.7264 28.0661L39.7816 14.7384L30.3366 28.0661L23.3917 14.7756L21.2156 17.894H0.242188L4.4554 11.9541H16.8635L24.364 1.22511L29.2254 10.5434L31.3088 14.5528L40.7538 1.22511L47.6987 14.5528L49.5506 11.917H79.9228C81.8674 11.8427 83.5804 10.5062 83.5804 8.94701C83.5804 7.38778 81.9137 5.97705 79.7839 5.97705H62.8848V8.65001H54.7361V0H79.8302C85.9417 0 90.9883 4.04657 90.9883 8.94701C90.9883 13.8474 90.1086 12.9193 88.5807 14.4414C91.6365 16.409 93.5347 19.4532 93.5347 22.8316Z" fill="white"/>
</svg>
