<svg width="1282" height="42" viewBox="0 0 1282 42" fill="none" xmlns="http://www.w3.org/2000/svg">
<path d="M1274 36.9905L276.176 36.9905C276.176 36.9905 245.04 4.42322 245.116 5.10252C245.192 5.78182 8 5.73772 8 5.73772" stroke="#00FFFF" stroke-width="3"/>
<path d="M1277.05 40.1254C1275.37 40.1254 1274 38.7218 1274 36.9902C1274 35.2587 1275.37 33.855 1277.05 33.855C1278.74 33.855 1280.11 35.2587 1280.11 36.9902C1280.11 38.7218 1278.74 40.1254 1277.05 40.1254Z" stroke="#00FFFF" stroke-width="2.4"/>
<path d="M5.05405 8.2441C3.36747 8.2441 2.0002 6.84041 2.0002 5.10887C2.0002 3.37732 3.36747 1.97363 5.05405 1.97363C6.74063 1.97363 8.10791 3.37732 8.10791 5.10887C8.10791 6.84041 6.74063 8.2441 5.05405 8.2441Z" stroke="#00FFFF" stroke-width="2.4"/>
</svg>
